SplineFontDB: 3.2
FontName: AtkinsonHyperPro-Regular
FullName: Atkinson Hyperlegible Pro Regular
FamilyName: Atkinson Hyperlegible Pro
Weight: Regular
Copyright: Copyright 2020 Braille Institute of America, Inc.
UComments: "Update by Jacob Perez+AAoA-https://jacobxperez.github.io/atkinson-hyperlegible-pro/"
Version: 1.3.2
ItalicAngle: 0
UnderlinePosition: -106
UnderlineWidth: 57
Ascent: 800
Descent: 200
InvalidEm: 0
sfntRevision: 0x00010000
LayerCount: 2
Layer: 0 0 "Back" 1
Layer: 1 0 "Fore" 0
XUID: [1021 466 782043844 18134]
StyleMap: 0x0040
FSType: 0
OS2Version: 4
OS2_WeightWidthSlopeOnly: 0
OS2_UseTypoMetrics: 1
CreationTime: 1615339189
ModificationTime: 1697754187
PfmFamily: 81
TTFWeight: 400
TTFWidth: 5
LineGap: 0
VLineGap: 0
Panose: 0 0 0 0 0 0 0 0 0 0
OS2TypoAscent: 950
OS2TypoAOffset: 0
OS2TypoDescent: -290
OS2TypoDOffset: 0
OS2TypoLinegap: 0
OS2WinAscent: 950
OS2WinAOffset: 0
OS2WinDescent: 290
OS2WinDOffset: 0
HheadAscent: 950
HheadAOffset: 0
HheadDescent: -290
HheadDOffset: 0
OS2SubXSize: 650
OS2SubYSize: 699
OS2SubXOff: 0
OS2SubYOff: 140
OS2SupXSize: 650
OS2SupYSize: 699
OS2SupXOff: 0
OS2SupYOff: 479
OS2StrikeYSize: 49
OS2StrikeYPos: 258
OS2CapHeight: 668
OS2XHeight: 496
OS2Vendor: 'NONE'
OS2CodePages: 20000003.00000000
OS2UnicodeRanges: 800000ef.0000204b.00000000.00000000
Lookup: 4 0 1 "'liga' Standard Ligatures lookup 0" { "'liga' Standard Ligatures lookup 0-1"  } ['liga' ('DFLT' <'dflt' > 'grek' <'dflt' > 'latn' <'MOL ' 'dflt' > ) ]
Lookup: 1 0 0 "'zero' Slashed Zero lookup 0" { "'zero' Slashed Zero lookup 0-1"  } ['zero' ('DFLT' <'dflt' > 'grek' <'dflt' > 'latn' <'MOL ' 'dflt' > ) ]
Lookup: 1 0 0 "'aalt' Access All Alternates lookup 0" { "'aalt' Access All Alternates lookup 0 subtable"  } ['aalt' ('DFLT' <'dflt' > 'grek' <'dflt' > 'latn' <'dflt' > ) ]
Lookup: 3 0 0 "'aalt' Access All Alternates lookup 1" { "'aalt' Access All Alternates lookup 1 subtable"  } ['aalt' ('DFLT' <'dflt' > 'grek' <'dflt' > 'latn' <'dflt' > ) ]

StartChar: .notdef
Encoding: 256 -1 0
Width: 523
GlyphClass: 1
Flags: W
HStem: 0 21<77 447> 680 20<76 447>
VStem: 48 21<49 650> 455 20<47 652>
DStem2: 76 680 69 650 0.513698 -0.857971<22.1432 360.147 396.696 737.787> 69 49 77 21 0.513896 0.857853<0 339.381 374.897 715.649>
LayerCount: 2
Fore
SplineSet
77 21 m 1
 447 21 l 1
 262 329 l 1
 77 21 l 1
69 49 m 1
 249 350 l 1
 69 650 l 1
 69 49 l 1
455 47 m 1
 455 652 l 1
 274 350 l 1
 455 47 l 1
261 371 m 1
 447 680 l 1
 76 680 l 1
 261 371 l 1
48 0 m 1
 48 700 l 1
 475 700 l 1
 475 0 l 1
 48 0 l 1
EndSplineSet
EndChar

StartChar: zero
Encoding: 48 48 5
Width: 648
GlyphClass: 1
Flags: W
HStem: -12 74<243.566 405.755> 606 74<244.177 406.083>
VStem: 60 91<180.243 483.732> 497 91<192.471 490.938>
DStem2: 217 566 171 486 0.571572 -0.820552<39.3519 458.851>
LayerCount: 2
Fore
SplineSet
151 333.888125199 m 0
 151 194.410363666 187.288351436 62 323.989511805 62 c 0
 370 62 407 77 435 107 c 1
 171 486 l 1
 159.295975434 449.717523847 151 400.577259229 151 333.888125199 c 0
497 334.263073085 m 0
 497 482.139812672 457.386628863 606 324.324181409 606 c 0
 280.666666667 606 245 592.666666667 217 566 c 1
 480 190 l 1
 491.333333333 230 497 278.333333333 497 334.263073085 c 0
588 327.873493783 m 0
 588 249.499220743 577.471573933 -12 305.456602674 -12 c 0
 271.980329309 -12 60 -8.03941812951 60 341.990448547 c 0
 60 419.894763101 70.5004613045 680 321.417215225 680 c 0
 433.607736284 680 588 628.000148255 588 327.873493783 c 0
EndSplineSet
Substitution2: "'zero' Slashed Zero lookup 0-1" zero.alt1
Substitution2: "'tnum' Tabular Numbers lookup 14 subtable" zero.tf
Substitution2: "'aalt' Access All Alternates lookup 0 subtable" zero.alt1
EndChar

StartChar: one
Encoding: 49 49 6
Width: 402
GlyphClass: 1
Flags: W
HStem: 0 21G<220 304> 504 67<42 180.495> 648 20G<237.956 304>
VStem: 220 84<0 504> 248 56<628.026 668>
LayerCount: 2
Fore
SplineSet
42 571 m 1xf0
 181.47352205 571 227.912848522 609.173342101 248 668 c 1
 304 668 l 1xe8
 304 0 l 1
 220 0 l 1
 220 504 l 1
 42 504 l 1
 42 571 l 1xf0
EndSplineSet
Substitution2: "'tnum' Tabular Numbers lookup 14 subtable" one.tf
Substitution2: "'sups' Superscript lookup 9 subtable" uni00B9
AlternateSubs2: "'aalt' Access All Alternates lookup 1 subtable" uni00B9 one.tf
EndChar

StartChar: two
Encoding: 50 50 7
Width: 549
GlyphClass: 1
Flags: W
HStem: 0 77<147 515> 498 21G<73 152.928> 610 70<203.594 361.445>
VStem: 59 84<520 552.161> 408 89<409.532 563.415>
LayerCount: 2
Fore
SplineSet
497 501.125376391 m 0
 497 371.689090757 387.678003607 252.351116913 147 77 c 1
 515 77 l 1
 515 0 l 1
 34 0 l 1
 34 75 l 1
 328.64354526 292.237190149 408 399.239723819 408 491.774990112 c 0
 408 556.062133751 369.69848443 610 285.274072599 610 c 0
 247.030531515 610 162.855451744 598.931879701 143 498 c 1
 59 522 l 1
 67.9824408497 558.428787891 110.993945302 680 282.938475109 680 c 0
 401.77889357 680 497 621.925916615 497 501.125376391 c 0
EndSplineSet
Substitution2: "'tnum' Tabular Numbers lookup 14 subtable" two.tf
Substitution2: "'sups' Superscript lookup 9 subtable" uni00B2
AlternateSubs2: "'aalt' Access All Alternates lookup 1 subtable" uni00B2 two.tf
EndChar

StartChar: three
Encoding: 51 51 8
Width: 574
GlyphClass: 1
Flags: W
HStem: -12 70<187.004 363.77> 314 76<218 351.137> 498 21G<65.6667 144.019> 610 70<195.165 357.315>
VStem: 42 83<120.953 153.024> 52 82<519.951 550.724> 407 88<435.201 564.921> 424 90<113.027 256.313>
LayerCount: 2
Fore
SplineSet
514 185.662410696 m 0xf1
 514 37.102199273 376.622021144 -12 271.421791189 -12 c 0
 202.531659565 -12 79.8516593365 9.05627748814 42 151 c 1
 125 175 l 1
 134.359208542 130.756468712 166.014494327 58 272.456647803 58 c 0
 343.241327613 58 424 90.1753182437 424 185.837211047 c 0xf9
 424 303.893206982 301.005035917 314 218 314 c 1
 218 390 l 1
 369.060243346 390 407 436.237764445 407 498.399138673 c 0
 407 595.864404756 313.727617037 610 274.351091476 610 c 0
 238.364435082 610 154.038693811 598.193469057 134 498 c 1
 52 522 l 1
 57.9183234549 545.344498072 94.47090556 680 280.76838422 680 c 0
 349.708494082 680 495 661.560289817 495 516.032106065 c 0xf6
 495 475.981791328 483.995815244 395.677508214 386 355 c 1
 436 339.666666667 469.833333333 316.833333333 490.521953911 281.311362153 c 0
 505.166666667 256.166666667 514 223.333333333 514 185.662410696 c 0xf1
EndSplineSet
Substitution2: "'tnum' Tabular Numbers lookup 14 subtable" three.tf
Substitution2: "'sups' Superscript lookup 9 subtable" uni00B3
AlternateSubs2: "'aalt' Access All Alternates lookup 1 subtable" uni00B3 three.tf
EndChar

StartChar: four
Encoding: 52 52 9
Width: 614
GlyphClass: 1
Flags: W
HStem: 0 21G<370 454> 165 79<129 370 454 576> 648 20G<353.387 454>
VStem: 370 84<0 165 244 553>
DStem2: 38 244 129 244 0.615355 0.78825<55.9973 447.867>
LayerCount: 2
Fore
SplineSet
129 244 m 1
 370 244 l 1
 370 553 l 1
 129 244 l 1
370 0 m 1
 370 165 l 1
 38 165 l 1
 38 244 l 1
 369 668 l 1
 454 668 l 1
 454 244 l 1
 576 244 l 1
 576 165 l 1
 454 165 l 1
 454 0 l 1
 370 0 l 1
EndSplineSet
Substitution2: "'tnum' Tabular Numbers lookup 14 subtable" four.tf
Substitution2: "'sups' Superscript lookup 9 subtable" uni2074
AlternateSubs2: "'aalt' Access All Alternates lookup 1 subtable" four.tf uni2074
EndChar

StartChar: five
Encoding: 53 53 10
Width: 583
GlyphClass: 1
Flags: W
HStem: -12 70<193.336 359.095> 378 72<200.829 362> 587 81<181 496>
VStem: 54 82<120.836 153.049> 433 88<131.971 307.085>
DStem2: 72 328 158 400 0.119721 0.992808<0 15.0176 81.7781 270.187>
LayerCount: 2
Fore
SplineSet
521 221.034953462 m 0
 521 52.4947490223 391.715079563 -12 277.646873326 -12 c 0
 205.547511066 -12 93.64518964 13.7666512461 54 151 c 1
 136 175 l 1
 141.759587562 148.60189034 161.527272727 58 272.831446008 58 c 0
 355.166293529 58 433 107.577170135 433 221.397667283 c 0
 433 356.811683633 322.832373087 378 274.880955812 378 c 0
 188.178359484 378 156.080317766 308.727994924 154 304 c 1
 72 328 l 1
 113 668 l 1
 496 668 l 1
 496 587 l 1
 181 587 l 1
 158 400 l 1
 175.200910944 417.200910944 218.899168029 450 294.752905176 450 c 0
 405.058674046 450 521 380.64076897 521 221.034953462 c 0
EndSplineSet
Substitution2: "'tnum' Tabular Numbers lookup 14 subtable" five.tf
Substitution2: "'aalt' Access All Alternates lookup 0 subtable" five.tf
EndChar

StartChar: six
Encoding: 54 54 11
Width: 598
GlyphClass: 1
Flags: W
HStem: -12 71<222.609 380.783> 371 74<223.04 380.165> 610 70<240.405 388.516>
VStem: 60 97<147.692 388.78> 60 87<352 472.882> 448 90<126.787 303.478>
LayerCount: 2
Fore
SplineSet
157 221.487880132 m 0xf4
 157 198.188541914 161.279094097 59 299.161162715 59 c 0
 395.100458432 59 448 126.387750083 448 215.000551 c 0
 448 303.616521135 395.096674481 371 302.196955692 371 c 0
 208.297708096 371 157 302.158732989 157 221.487880132 c 0xf4
538 224.85654073 m 0
 538 104.839959242 457.844239545 -12 278.626943196 -12 c 0
 246.918716166 -12 60 -8.34257463647 60 304.679211525 c 0xf4
 60 417.202202244 84.1538403928 680 322.97629661 680 c 0
 370.333333333 680 410.333333333 669.666666667 444.831856401 646.41766199 c 0
 471.666666667 628.333333333 494.333333333 603 509 573 c 1
 424 548 l 1
 413.908693308 567.509859604 384.429409567 610 314.250807359 610 c 0
 162.297028239 610 148.520542378 410.794305293 147 352 c 1xec
 171.469516395 393.491788669 222.155300794 445 317.852648076 445 c 0
 444.920459159 445 538 354.187053385 538 224.85654073 c 0
EndSplineSet
Substitution2: "'tnum' Tabular Numbers lookup 14 subtable" six.tf
Substitution2: "'aalt' Access All Alternates lookup 0 subtable" six.tf
EndChar

StartChar: seven
Encoding: 55 55 12
Width: 510
GlyphClass: 1
Flags: W
HStem: 0 21G<93 207.472> 587 81<15 383>
LayerCount: 2
Fore
SplineSet
93 0 m 1
 383 587 l 1
 15 587 l 1
 15 668 l 1
 476 668 l 1
 476 587 l 1
 198 0 l 1
 93 0 l 1
EndSplineSet
Substitution2: "'tnum' Tabular Numbers lookup 14 subtable" seven.tf
Substitution2: "'aalt' Access All Alternates lookup 0 subtable" seven.tf
EndChar

StartChar: eight
Encoding: 56 56 13
Width: 615
GlyphClass: 1
Flags: W
HStem: -12 74<212.472 400.85> 317 74<243.54 369.305> 606 74<244.142 371.003>
VStem: 60 91<119.772 259.091> 126 74<432.951 562.207> 414 75<433.671 562.246> 464 91<118.142 258.119>
LayerCount: 2
Fore
SplineSet
151 188.599837152 m 0xf2
 151 109.018294935 213.426483697 62 301.98141491 62 c 0
 334.593617145 62 464 68.3767828694 464 186.292972394 c 0
 464 266.35663053 404.340489776 317 307.790601792 317 c 0
 212.29568139 317 151 267.457309656 151 188.599837152 c 0xf2
200 498.490406913 m 0xec
 200 436.634705755 249.209003764 391 307.000444482 391 c 0
 364.793378342 391 414 436.63706389 414 498.490603793 c 0
 414 559.722411618 365.777625257 606 307.0002508 606 c 0
 248.223705259 606 200 559.723716881 200 498.490406913 c 0xec
555 189.297103792 m 0xe2
 555 50.4398495972 433.562964623 -12 308.329954835 -12 c 0
 186.262894831 -12 60 47.322737127 60 185.04384416 c 0xf2
 60 228.97938727 72.8501066101 321.940042644 183 366 c 1
 160.534441944 387.601498131 126 431.744695246 126 497.921186236 c 0
 126 599.167176399 206.835222233 680 308.011664065 680 c 0
 410.169236883 680 489 597.591866606 489 499.406805112 c 0xec
 489 468.184468899 481.028580036 413.14286542 432 366 c 1
 473.574777213 349.667051809 555 303.000247588 555 189.297103792 c 0xe2
EndSplineSet
Substitution2: "'tnum' Tabular Numbers lookup 14 subtable" eight.tf
Substitution2: "'aalt' Access All Alternates lookup 0 subtable" eight.tf
EndChar

StartChar: nine
Encoding: 57 57 14
Width: 598
GlyphClass: 1
Flags: W
HStem: 0 21G<213 329.667> 201 86<223.494 350.514> 594 85<221.721 376.377>
VStem: 60 86<363.956 518.159> 454 84<395.021 519.128>
DStem2: 226.5 19 317 0 0.557474 0.830195<34.6777 221.909>
LayerCount: 2
Fore
SplineSet
146 441.162726956 m 0
 146 355.336076972 215.069723382 287 299.845391213 287 c 0
 386.333856575 287 454 358.125279518 454 441.150645152 c 0
 454 523.344497669 387.68244522 594 299.846199399 594 c 0
 213.80195173 594 146 526.19805682 146 441.162726956 c 0
301.713241388 679 m 0
 440.288998009 679 538 568.70289598 538 395.02134062 c 1
 538 395.02134062 538 355.695652174 398.55008237 127.321149389 c 0
 366.5 74.8333333333 342.333333333 37.3333333333 317 0 c 1
 213 0 l 1
 226.5 19 l 2
 250.966948416 53.4349644377 302.380521711 126.663701817 352 207 c 1
 335.333333333 203 317.666666667 201 299.747956514 201 c 0
 169.3605451 201 60 306.898018352 60 441.721510868 c 0
 60 575.295314619 167.342599186 679 301.713241388 679 c 0
EndSplineSet
Substitution2: "'tnum' Tabular Numbers lookup 14 subtable" nine.tf
Substitution2: "'aalt' Access All Alternates lookup 0 subtable" nine.tf
EndChar

StartChar: A
Encoding: 65 65 15
Width: 626
GlyphClass: 2
Flags: W
HStem: 0 21G<10 116.986 509.014 616> 146 81<190 436> 574 95<261 366>
DStem2: 10 0 110 0 0.351277 0.936272<35.1277 189.738 275.763 643.857> 366 669 313 574 0.350049 -0.936731<70.4369 438.539 524.565 679.181>
AnchorPoint: "Anchor-2" 615 0 basechar 0
AnchorPoint: "Anchor-1" 313 0 basechar 0
AnchorPoint: "Anchor-0" 313 668 basechar 0
LayerCount: 2
Fore
SplineSet
190 227 m 1
 436 227 l 1
 313 574 l 1
 190 227 l 1
10 0 m 1
 261 669 l 1
 366 669 l 1
 616 0 l 1
 516 0 l 1
 465 146 l 1
 161 146 l 1
 110 0 l 1
 10 0 l 1
EndSplineSet
Substitution2: "Single Substitution lookup 12 subtable" ordfeminine
Substitution2: "'aalt' Access All Alternates lookup 0 subtable" ordfeminine
EndChar

StartChar: B
Encoding: 66 66 16
Width: 619
GlyphClass: 1
Flags: W
HStem: 0 79<170 436.723> 308 74<170 419.869> 589 79<170 419.065>
VStem: 76 94<79 308 382 589> 457 95<418.828 550.525> 484 97<127.037 264.661>
AnchorPoint: "Anchor-0" 290 668 basechar 0
LayerCount: 2
Fore
SplineSet
484 196.208530354 m 0xf4
 484 245.417611627 452.53679031 308 370 308 c 2
 170 308 l 1
 170 79 l 1
 371 79 l 2
 453.676910649 79 484 147.899261197 484 196.208530354 c 0xf4
457 488.212905764 m 0xf8
 457 524.203762551 432.12406989 589 355 589 c 2
 170 589 l 1
 170 382 l 1
 355 382 l 2
 448.050460228 382 457 466.625379812 457 488.212905764 c 0xf8
581 198.113179717 m 0xf4
 581 115.017954141 526.321890875 0 361 0 c 2
 76 0 l 1
 76 668 l 1
 345 668 l 2
 404.541201212 668 489.426493539 654.139836851 531.185714516 581.303986309 c 0
 544.833333333 557.5 552 530.666666667 552 502.398860798 c 0xf8
 552 458.470397495 534.692871139 399.943919501 482 355 c 1
 506.766151561 342.121601188 581 294.934347254 581 198.113179717 c 0xf4
EndSplineSet
EndChar

StartChar: C
Encoding: 67 67 17
Width: 656
GlyphClass: 2
Flags: W
HStem: -12 79<268.278 454.663> 499 21G<523.448 586.667> 601 79<267.343 454.324>
VStem: 50 96<204.467 462.38>
AnchorPoint: "Anchor-1" 348 0 basechar 0
AnchorPoint: "Anchor-0" 353 668 basechar 0
LayerCount: 2
Fore
SplineSet
618 139 m 1
 593.939692736 89.5427017355 523.747626597 -12 358.059370627 -12 c 0
 157.741920575 -12 50 136.423554376 50 333.595094754 c 0
 50 544.917776805 173.762331498 680 354.943352166 680 c 0
 411.51428721 680 549.804834527 666.830796457 614 529 c 1
 532 499 l 1
 514.89541166 533.986657968 467.573237492 601 362.733454875 601 c 0
 251.378882577 601 146 525.399413966 146 337.236746657 c 0
 146 265.459466097 161.334183911 156.511466286 248.467985248 99.0211231356 c 0
 280.833333333 77.6666666667 317.666666667 67 359.818442847 67 c 0
 408.366927726 67 492.074867823 81.1497356462 536 169 c 1
 618 139 l 1
EndSplineSet
EndChar

StartChar: D
Encoding: 68 68 18
Width: 673
GlyphClass: 2
Flags: W
HStem: 0 79<170 400.988> 589 79<170 394.943>
VStem: 76 94<79 589> 527 96<202.683 466.297>
AnchorPoint: "Anchor-1" 337 0 basechar 0
AnchorPoint: "Anchor-0" 327 668 basechar 0
LayerCount: 2
Fore
SplineSet
527 334.611110644 m 0
 527 518.463501693 447.031428806 589 256 589 c 2
 170 589 l 1
 170 79 l 1
 256 79 l 2
 441.355088684 79 527 144.345457585 527 334.611110644 c 0
623 334.991717351 m 0
 623 163.574320358 558.114798395 0 258 0 c 2
 76 0 l 1
 76 668 l 1
 258 668 l 2
 564.275286834 668 623 498.068644281 623 334.991717351 c 0
EndSplineSet
EndChar

StartChar: E
Encoding: 69 69 19
Width: 567
GlyphClass: 2
Flags: W
HStem: 0 81<170 529> 303 81<170 435> 587 81<170 529>
VStem: 76 94<81 303 384 587>
AnchorPoint: "Anchor-2" 506 0 basechar 0
AnchorPoint: "Anchor-1" 284 0 basechar 0
AnchorPoint: "Anchor-0" 304 668 basechar 0
LayerCount: 2
Fore
SplineSet
76 0 m 1
 76 668 l 1
 529 668 l 1
 529 587 l 1
 170 587 l 1
 170 384 l 1
 435 384 l 1
 435 303 l 1
 170 303 l 1
 170 81 l 1
 529 81 l 1
 529 0 l 1
 76 0 l 1
EndSplineSet
EndChar

StartChar: F
Encoding: 70 70 20
Width: 548
GlyphClass: 1
Flags: W
HStem: 0 21G<76 170> 303 81<170 510> 587 81<170 510>
VStem: 76 94<0 303 384 587>
AnchorPoint: "Anchor-0" 305 668 basechar 0
LayerCount: 2
Fore
SplineSet
76 0 m 1
 76 668 l 1
 510 668 l 1
 510 587 l 1
 170 587 l 1
 170 384 l 1
 510 384 l 1
 510 303 l 1
 170 303 l 1
 170 0 l 1
 76 0 l 1
EndSplineSet
EndChar

StartChar: G
Encoding: 71 71 21
Width: 710
GlyphClass: 2
Flags: W
HStem: -12 79<266.849 464.348> 0 21G<582.048 642> 264 81<358 553> 499 21G<523.448 587.333> 601 79<267.411 454.689>
VStem: 50 96<205.915 461.905> 553 89<152.378 264> 588 54<0 23.52>
AnchorPoint: "Anchor-1" 355 0 basechar 0
AnchorPoint: "Anchor-0" 359 668 basechar 0
LayerCount: 2
Fore
SplineSet
563 84 m 1x7d
 514.215224509 6.24926406179 425.005864823 -12 354.810450818 -12 c 0
 151.149747897 -12 50 141.618086973 50 333.105281829 c 0
 50 544.917776805 173.762331498 680 355.182258279 680 c 0
 413.318599438 680 549.253461818 666.128493922 615 529 c 1
 532 499 l 1
 514.89541166 533.986657968 467.573237492 601 362.733454875 601 c 0
 251.378882577 601 146 525.399413966 146 335.427223793 c 0
 146 156.392517512 239.593995133 67 361.603440012 67 c 0
 414.169605555 67 553 83.5930744868 553 242 c 2
 553 264 l 1xbe
 358 264 l 1
 358 345 l 1
 642 345 l 1
 642 0 l 1
 588 0 l 1
 563 84 l 1x7d
EndSplineSet
EndChar

StartChar: H
Encoding: 72 72 22
Width: 690
GlyphClass: 2
Flags: W
HStem: 0 21G<76 170 520 614> 303 81<170 520> 648 20G<76 170 520 614>
VStem: 76 94<0 303 384 668> 520 94<0 303 384 668>
AnchorPoint: "Anchor-1" 345 0 basechar 0
AnchorPoint: "Anchor-0" 345 668 basechar 0
LayerCount: 2
Fore
SplineSet
76 0 m 1
 76 668 l 1
 170 668 l 1
 170 384 l 1
 520 384 l 1
 520 668 l 1
 614 668 l 1
 614 0 l 1
 520 0 l 1
 520 303 l 1
 170 303 l 1
 170 0 l 1
 76 0 l 1
EndSplineSet
EndChar

StartChar: I
Encoding: 73 73 23
Width: 414
GlyphClass: 2
Flags: W
HStem: 0 74<66 160 254 348> 594 74<66 160 254 348>
VStem: 160 94<74 594>
AnchorPoint: "Anchor-2" 273 0 basechar 0
AnchorPoint: "Anchor-1" 207 0 basechar 0
AnchorPoint: "Anchor-0" 207 668 basechar 0
LayerCount: 2
Fore
SplineSet
66 0 m 1
 66 74 l 1
 160 74 l 1
 160 594 l 1
 66 594 l 1
 66 668 l 1
 348 668 l 1
 348 594 l 1
 254 594 l 1
 254 74 l 1
 348 74 l 1
 348 0 l 1
 66 0 l 1
EndSplineSet
EndChar

StartChar: J
Encoding: 74 74 24
Width: 510
GlyphClass: 1
Flags: W
HStem: -12 77<154.549 294.143> 648 20G<340 434>
VStem: 15 87<119.534 189> 340 94<115.369 668>
AnchorPoint: "Anchor-0" 388 668 basechar 0
LayerCount: 2
Fore
SplineSet
434 212 m 2
 434 140.20276399 411.846823504 -12 225.328886862 -12 c 0
 144.033211932 -12 23.6042732368 16.9145352649 15 189 c 1
 102 214 l 1
 100.666666667 163.333333333 112.333333333 125.833333333 139.811719856 98.7262763581 c 0
 161.666666667 77.1666666667 190.666666667 65 225.875305821 65 c 0
 277.240891103 65 340 90.8951012075 340 213 c 2
 340 668 l 1
 434 668 l 1
 434 212 l 2
EndSplineSet
EndChar

StartChar: K
Encoding: 75 75 25
Width: 627
GlyphClass: 2
Flags: W
HStem: 0 21G<76 170 487.5 617> 648 20G<76 170 453.083 588>
VStem: 76 94<0 210 332 668> 471 117<551 668> 502 115<0 115>
DStem2: 170 332 270 320 0.674116 0.738625<0 58.5481 151.983 451.087> 333 389 270 320 0.589652 -0.807657<18.5803 413.83>
AnchorPoint: "Anchor-1" 314 0 basechar 0
AnchorPoint: "Anchor-0" 314 668 basechar 0
LayerCount: 2
Fore
SplineSet
76 0 m 1xe8
 76 668 l 1
 170 668 l 1
 170 332 l 1
 471 668 l 1
 588 668 l 1xf0
 333 389 l 1
 617 0 l 1
 502 0 l 1
 270 320 l 1
 170 210 l 1
 170 0 l 1
 76 0 l 1xe8
EndSplineSet
EndChar

StartChar: L
Encoding: 76 76 26
Width: 539
GlyphClass: 2
Flags: W
HStem: 0 81<170 529> 648 20G<76 170>
VStem: 76 94<81 668>
AnchorPoint: "Anchor-1" 305 0 basechar 0
AnchorPoint: "Anchor-0" 135 668 basechar 0
LayerCount: 2
Fore
SplineSet
76 0 m 1
 76 668 l 1
 170 668 l 1
 170 81 l 1
 529 81 l 1
 529 0 l 1
 76 0 l 1
EndSplineSet
EndChar

StartChar: M
Encoding: 77 77 27
Width: 820
GlyphClass: 1
Flags: W
HStem: 0 122<303 518> 648 20G<76 238.52 581.48 744>
VStem: 76 94<0 570> 650 94<0 570>
DStem2: 410 122 457 0 0.320711 0.947177<0 501.306>
AnchorPoint: "Anchor-0" 410 668 basechar 0
LayerCount: 2
Fore
SplineSet
76 0 m 1
 76 668 l 1
 232 668 l 1
 410 122 l 1
 588 668 l 1
 744 668 l 1
 744 0 l 1
 650 0 l 1
 650 570 l 1
 457 0 l 1
 364 0 l 1
 170 570 l 1
 170 0 l 1
 76 0 l 1
EndSplineSet
EndChar

StartChar: N
Encoding: 78 78 28
Width: 689
GlyphClass: 2
Flags: W
HStem: 0 21G<76 170 464.317 613> 648 20G<76 225.704 519 613>
VStem: 76 94<0 571> 519 94<100 668>
DStem2: 215 668 170 571 0.471149 -0.882053<64.3575 644.236>
AnchorPoint: "Anchor-1" 311 0 basechar 0
AnchorPoint: "Anchor-0" 362 668 basechar 0
LayerCount: 2
Fore
SplineSet
76 0 m 1
 76 668 l 1
 215 668 l 1
 519 100 l 1
 519 668 l 1
 613 668 l 1
 613 0 l 1
 475 0 l 1
 170 571 l 1
 170 0 l 1
 76 0 l 1
EndSplineSet
EndChar

StartChar: O
Encoding: 79 79 29
Width: 727
GlyphClass: 2
Flags: W
HStem: -12 79<274.701 453.943> 601 79<270.526 454.138>
VStem: 50 96<208.608 463.544> 581 96<206.636 462.371>
AnchorPoint: "Anchor-2" 654 10 basechar 0
AnchorPoint: "Anchor-1" 364 0 basechar 0
AnchorPoint: "Anchor-0" 364 668 basechar 0
LayerCount: 2
Fore
SplineSet
146 334.185101005 m 0
 146 138.011231457 263.367322554 67 364.038207832 67 c 0
 466.489750477 67 581 140.545528452 581 334.180882446 c 0
 581 523.884513678 471.092749991 601 364.04037828 601 c 0
 258.855174203 601 146 526.551093583 146 334.185101005 c 0
677 334.969089057 m 0
 677 146.020334031 568.296338267 -12 364.022618535 -12 c 0
 161.787908576 -12 50 142.881438625 50 334.93776361 c 0
 50 531.07473579 166.588720394 680 364.020313915 680 c 0
 563.392438761 680 677 528.132811658 677 334.969089057 c 0
EndSplineSet
Substitution2: "Single Substitution lookup 12 subtable" ordmasculine
Substitution2: "'aalt' Access All Alternates lookup 0 subtable" ordmasculine
EndChar

StartChar: P
Encoding: 80 80 30
Width: 601
GlyphClass: 1
Flags: W
HStem: 1 21G<76 170> 266 81<170 420.223> 589 79<170 417>
VStem: 76 94<1 266 347 589> 467 96<390.926 544.062>
AnchorPoint: "Anchor-0" 294 668 basechar 0
LayerCount: 2
Fore
SplineSet
467 467.284015464 m 0
 467 550.390158512 428.281243965 589 293 589 c 2
 170 589 l 1
 170 347 l 1
 293 347 l 2
 418.331228193 347 467 374.109397092 467 467.284015464 c 0
563 467.534419659 m 0
 563 338.735191889 502.566308556 266 285 266 c 2
 170 266 l 1
 170 1 l 1
 76 1 l 1
 76 668 l 1
 285 668 l 2
 513.469874564 668 563 584.137067247 563 467.534419659 c 0
EndSplineSet
EndChar

StartChar: Q
Encoding: 81 81 31
Width: 753
GlyphClass: 1
Flags: W
HStem: -12 79<275.168 458.589> 601 79<270.526 454.138>
VStem: 50 96<208.608 463.544> 581 96<207.958 462.276>
DStem2: 393 362 329 294 0.729032 -0.68448<0 227.798 331.783 493.692>
LayerCount: 2
Fore
SplineSet
146 334.185101005 m 0
 146 138.011231457 263.367322554 67 367.084353872 67 c 0
 421.666666667 67 470 86.6666666667 508 126 c 1
 329 294 l 1
 393 362 l 1
 559 206 l 1
 571.141039056 235.800732227 581 277.647926334 581 334.39943576 c 0
 581 523.884513678 471.092749991 601 364.04037828 601 c 0
 258.855174203 601 146 526.551093583 146 334.185101005 c 0
677 334.352782117 m 0
 677 277.276384961 667.143963478 205.213152288 630 139 c 1
 753 24 l 1
 689 -44 l 1
 572 65 l 1
 534.259370428 29.1947873289 468.004915137 -12 363.814149624 -12 c 0
 161.787908576 -12 50 142.881438625 50 334.93776361 c 0
 50 531.07473579 166.588720394 680 364.020313915 680 c 0
 563.392438761 680 677 528.132811658 677 334.352782117 c 0
EndSplineSet
EndChar

StartChar: R
Encoding: 82 82 32
Width: 618
GlyphClass: 2
Flags: W
HStem: 0 21G<76 170 458.552 588> 281 79<170 270> 589 79<170 422.152>
VStem: 76 94<0 281 360 589> 470 96<402.964 547.556> 473 115<0 115>
DStem2: 381 288 270 281 0.583636 -0.812015<0 287.555>
AnchorPoint: "Anchor-1" 309 0 basechar 0
AnchorPoint: "Anchor-0" 303 668 basechar 0
LayerCount: 2
Fore
SplineSet
470 475.790742356 m 0xf8
 470 549.273354304 436.824623142 589 295 589 c 2
 170 589 l 1
 170 360 l 1
 295 360 l 2
 423.909614907 360 470 389.177993762 470 475.790742356 c 0xf8
566 480.46562184 m 0
 566 334.793870611 477.11241773 301.554315321 381 288 c 1
 588 0 l 1
 473 0 l 1xf4
 270 281 l 1
 170 281 l 1
 170 0 l 1
 76 0 l 1
 76 668 l 1
 288 668 l 2
 505.922865432 668 566 600.224963418 566 480.46562184 c 0
EndSplineSet
EndChar

StartChar: S
Encoding: 83 83 33
Width: 596
GlyphClass: 2
Flags: W
HStem: -12 79<203.513 395.794> 601 79<197.042 381.437>
VStem: 46 97<441.18 553.506> 457 99<121.163 241.925>
DStem2: 286 392 238 313 0.975916 -0.218146<-128.069 171.438>
AnchorPoint: "Anchor-1" 298 0 basechar 0
AnchorPoint: "Anchor-0" 298 668 basechar 0
LayerCount: 2
Fore
SplineSet
556 194.335448991 m 0
 556 51.8681220019 417.455411989 -12 301.12828667 -12 c 0
 259.390485572 -12 89.9259759432 -3.77792782951 40 146 c 1
 127 172 l 1
 156.400934829 83.7971955133 251.922142713 67 300.612446135 67 c 0
 362.563223567 67 457 94.1922620574 457 184.841769934 c 0
 457 238.926455316 423.383006657 268.225984777 323 294 c 2
 238 313 l 1
 98.3284048489 349.4360683 46 404.572691578 46 489.079793002 c 0
 46 627.566747495 186.529924843 680 287.711615257 680 c 0
 326.366049288 680 465.690740636 672.347531078 523 555 c 1
 437 530 l 1
 404.348874263 590.146810569 322.709937021 601 286.169185618 601 c 0
 232.176561701 601 143 577.30420395 143 495.752659057 c 0
 143 440.030176557 184.633915015 415.392173458 286 392 c 2
 359 376 l 2
 518.25209199 338.528919532 556 268.700167315 556 194.335448991 c 0
EndSplineSet
EndChar

StartChar: T
Encoding: 84 84 34
Width: 558
GlyphClass: 2
Flags: W
HStem: 0 21G<232 326> 587 81<10 232 326 548>
VStem: 232 94<0 587>
AnchorPoint: "Anchor-1" 279 0 basechar 0
AnchorPoint: "Anchor-0" 279 668 basechar 0
LayerCount: 2
Fore
SplineSet
232 0 m 1
 232 587 l 1
 10 587 l 1
 10 668 l 1
 548 668 l 1
 548 587 l 1
 326 587 l 1
 326 0 l 1
 232 0 l 1
EndSplineSet
EndChar

StartChar: U
Encoding: 85 85 35
Width: 690
GlyphClass: 2
Flags: W
HStem: -12 81<247.139 443.366> 648 20G<76 170 520 614>
VStem: 76 94<154.063 668> 520 94<153.793 668>
AnchorPoint: "Anchor-2" 427 0 basechar 0
AnchorPoint: "Anchor-1" 345 0 basechar 0
AnchorPoint: "Anchor-0" 345 668 basechar 0
LayerCount: 2
Fore
SplineSet
614 279 m 2
 614 35.9134982158 489.466610271 -12 345.829147602 -12 c 0
 201.150022484 -12 76 36.6109578353 76 279 c 2
 76 668 l 1
 170 668 l 1
 170 272 l 2
 170 88.662500421 268.785062826 69 344.988839602 69 c 0
 421.253718773 69 520 88.6940449872 520 272 c 2
 520 668 l 1
 614 668 l 1
 614 279 l 2
EndSplineSet
EndChar

StartChar: V
Encoding: 86 86 36
Width: 589
GlyphClass: 1
Flags: W
HStem: 0 21G<232.144 355.886> 648 20G<10 119.487 469.477 579>
VStem: 10 103<565 668> 476 103<565 668>
DStem2: 113 668 10 668 0.324288 -0.945958<0 586.541> 294 110 349 0 0.325554 0.945523<0 586.853>
LayerCount: 2
Fore
SplineSet
239 0 m 1
 10 668 l 1
 113 668 l 1
 294 110 l 1
 476 668 l 1
 579 668 l 1
 349 0 l 1
 239 0 l 1
EndSplineSet
EndChar

StartChar: W
Encoding: 87 87 37
Width: 840
GlyphClass: 1
Flags: W
HStem: 0 21G<172.97 295.674 544.326 668> 552 116<307 533>
VStem: 10 103<565 668> 727 103<565 668>
DStem2: 113 668 10 668 0.243902 -0.9698<0 567.037> 243 116 291 0 0.227564 0.973763<0 464.84> 597 116 663 0 0.242536 0.970143<0 567.048>
AnchorPoint: "Anchor-0" 420 668 basechar 0
LayerCount: 2
Fore
SplineSet
178 0 m 1
 10 668 l 1
 113 668 l 1
 243 116 l 1
 365 668 l 1
 475 668 l 1
 597 116 l 1
 727 668 l 1
 830 668 l 1
 663 0 l 1
 549 0 l 1
 420 552 l 1
 291 0 l 1
 178 0 l 1
EndSplineSet
EndChar

StartChar: X
Encoding: 88 88 38
Width: 623
GlyphClass: 1
Flags: W
HStem: 0 21G<10 137.189 485.736 613> 648 20G<24 150.286 471.714 599>
VStem: 10 113<0 113> 24 112<556 668> 486 113<555 668> 500 113<0 113>
DStem2: 10 0 123 0 0.580315 0.814392<65.5756 390.489 519.163 820.244> 136 668 24 668 0.581123 -0.813816<0 301.081 429.664 755.158>
LayerCount: 2
Fore
SplineSet
10 0 m 1xe4
 255 344 l 1
 24 668 l 1
 136 668 l 1
 311 423 l 1
 486 668 l 1
 599 668 l 1xd8
 368 344 l 1
 613 0 l 1
 500 0 l 1
 311 265 l 1
 123 0 l 1
 10 0 l 1xe4
EndSplineSet
EndChar

StartChar: Y
Encoding: 89 89 39
Width: 595
GlyphClass: 2
Flags: W
HStem: 0 21G<251 345> 648 20G<10 124.455 470.607 585>
VStem: 251 94<0 259>
DStem2: 113 668 10 668 0.507664 -0.861555<0 372.2> 298 345 345 259 0.506098 0.862476<0 371.702>
AnchorPoint: "Anchor-1" 298 0 basechar 0
AnchorPoint: "Anchor-0" 298 668 basechar 0
LayerCount: 2
Fore
SplineSet
251 0 m 1
 251 259 l 1
 10 668 l 1
 113 668 l 1
 298 345 l 1
 482 668 l 1
 585 668 l 1
 345 259 l 1
 345 0 l 1
 251 0 l 1
EndSplineSet
EndChar

StartChar: Z
Encoding: 90 90 40
Width: 607
GlyphClass: 2
Flags: W
HStem: 0 81<156 563> 587 81<59 438>
DStem2: 44 81 156 81 0.614372 0.789016<68.8097 641.305>
AnchorPoint: "Anchor-1" 304 0 basechar 0
AnchorPoint: "Anchor-0" 304 668 basechar 0
LayerCount: 2
Fore
SplineSet
44 0 m 1
 44 81 l 1
 438 587 l 1
 59 587 l 1
 59 668 l 1
 548 668 l 1
 548 587 l 1
 156 81 l 1
 563 81 l 1
 563 0 l 1
 44 0 l 1
EndSplineSet
EndChar

StartChar: a
Encoding: 97 97 41
Width: 526
GlyphClass: 2
Flags: W
HStem: -12 67<157.809 315.121> 0 21G<392.118 475> 239 67<242.192 373> 437 67<186.961 335.035>
VStem: 38 93<81.9329 179.839> 373 85<304.608 398.802> 380 78<119.881 239>
AnchorPoint: "Anchor-2" 475 0 basechar 0
AnchorPoint: "Anchor-1" 263 0 basechar 0
AnchorPoint: "Anchor-0" 263 496 basechar 0
LayerCount: 2
Fore
SplineSet
131 135.120255017 m 0xba
 131 119.696805667 135.69368126 55 230.576550465 55 c 0
 281.335721632 55 380 73.515534955 380 208 c 2
 380 239 l 1
 193.11728503 219.328135266 131 191.229050736 131 135.120255017 c 0xba
378 68 m 1
 347.602660332 16.8772014676 293.173948953 -12 218.019621631 -12 c 0
 123.897265513 -12 38 33.2931681011 38 133.532467972 c 0
 38 221.394590318 103.99433675 276.702353507 373 306 c 1xbc
 375.513038172 385.160702406 345.066707614 437 263.625483287 437 c 0
 231.784054367 437 166.350177006 429.075796529 151 360 c 1
 70 384 l 1
 99.3388074617 467.615601266 179.872322658 504 273.775062783 504 c 0
 393.906473657 504 458 444.451362787 458 303 c 2
 458 187 l 2
 458 112.700484069 464.047973605 54.7601319767 475 0 c 1
 398 0 l 1x7a
 378 68 l 1
EndSplineSet
Substitution2: "Single Substitution lookup 12 subtable" ordfeminine
Substitution2: "'aalt' Access All Alternates lookup 0 subtable" ordfeminine
EndChar

StartChar: b
Encoding: 98 98 42
Width: 566
GlyphClass: 1
Flags: W
HStem: -12 72<220.7 364.83> 0 21G<70 137.867> 432 72<220.303 368.335> 648 20G<70 154>
VStem: 70 84<132.009 361.849 418 668> 70 62<0 23.8636> 434 94<136.398 355.115>
AnchorPoint: "Anchor-0" 315 496 basechar 0
LayerCount: 2
Fore
SplineSet
298.350430591 432 m 0xb2
 260.45843473 432 152 419.021850267 152 246.632491238 c 0
 152 187.333333333 164.833333333 141.666666667 190.995893194 108.368863208 c 0
 216.166666667 76.3333333333 250.333333333 60 291.984764028 60 c 0
 370.158893181 60 434 117.536187618 434 240.612181292 c 0
 434 288.926525913 424.162020988 432 298.350430591 432 c 0xb2
528 246.000937239 m 0
 528 66.6309665358 415.160497487 -12 309.751727554 -12 c 0
 261.761460263 -12 194.653387873 4.29845587351 154 75 c 1xba
 132 0 l 1
 70 0 l 1x76
 70 668 l 1
 154 668 l 1
 154 418 l 1x7a
 177.506201281 457.858341303 224.303455473 504 307.088707002 504 c 0
 415.15263166 504 528 425.377159603 528 246.000937239 c 0
EndSplineSet
EndChar

StartChar: c
Encoding: 99 99 43
Width: 500
GlyphClass: 2
Flags: W
HStem: -12 74<203.404 348.126> 430 74<202.5 347.715>
VStem: 38 91<142.73 351.911>
AnchorPoint: "Anchor-1" 270 0 basechar 0
AnchorPoint: "Anchor-0" 275 496 basechar 0
LayerCount: 2
Fore
SplineSet
467 99 m 1
 458.804122866 84.9499249129 400.437035466 -12 266.95809467 -12 c 0
 125.041005766 -12 38 97.5951566423 38 242.935402437 c 0
 38 389.060617415 125.983745529 504 276.196950079 504 c 0
 322.666666667 504 361 493 396.550196869 468.559239653 c 0
 425 449 449 422.666666667 465 392 c 1
 388 364 l 1
 380.973923014 377.173894349 348.058752329 430 277.507878144 430 c 0
 230.453423284 430 129 406.501221398 129 249.172713539 c 0
 129 109.055006662 209.470722507 62 272.116059594 62 c 0
 293.061727244 62 355.863071772 67.2603756005 390 127 c 1
 467 99 l 1
EndSplineSet
EndChar

StartChar: d
Encoding: 100 100 44
Width: 564
GlyphClass: 2
Flags: W
HStem: -12 72<199.991 346.18> 0 21G<428.133 513> 432 72<202.052 346.115> 648 20G<412 496>
VStem: 38 94<138.17 357.618> 412 84<132.943 358.325 418 668>
AnchorPoint: "Anchor-1" 282 0 basechar 0
AnchorPoint: "Anchor-0" 251 496 basechar 0
LayerCount: 2
Fore
SplineSet
278.350430591 432 m 0xbc
 240.45843473 432 132 419.021850267 132 246.632491238 c 0
 132 187.333333333 144.833333333 141.666666667 170.995893194 108.368863208 c 0
 196.166666667 76.3333333333 230.333333333 60 271.984764028 60 c 0
 350.158893181 60 414 117.536187618 414 240.612181292 c 0
 414 288.926525913 404.162020988 432 278.350430591 432 c 0xbc
412 75 m 1
 389.427117512 33.9583954758 343.498077788 -12 260.858173084 -12 c 0xbc
 156.004300823 -12 38 61.9867907526 38 246.00136926 c 0
 38 430.025511425 156.016567047 504 256.94353799 504 c 0
 302.128420227 504 371.851138119 489.172982425 412 418 c 1
 412 668 l 1
 496 668 l 1
 496 187 l 2
 496 99.4549273338 502.994977261 50.0251136938 513 0 c 1
 434 0 l 1x7c
 412 75 l 1
EndSplineSet
EndChar

StartChar: e
Encoding: 101 101 45
Width: 539
GlyphClass: 2
Flags: W
HStem: -12 74<203.476 367.232> 225 67<129 421> 432 72<196.523 355.237>
VStem: 38 90<141.156 225 292 358.12>
AnchorPoint: "Anchor-2" 364 0 basechar 0
AnchorPoint: "Anchor-1" 270 0 basechar 0
AnchorPoint: "Anchor-0" 281 496 basechar 0
LayerCount: 2
Fore
SplineSet
421 292 m 1
 421 353.011836979 374.401526166 432 277.843054831 432 c 0
 238.660289959 432 139.159453737 418.993171716 129 292 c 1
 421 292 l 1
478 87 m 1
 457.387997965 54.1734782412 400.959897361 -12 280.356621798 -12 c 0
 112.137573562 -12 38 116.740769047 38 249.347234272 c 0
 38 412.863138748 150.727265643 504 277.988318059 504 c 0
 429.531923045 504 521.303060913 374.765557095 510 225 c 1
 128 225 l 1
 133.11348087 66.4820930247 265.985368582 62 287.983473178 62 c 0
 321.415826958 62 367.136004475 72.3524763798 397 111 c 1
 478 87 l 1
EndSplineSet
EndChar

StartChar: f
Encoding: 102 102 46
Width: 311
GlyphClass: 1
Flags: W
HStem: 0 21G<99 183> 429 67<15 99 183 286> 635 71<191.361 286>
VStem: 99 84<0 429 496 628.957>
AnchorPoint: "Anchor-0" 90 668 basechar 0
LayerCount: 2
Fore
SplineSet
234 635 m 2
 193.904614043 635 183 623.302896118 183 571 c 2
 183 496 l 1
 286 496 l 1
 286 429 l 1
 183 429 l 1
 183 0 l 1
 99 0 l 1
 99 429 l 1
 15 429 l 1
 15 496 l 1
 99 496 l 1
 99 570 l 2
 99 675.558524253 124.516178424 706 232 706 c 2
 286 706 l 1
 286 635 l 1
 234 635 l 2
EndSplineSet
EndChar

StartChar: g
Encoding: 103 103 47
Width: 560
GlyphClass: 2
Flags: W
HStem: -192 74<197.524 363.477> 9 70<196.645 343.887> 432 72<197.445 273.01> 476 20G<423.103 490>
VStem: 38 91<154.328 357.709> 406 84<-71.4027 94 144.838 369.165> 429 61<472.261 496>
AnchorPoint: "Anchor-1" 280 -251 basechar 0
AnchorPoint: "Anchor-0" 268 496 basechar 0
LayerCount: 2
Fore
SplineSet
129 256.042890006 m 0xe8
 129 122.11908048 205.223872534 79 268.531842043 79 c 0
 304.283851376 79 409 92.7516126848 409 250.980088362 c 0
 409 305.81005292 396.42580177 432 275.565796185 432 c 0
 207.420412118 432 129 391.88263264 129 256.042890006 c 0xe8
490 47 m 2xdc
 490 -161.676533587 382.618103526 -192 287.450940974 -192 c 0
 239.931229486 -192 115.383246841 -184.439470806 81 -76 c 1
 165 -53 l 1
 174.333333333 -79 189.666666667 -96.3333333333 216.087999445 -107.066999774 c 0
 232.333333333 -113.666666667 253.333333333 -118 283.156622389 -118 c 0
 344.87736699 -118 406 -99.4401981427 406 28 c 2
 406 94 l 1
 394.163073754 73.9286902781 355.871794872 9 256.372647413 9 c 0
 150.018929541 9 38 83.1828093206 38 256.642901753 c 0
 38 434.898444094 156.2982595 504 273.009540847 504 c 1
 273.009540847 504 355.282051282 504 406 418 c 1xec
 429 496 l 1
 490 496 l 1xda
 490 47 l 2xdc
EndSplineSet
EndChar

StartChar: h
Encoding: 104 104 48
Width: 546
GlyphClass: 2
Flags: W
HStem: 0 21G<70 154 394 478> 432 72<289.353 358.723> 648 20G<70 154>
VStem: 70 84<0 370.94 421 668> 394 84<0 394.608>
AnchorPoint: "Anchor-1" 273 0 basechar 0
AnchorPoint: "Anchor-0" 114 668 basechar 0
LayerCount: 2
Fore
SplineSet
291.104349006 432 m 0
 241.056462282 432 154 413.735530811 154 269 c 2
 154 0 l 1
 70 0 l 1
 70 668 l 1
 154 668 l 1
 154 421 l 1
 203.8 504 289.353145917 504 289.353145917 504 c 1
 374 504 416.333333333 486.5 443.501535132 447.950524475 c 0
 465.666666667 416.5 478 370.666666667 478 314 c 2
 478 0 l 1
 394 0 l 1
 394 289 l 2
 394 399.751106175 357.607102571 432 291.104349006 432 c 0
EndSplineSet
EndChar

StartChar: i
Encoding: 105 105 49
Width: 278
GlyphClass: 1
Flags: W
HStem: 0 21G<114 198> 429 67<45 114> 590 125<109.774 203.612>
VStem: 94 125<606.058 699.569> 114 84<0 429>
AnchorPoint: "Anchor-2" 198 0 basechar 0
LayerCount: 2
Fore
SplineSet
114 0 m 1xe8
 114 429 l 1
 45 429 l 1
 45 496 l 1
 198 496 l 1
 198 0 l 1
 114 0 l 1xe8
219 653.07726881 m 0xf0
 219 617.983328987 191.013856556 590 156.786691845 590 c 0
 122.976974901 590 94 617.304900505 94 653.070971018 c 0
 94 689.150762282 123.487545252 715 156.783373467 715 c 0
 190.501403232 715 219 688.491053082 219 653.07726881 c 0xf0
EndSplineSet
Substitution2: "Single Substitution lookup 4 subtable" dotlessi
Substitution2: "Single Substitution lookup 3 subtable" dotlessi
EndChar

StartChar: j
Encoding: 106 106 50
Width: 254
GlyphClass: 1
Flags: W
HStem: -161 74<-58 73.048> 476 20G<90 174> 590 125<84.4685 179.141>
VStem: 69 125<605.469 700.141> 90 84<-68.8001 496>
LayerCount: 2
Fore
SplineSet
174 7 m 2xe8
 174 -120.233499963 133.93611926 -161 -3 -161 c 1
 -58 -159 l 1
 -58 -86 l 1
 -11 -87 l 2
 74.9169662162 -87 90 -68.6974718916 90 12 c 2
 90 496 l 1
 174 496 l 1
 174 7 l 2xe8
194 653.082237264 m 0xf0
 194 618.498596768 167.491053082 590 132.07726881 590 c 0
 96.9833289873 590 69 617.986143444 69 653.077619683 c 0
 69 688.490062194 97.4975724217 715 132.081911646 715 c 0
 166.990251703 715 194 687.991022689 194 653.082237264 c 0xf0
EndSplineSet
EndChar

StartChar: k
Encoding: 107 107 51
Width: 490
GlyphClass: 2
Flags: W
HStem: 0 21G<70 154 362.59 480> 476 20G<336.063 455> 648 20G<70 154>
VStem: 70 84<0 166 273 668> 354 101<395 496> 377 103<0 103>
DStem2: 154 273 212 229 0.673898 0.738825<0 6.57778 90.1232 299.537> 268 291 212 229 0.588832 -0.808255<17.1372 299.385>
AnchorPoint: "Anchor-1" 251 0 basechar 0
AnchorPoint: "Anchor-0" 304 668 basechar 0
LayerCount: 2
Fore
SplineSet
70 0 m 1xf4
 70 668 l 1
 154 668 l 1
 154 273 l 1
 354 496 l 1
 455 496 l 1xf8
 268 291 l 1
 480 0 l 1
 377 0 l 1
 212 229 l 1
 154 166 l 1
 154 0 l 1
 70 0 l 1xf4
EndSplineSet
EndChar

StartChar: l
Encoding: 108 108 52
Width: 239
GlyphClass: 2
Flags: W
HStem: 0 74<158.615 224> 647 20G<70 154>
VStem: 70 84<78.2637 667>
AnchorPoint: "Anchor-1" 145 0 basechar 0
AnchorPoint: "Anchor-0" 117 668 basechar 0
LayerCount: 2
Fore
SplineSet
154 138 m 2
 154 83.3648639888 163.055996296 74 205 74 c 2
 224 74 l 1
 224 0 l 1
 187 0 l 2
 92.7485609661 0 70 22.175625653 70 124 c 2
 70 667 l 1
 154 667 l 1
 154 138 l 2
EndSplineSet
EndChar

StartChar: m
Encoding: 109 109 53
Width: 841
GlyphClass: 2
Flags: W
HStem: 0 21G<70 154 380 464 689 773> 432 72<216.638 344.288 517.851 652.141> 476 20G<70 137.867>
VStem: 70 84<0 372.743> 70 62<472.136 496> 380 84<0 371.51> 689 84<0 392.53>
AnchorPoint: "Anchor-1" 421 0 basechar 0
AnchorPoint: "Anchor-0" 433 496 basechar 0
LayerCount: 2
Fore
SplineSet
283.246223644 432 m 0xd6
 224.575523084 432 154 402.302990756 154 269 c 2
 154 0 l 1
 70 0 l 1xd6
 70 496 l 1
 132 496 l 1xae
 154 421 l 1
 177.322391335 459.870652226 221.702604854 504 306.031780873 504 c 0
 364.845266358 504 420.425264362 482.535260073 446 417 c 1
 458.862930329 436.723159838 502.869312376 504 611.76025287 504 c 0
 740.393372964 504 773 410.116840738 773 314 c 2
 773 0 l 1
 689 0 l 1
 689 289 l 2
 689 415.037955712 636.587073557 432 592.150521215 432 c 0
 532.567018987 432 464 401.503532702 464 269 c 2
 464 0 l 1
 380 0 l 1
 380 289 l 2
 380 415.037955712 327.587073557 432 283.246223644 432 c 0xd6
EndSplineSet
EndChar

StartChar: n
Encoding: 110 110 54
Width: 546
GlyphClass: 2
Flags: W
HStem: 0 21G<70 154 394 478> 432 72<289.353 358.723> 476 20G<70 137.867>
VStem: 70 84<0 370.94> 70 62<472.136 496> 394 84<0 394.608>
AnchorPoint: "Anchor-1" 257 0 basechar 0
AnchorPoint: "Anchor-0" 288 496 basechar 0
LayerCount: 2
Fore
SplineSet
291.104349006 432 m 0xd4
 241.056462282 432 154 413.735530811 154 269 c 2
 154 0 l 1
 70 0 l 1xd4
 70 496 l 1
 132 496 l 1xac
 154 421 l 1
 203.8 504 289.353145917 504 289.353145917 504 c 1
 374 504 416.333333333 486.5 443.501535132 447.950524475 c 0
 465.666666667 416.5 478 370.666666667 478 314 c 2
 478 0 l 1
 394 0 l 1
 394 289 l 2
 394 399.751106175 357.607102571 432 291.104349006 432 c 0xd4
EndSplineSet
EndChar

StartChar: o
Encoding: 111 111 55
Width: 552
GlyphClass: 2
Flags: W
HStem: -12 74<204.499 349.225> 430 74<204.501 349.221>
VStem: 38 90<145.221 346.781> 424 90<142.873 349.13>
AnchorPoint: "Anchor-2" 497 10 basechar 0
AnchorPoint: "Anchor-1" 276 0 basechar 0
AnchorPoint: "Anchor-0" 276 496 basechar 0
LayerCount: 2
Fore
SplineSet
128 246.000063858 m 0
 128 84.7158934535 240.469946835 62 277.754467892 62 c 0
 319.965348508 62 424 91.1153161939 424 245.999691619 c 0
 424 400.879530341 319.971442957 430 277.755882847 430 c 0
 240.471613836 430 128 407.285429515 128 246.000063858 c 0
514 246.001595503 m 0
 514 50.4869205935 374.900540775 -12 275.788386011 -12 c 0
 170.56773492 -12 38 58.4266865804 38 246.000896682 c 0
 38 433.58220239 170.577764722 504 275.786387462 504 c 0
 374.878842837 504 514 441.531518853 514 246.001595503 c 0
EndSplineSet
Substitution2: "Single Substitution lookup 12 subtable" ordmasculine
Substitution2: "'aalt' Access All Alternates lookup 0 subtable" ordmasculine
EndChar

StartChar: p
Encoding: 112 112 56
Width: 566
GlyphClass: 1
Flags: W
HStem: -161 21G<70 154> -12 72<220.714 365.734> 432 72<220.303 368.335> 476 20G<70 136.897>
VStem: 70 84<-161 75 132.009 361.849> 70 61<472.261 496> 434 94<137.71 355.31>
AnchorPoint: "Anchor-0" 306 496 basechar 0
LayerCount: 2
Fore
SplineSet
298.350430591 432 m 0xe2
 260.45843473 432 152 419.021850267 152 246.632491238 c 0
 152 187.333333333 164.833333333 141.666666667 190.995893194 108.368863208 c 0
 216.166666667 76.3333333333 250.333333333 60 291.984764028 60 c 0
 370.158893181 60 434 117.536187618 434 240.612181292 c 0
 434 288.926525913 424.162020988 432 298.350430591 432 c 0xe2
310.067274965 -12 m 0
 261.761460263 -12 194.653387873 4.29845587351 154 75 c 1
 154 -161 l 1
 70 -161 l 1xea
 70 496 l 1
 131 496 l 1xd6
 154 418 l 1xda
 177.506201281 457.858341303 224.303455473 504 307.088707002 504 c 0
 415.15263166 504 528 425.377159603 528 246.870431018 c 0
 528 72.0484208875 419.763317442 -12 310.067274965 -12 c 0
EndSplineSet
EndChar

StartChar: q
Encoding: 113 113 57
Width: 576
GlyphClass: 1
Flags: W
HStem: -173 79<513.314 627.015> -12 72<200.733 345.353> 432 72<201.113 344.894> 476 20G<429.103 496>
VStem: 38 93<137.727 351.733> 412 84<-76.4959 75 132.943 358.325> 435 61<472.261 496>
LayerCount: 2
Fore
SplineSet
276.64108471 432 m 0xe8
 200.360799863 432 131 380.805801322 131 245.786729406 c 0
 131 187.333333333 144 141.666666667 170.586168673 108.263531668 c 0
 196 76.3333333333 230.333333333 60 271.984764028 60 c 0
 350.158893181 60 414 117.536187618 414 240.612181292 c 0
 414 288.926525913 404.162020988 432 276.64108471 432 c 0xe8
628 -159 m 1
 609.450094031 -164.857865043 577.484493538 -173 543.24008934 -173 c 0
 481.594071198 -173 412 -146.61426921 412 -27 c 2
 412 75 l 1
 390.793085582 36.4419737853 345.202576255 -12 259.749638029 -12 c 0
 148.580766723 -12 38 69.984966324 38 246.860021919 c 0
 38 427.370396342 153.173019306 504 255.493269817 504 c 0
 298.429510719 504 371.098841603 490.506598977 412 418 c 1xec
 435 496 l 1
 496 496 l 1xda
 496 -24 l 2xdc
 496 -38.847701589 500.476928758 -94 565.974191031 -94 c 0
 584.333333333 -94 604.666666667 -89.6666666667 628 -81 c 1
 628 -159 l 1
EndSplineSet
EndChar

StartChar: r
Encoding: 114 114 58
Width: 340
GlyphClass: 2
Flags: W
HStem: 0 21G<70 154> 417 87<240.58 335> 476 20G<70 136.87>
VStem: 70 84<0 335.67> 70 61<472.148 496>
AnchorPoint: "Anchor-1" 113 0 basechar 0
AnchorPoint: "Anchor-0" 199 496 basechar 0
LayerCount: 2
Fore
SplineSet
70 0 m 1xd0
 70 496 l 1
 131 496 l 1xa8
 158 404 l 1
 181.656655825 444.944212005 233.387350005 504 335 504 c 1
 335 417 l 1
 320.5 417 l 2
 304.639929538 417 224.294952472 414.11455309 184.92113098 352.996979431 c 0
 165.166666667 322.333333333 154 274.333333333 154 213 c 2
 154 0 l 1
 70 0 l 1xd0
EndSplineSet
EndChar

StartChar: s
Encoding: 115 115 59
Width: 471
GlyphClass: 2
Flags: W
HStem: -12 71<158.468 320.221> 434 71<155.28 305.447>
VStem: 41 85<324.27 405.07> 356 85<91.1317 182.181>
DStem2: 218 299 177 231 0.980031 -0.198847<-90.9043 146.849>
AnchorPoint: "Anchor-1" 230 0 basechar 0
AnchorPoint: "Anchor-0" 240 496 basechar 0
LayerCount: 2
Fore
SplineSet
441 147.69537734 m 0
 441 34.3603505718 331.178857013 -12 243.423641928 -12 c 0
 210.883181965 -12 78.6103090069 -5.62546931128 31 112 c 1
 112 142 l 1
 131.59906186 63.6037525594 218.786283497 59 241.728713778 59 c 0
 299.883057836 59 356 88.5799513342 356 138.43037042 c 0
 356 160.333333333 345.166666667 179.666666667 318.006608914 193.873466107 c 0
 301.833333333 202.333333333 276 211 246 217 c 2
 177 231 l 2
 73.5410422194 253.990879507 41 299.275550063 41 357.892545454 c 0
 41 466.272033213 152.244497725 505 230.927290621 505 c 0
 263.570282571 505 378.089330168 498.334310511 418 404 c 1
 339 375 l 1
 314.517636231 431.497762544 239.159090012 434 225.377021269 434 c 0
 194.339979609 434 126 421.310037595 126 350.484672147 c 0
 126 350.484671126 126 317.871794872 218 299 c 2
 283 286 l 2
 408.263360487 260.947327903 441 209.573655424 441 147.69537734 c 0
EndSplineSet
EndChar

StartChar: t
Encoding: 116 116 60
Width: 324
GlyphClass: 2
Flags: W
HStem: 0 74<192.576 284> 429 67<20 104 188 284>
VStem: 104 84<78.2637 429 496 621>
AnchorPoint: "Anchor-1" 183 0 basechar 0
AnchorPoint: "Anchor-0" 145 621 basechar 0
LayerCount: 2
Fore
SplineSet
188 138 m 2
 188 82.789075422 196.248817788 74 239 74 c 2
 284 74 l 1
 284 0 l 1
 221 0 l 2
 126.748560966 0 104 22.175625653 104 124 c 2
 104 429 l 1
 20 429 l 1
 20 496 l 1
 104 496 l 1
 104 621 l 1
 188 621 l 1
 188 496 l 1
 284 496 l 1
 284 429 l 1
 188 429 l 1
 188 138 l 2
EndSplineSet
EndChar

StartChar: u
Encoding: 117 117 61
Width: 536
GlyphClass: 2
Flags: W
HStem: -12 74<186.507 321.082> 0 21G<397.167 466> 477 20G<68 152 382 466>
VStem: 68 84<101.744 497> 382 84<122.618 497> 403 63<0 24>
AnchorPoint: "Anchor-2" 466 0 basechar 0
AnchorPoint: "Anchor-1" 268 0 basechar 0
AnchorPoint: "Anchor-0" 267 496 basechar 0
LayerCount: 2
Fore
SplineSet
253.072798878 62 m 0xb8
 321.526511697 62 382 102.740765574 382 224 c 2
 382 497 l 1
 466 497 l 1xb8
 466 0 l 1
 403 0 l 1x74
 382 72 l 1
 368 48 349 28 328.752720257 14.5018135044 c 0
 301 -4 268.333333333 -12 230.21011211 -12 c 0
 141.962294717 -12 68 30.8665719578 68 180 c 2
 68 497 l 1
 152 497 l 1
 152 200 l 2
 152 121.349815295 170.451484141 62 253.072798878 62 c 0xb8
EndSplineSet
EndChar

StartChar: v
Encoding: 118 118 62
Width: 441
GlyphClass: 1
Flags: W
HStem: 0 21G<169.863 271.137> 476 20G<0 97.7358 343.316 441>
DStem2: 91 496 0 496 0.336096 -0.941828<0 407.238> 221 110 264 0 0.336096 0.941828<0 406.902>
LayerCount: 2
Fore
SplineSet
177 0 m 1
 0 496 l 1
 91 496 l 1
 221 110 l 1
 350 496 l 1
 441 496 l 1
 264 0 l 1
 177 0 l 1
EndSplineSet
EndChar

StartChar: w
Encoding: 119 119 63
Width: 654
GlyphClass: 1
Flags: W
HStem: 0 21G<137.234 224.414 429.586 517.726> 399 97<235.5 419.5>
VStem: 0 90<406 496> 564 90<406 496>
DStem2: 90 496 0 496 0.277023 -0.960863<0 378.954> 185 129 219 0 0.261275 0.965265<0 297.722> 371 496 327 399 0.261275 -0.965265<82.1346 379.857> 469 129 512 0 0.275233 0.961378<0 378.973>
AnchorPoint: "Anchor-0" 327 496 basechar 0
LayerCount: 2
Fore
SplineSet
143 0 m 1
 0 496 l 1
 90 496 l 1
 185 129 l 1
 284 496 l 1
 371 496 l 1
 469 129 l 1
 564 496 l 1
 654 496 l 1
 512 0 l 1
 435 0 l 1
 327 399 l 1
 219 0 l 1
 143 0 l 1
EndSplineSet
EndChar

StartChar: x
Encoding: 120 120 64
Width: 461
GlyphClass: 1
Flags: W
HStem: 0 21G<0 113.162 347.73 461> 476 20G<9 122.186 338.698 452>
VStem: 0 99<0 99> 9 99<397 496> 353 99<397 496> 362 99<0 99>
DStem2: 0 0 99 0 0.579839 0.814731<57.4041 284.088 397.336 608.79> 108 496 9 496 0.579839 -0.814731<0 210.874 324.122 551.386>
LayerCount: 2
Fore
SplineSet
0 0 m 1xe4
 181 255 l 1
 9 496 l 1
 108 496 l 1
 230 324 l 1
 353 496 l 1
 452 496 l 1xd8
 280 255 l 1
 461 0 l 1
 362 0 l 1
 230 185 l 1
 99 0 l 1
 0 0 l 1xe4
EndSplineSet
EndChar

StartChar: y
Encoding: 121 121 65
Width: 429
GlyphClass: 2
Flags: W
HStem: -161 74<37 149.536> 475 20G<0 99.3874 330.613 429>
VStem: 0 93<402 495> 337 92<403 495>
DStem2: 179 -1 253 -22 0.322264 0.94665<-88.3316 0 119.52 520.456>
AnchorPoint: "Anchor-1" 215 0 basechar 0
AnchorPoint: "Anchor-0" 220 496 basechar 0
LayerCount: 2
Fore
SplineSet
37 -161 m 1
 37 -87 l 1
 71 -87 l 2
 140.193607875 -87 156.833831034 -77.5740382473 179 -1 c 1
 0 495 l 1
 93 495 l 1
 215 113 l 1
 337 495 l 1
 429 495 l 1
 253 -22 l 2
 215.046017016 -133.753394343 186.069531008 -161 80 -161 c 2
 37 -161 l 1
EndSplineSet
EndChar

StartChar: z
Encoding: 122 122 66
Width: 460
GlyphClass: 2
Flags: W
HStem: 0 74<135 430> 422 74<49 325>
DStem2: 40 74 135 74 0.633601 0.77366<60.1921 449.81>
AnchorPoint: "Anchor-1" 230 0 basechar 0
AnchorPoint: "Anchor-0" 237 496 basechar 0
LayerCount: 2
Fore
SplineSet
40 0 m 1
 40 74 l 1
 325 422 l 1
 49 422 l 1
 49 496 l 1
 420 496 l 1
 420 422 l 1
 135 74 l 1
 430 74 l 1
 430 0 l 1
 40 0 l 1
EndSplineSet
EndChar

StartChar: circumflex
Encoding: 258 710 67
Width: 429
GlyphClass: 1
Flags: W
HStem: 575 120
VStem: 53 323
DStem2: 53 575 147 575 0.742634 0.669697<69.8076 160.416> 376 575 214 636 0.742634 -0.669697<-161.158 -69.8076>
LayerCount: 2
Fore
SplineSet
53 575 m 1
 165 676 l 2
 178.333333333 688.666666667 195 695 214.666666667 695 c 0
 234.333333333 695 250.666666667 688.666666667 264 676 c 2
 376 575 l 1
 282 575 l 1
 214 636 l 1
 147 575 l 1
 53 575 l 1
EndSplineSet
EndChar

StartChar: caron
Encoding: 259 711 68
Width: 429
GlyphClass: 1
Flags: W
HStem: 569 120
VStem: 53 323
DStem2: 147 689 53 689 0.742634 -0.669697<0 90.608> 214 628 264 588 0.742634 0.669697<0 91.3507>
LayerCount: 2
Fore
SplineSet
214.666666667 569 m 0
 195 569 178.333333333 575.333333333 165 588 c 2
 53 689 l 1
 147 689 l 1
 214 628 l 1
 282 689 l 1
 376 689 l 1
 264 588 l 2
 250.666666667 575.333333333 234.333333333 569 214.666666667 569 c 0
EndSplineSet
EndChar

StartChar: breve
Encoding: 260 728 69
Width: 399
GlyphClass: 1
Flags: W
HStem: 569 67<144.126 255.356>
VStem: 53 69<657.692 689>
LayerCount: 2
Fore
SplineSet
347 689 m 1
 333.997624966 622.687887325 274.826608514 569 198.949325652 569 c 0
 120.324901402 569 66.4489434081 626.645807835 53 689 c 1
 122 689 l 1
 124.599825214 682.356002231 144.719483164 636 198.428541273 636 c 0
 239.512642801 636 266.749694323 663.124296942 278 689 c 1
 347 689 l 1
EndSplineSet
EndChar

StartChar: dotaccent
Encoding: 261 729 70
Width: 214
GlyphClass: 1
Flags: W
HStem: 590 108<64.2122 150.271>
VStem: 53 108<601.212 687.27>
LayerCount: 2
Fore
SplineSet
161 644.871309686 m 0
 161 615.626259945 139.165162993 590 107.867268127 590 c 0
 77.3554278934 590 53 614.355204236 53 644.867046265 c 0
 53 676.164149302 78.6251955888 698 107.871412748 698 c 0
 137.932356347 698 161 674.930619466 161 644.871309686 c 0
EndSplineSet
EndChar

StartChar: ring
Encoding: 262 730 71
Width: 253
GlyphClass: 1
Flags: W
HStem: 559 58<81.309 166.118> 719 58<82.0428 166.212>
VStem: 15 57<627.191 708.774> 176 57<627.034 708.966>
LayerCount: 2
Fore
SplineSet
72 668.000010327 m 0
 72 640.4599235 93.6593110606 617 123.999990466 617 c 0
 154.340633879 617 176 640.459867842 176 667.999989673 c 0
 176 695.5400765 154.340688939 719 124.000009534 719 c 0
 93.659366121 719 72 695.540132158 72 668.000010327 c 0
233 668.000177554 m 0
 233 612.332694097 191.267039234 559 126.24204069 559 c 0
 61.3324239956 559 15 612.143592507 15 668.932369379 c 0
 15 727.582247221 64.4190299158 777 126.634183418 777 c 0
 191.266202672 777 233 723.668218953 233 668.000177554 c 0
EndSplineSet
EndChar

StartChar: ogonek
Encoding: 263 731 72
Width: 263
GlyphClass: 1
Flags: W
HStem: -173 58<128.642 209.142> -20 20G<105.87 210>
VStem: 53 70<-109.953 -34.7881>
LayerCount: 2
Fore
SplineSet
170.97008758 -115 m 0
 183.407865254 -115 196.024580892 -112.590167643 210 -107 c 1
 210 -161 l 1
 187.333333333 -169 166.333333333 -173 146.276361042 -173 c 0
 73.2587973136 -173 53 -119.986812332 53 -88.8912814646 c 0
 53 -53.8401290573 78.7408160326 -13.198179884 133 0 c 1
 210 0 l 1
 185.026979498 -9.3036743048 123 -32.4268166628 123 -74.2691163071 c 0
 123 -83.8392770248 126.244800535 -115 170.97008758 -115 c 0
EndSplineSet
EndChar

StartChar: quoteleft
Encoding: 264 8216 73
Width: 235
GlyphClass: 1
Flags: W
HStem: 418 250<120 127.077>
VStem: 53 129<434.867 529.641>
DStem2: 58 507 128 546 0.359367 0.933196<61.5504 172.525>
LayerCount: 2
Fore
SplineSet
182 481.869729742 m 0
 182 444.475656365 151.811373797 418 117.576447532 418 c 0
 79.939353087 418 53 449.999273595 53 482.032361829 c 0
 53 490 54.6666666667 498.333333333 58 507 c 2
 120 668 l 1
 175 668 l 1
 128 546 l 1
 157.780478001 540.820786435 182 515.36348825 182 481.869729742 c 0
EndSplineSet
EndChar

StartChar: quoteright
Encoding: 265 8217 74
Width: 235
GlyphClass: 1
Flags: W
HStem: 429 251<108.098 115>
VStem: 53 129<568.219 663.055>
DStem2: 60 429 115 429 0.357433 0.933939<19.6588 131.674>
LayerCount: 2
Fore
SplineSet
117.823908085 680 m 0
 154.047627746 680 182 650.343912001 182 616.310398131 c 0
 182 608 180.333333333 599.666666667 177 591 c 2
 115 429 l 1
 60 429 l 1
 107 552 l 1
 78.0439689621 557.035831485 53 580.920951867 53 614.982326938 c 0
 53 652.047627746 82.6560879988 680 117.823908085 680 c 0
EndSplineSet
EndChar

StartChar: quotesinglbase
Encoding: 266 8218 75
Width: 235
GlyphClass: 1
Flags: W
HStem: -134 251<108.098 115>
VStem: 53 129<5.21875 100.055>
DStem2: 60 -134 115 -134 0.357433 0.933939<19.6588 131.674>
LayerCount: 2
Fore
SplineSet
117.823908085 117 m 0
 154.047627746 117 182 87.3439120012 182 53.3103981312 c 0
 182 45 180.333333333 36.6666666667 177 28 c 2
 115 -134 l 1
 60 -134 l 1
 107 -11 l 1
 78.0439689621 -5.96416851514 53 17.9209518665 53 51.9823269379 c 0
 53 89.0476277456 82.6560879988 117 117.823908085 117 c 0
EndSplineSet
EndChar

StartChar: quotedblleft
Encoding: 267 8220 76
Width: 398
GlyphClass: 1
Flags: W
HStem: 418 250<120 127.681 283 290.681>
VStem: 53 129<434.867 529.344> 216 129<434.867 529.344>
DStem2: 61 515 128 546 0.359796 0.933031<53.0303 163.982> 224 515 291 546 0.359796 0.933031<53.0303 163.982>
LayerCount: 2
Fore
SplineSet
345 481.869729742 m 0
 345 444.475656365 314.811373797 418 281.388456623 418 c 0
 248.636816116 418 216 443.422844842 216 480.904457192 c 0
 216 487.902371676 217.137649597 497.844123992 224 515 c 2
 283 668 l 1
 338 668 l 1
 291 546 l 1
 320.780478001 540.820786435 345 515.36348825 345 481.869729742 c 0
182 481.869729742 m 0
 182 444.475656365 151.811373797 418 118.388456623 418 c 0
 85.6368161159 418 53 443.422844842 53 480.904457192 c 0
 53 487.902371676 54.1376495968 497.844123992 61 515 c 2
 120 668 l 1
 175 668 l 1
 128 546 l 1
 157.780478001 540.820786435 182 515.36348825 182 481.869729742 c 0
EndSplineSet
EndChar

StartChar: quotedblright
Encoding: 268 8221 77
Width: 398
GlyphClass: 1
Flags: W
HStem: 429 251<-55.1807 -48.2789 107.794 115.721>
VStem: 53 129<568.219 663.055> 216 129<568.219 663.268>
DStem2: 60 429 115 429 0.357433 0.933939<19.6588 131.674> 223 429 279 429 0.352389 0.935854<19.7338 131.672>
LayerCount: 2
Fore
SplineSet
281.102814548 680 m 0
 318.524343635 680 345 649.811373797 345 616.38634612 c 0
 345 608 343.333333333 599.666666667 340 591 c 2
 279 429 l 1
 223 429 l 1
 270 552 l 1
 241.043968962 557.035831485 216 580.920951867 216 614.95311486 c 0
 216 651.352290193 244.648846492 680 281.102814548 680 c 0
117.823908085 680 m 0
 154.047627746 680 182 650.343912001 182 616.310398131 c 0
 182 608 180.333333333 599.666666667 177 591 c 2
 115 429 l 1
 60 429 l 1
 107 552 l 1
 78.0439689621 557.035831485 53 580.920951867 53 614.982326938 c 0
 53 652.047627746 82.6560879988 680 117.823908085 680 c 0
EndSplineSet
EndChar

StartChar: quotedblbase
Encoding: 269 8222 78
Width: 398
GlyphClass: 1
Flags: W
HStem: -134 251<-55.1807 -48.2789 107.794 115.721>
VStem: 53 129<5.21875 100.055> 216 129<5.21875 100.268>
DStem2: 60 -134 115 -134 0.357433 0.933939<19.6588 131.674> 223 -134 279 -134 0.352389 0.935854<19.7338 131.672>
LayerCount: 2
Fore
SplineSet
281.102814548 117 m 0
 318.524343635 117 345 86.8113737974 345 53.3863461196 c 0
 345 45 343.333333333 36.6666666667 340 28 c 2
 279 -134 l 1
 223 -134 l 1
 270 -11 l 1
 241.043968962 -5.96416851514 216 17.9209518665 216 51.9531148595 c 0
 216 88.3522901931 244.648846492 117 281.102814548 117 c 0
117.823908085 117 m 0
 154.047627746 117 182 87.3439120012 182 53.3103981312 c 0
 182 45 180.333333333 36.6666666667 177 28 c 2
 115 -134 l 1
 60 -134 l 1
 107 -11 l 1
 78.0439689621 -5.96416851514 53 17.9209518665 53 51.9823269379 c 0
 53 89.0476277456 82.6560879988 117 117.823908085 117 c 0
EndSplineSet
EndChar

StartChar: dagger
Encoding: 270 8224 79
Width: 541
GlyphClass: 1
Flags: W
HStem: 0 21G<230 311> 416 80<40 230 311 501> 648 20G<230 311>
VStem: 230 81<0 416 496 668>
LayerCount: 2
Fore
SplineSet
230 0 m 1
 230 416 l 1
 40 416 l 1
 40 496 l 1
 230 496 l 1
 230 668 l 1
 311 668 l 1
 311 496 l 1
 501 496 l 1
 501 416 l 1
 311 416 l 1
 311 0 l 1
 230 0 l 1
EndSplineSet
EndChar

StartChar: daggerdbl
Encoding: 271 8225 80
Width: 541
GlyphClass: 1
Flags: W
HStem: 0 21G<230 311> 172 79<40 230 311 501> 416 80<40 230 311 501> 648 20G<230 311>
VStem: 230 81<0 172 251 416 496 668>
LayerCount: 2
Fore
SplineSet
230 0 m 1
 230 172 l 1
 40 172 l 1
 40 251 l 1
 230 251 l 1
 230 416 l 1
 40 416 l 1
 40 496 l 1
 230 496 l 1
 230 668 l 1
 311 668 l 1
 311 496 l 1
 501 496 l 1
 501 416 l 1
 311 416 l 1
 311 251 l 1
 501 251 l 1
 501 172 l 1
 311 172 l 1
 311 0 l 1
 230 0 l 1
EndSplineSet
EndChar

StartChar: bullet
Encoding: 272 8226 81
Width: 438
GlyphClass: 1
Flags: W
HStem: 88 332<138.402 299.601>
VStem: 53 332<173.272 336.984>
LayerCount: 2
Fore
SplineSet
385 254.929502999 m 0
 385 165.960909681 314.00916374 88 219.001170362 88 c 0
 123.99711584 88 53 165.954445585 53 254.926649959 c 0
 53 345.848707828 127.143062089 420 218.998433796 420 c 0
 310.848707828 420 385 345.856937911 385 254.929502999 c 0
EndSplineSet
EndChar

StartChar: ellipsis
Encoding: 273 8230 82
Width: 696
GlyphClass: 1
Flags: W
HStem: -12 129<70.0581 165.354 300.094 396.265 530.646 625.941>
VStem: 53 129<5.05858 100.354> 284 129<5.05858 100.168> 514 129<5.05807 100.354>
LayerCount: 2
Fore
SplineSet
413 52.786761416 m 0
 413 17.6575289711 385.049057869 -12 347.927808459 -12 c 0
 310.475656365 -12 284 18.1886262026 284 52.7838902355 c 0
 284 87.8208985391 311.156104346 117 347.92199441 117 c 0
 384.352290193 117 413 88.3511535084 413 52.786761416 c 0
182 52.786761416 m 0
 182 17.6575289711 154.049057869 -12 117.790750726 -12 c 0
 81.9598162862 -12 53 16.9625092112 53 52.7909943284 c 0
 53 89.0476277456 82.6560879988 117 117.786702845 117 c 0
 153.352290193 117 182 88.3511535084 182 52.786761416 c 0
643 52.7907507261 m 0
 643 16.9598162862 614.037490789 -12 578.209005672 -12 c 0
 541.952372254 -12 514 17.6560879988 514 52.7867028451 c 0
 514 88.3522901931 542.648846492 117 578.213238584 117 c 0
 613.342471029 117 643 89.0490578687 643 52.7907507261 c 0
EndSplineSet
EndChar

StartChar: perthousand
Encoding: 274 8240 83
Width: 1328
GlyphClass: 1
Flags: W
HStem: -12 74<644.188 771.1 1045.19 1172.1> 0 21G<186 288.012> 277 74<642.612 770.634 1043.61 1171.63> 316 75<156.465 283.525> 605 75<156.468 283.526> 648 20G<639.988 742>
VStem: 38 74<434.472 561.531> 186 88<0 88> 327 74<434.909 561.09> 526 74<105.938 233.997> 654 88<580 668> 815 74<106.119 233.808> 927 74<105.938 233.997> 1216 74<106.119 233.808>
DStem2: 186 0 274 0 0.573791 0.819001<50.4936 815.627>
LayerCount: 2
Fore
SplineSet
1001 169.787558412 m 0xa3fc
 1001 110.454507157 1047.7012077 62 1108.20928678 62 c 0
 1168.26610186 62 1216 109.734463192 1216 169.790457608 c 0
 1216 230.296848301 1167.54744628 277 1108.21155045 277 c 0
 1048.41860632 277 1001 229.574593922 1001 169.787558412 c 0xa3fc
600 169.787558412 m 0
 600 110.454507157 646.701207703 62 707.209286784 62 c 0
 767.266101858 62 815 109.734463192 815 169.790457608 c 0
 815 230.296848301 766.547446281 277 707.211550448 277 c 0
 647.418606324 277 600 229.574593922 600 169.787558412 c 0
1290 170.011410121 m 0
 1290 68.8328236009 1209.16477777 -12 1108.91126099 -12 c 0
 1009.70458583 -12 927 67.1535334814 927 170.014024107 c 0
 927 273.88721512 1011.34111829 351 1108.92576663 351 c 0
 1207.59079789 351 1290 272.170295134 1290 170.011410121 c 0
889 170.011410121 m 0
 889 68.8328236009 808.164777767 -12 707.911260988 -12 c 0
 608.704585834 -12 526 67.1535334814 526 170.014024107 c 0
 526 273.88721512 610.341118293 351 707.925766627 351 c 0
 806.590797894 351 889 272.170295134 889 170.011410121 c 0
112 498.000148361 m 0
 112 438.278857566 161.17282865 391 220.077894923 391 c 0
 279.266101858 391 327 438.734463192 327 498.000107136 c 0
 327 557.266101858 279.265536808 605 220.077942169 605 c 0x1bfc
 161.173621331 605 112 557.721920517 112 498.000148361 c 0
186 0 m 1x47fc
 654 668 l 1
 742 668 l 1
 274 0 l 1
 186 0 l 1x47fc
401 497.999317261 m 0
 401 398.704585834 321.846466519 316 219.898281782 316 c 0
 119.000315076 316 38 397.009401854 38 498.001711088 c 0
 38 598.999684924 119.009401854 680 219.900653521 680 c 0x1bfc
 321.849965307 680 401 597.291854123 401 497.999317261 c 0
EndSplineSet
EndChar

StartChar: guilsinglleft
Encoding: 275 8249 84
Width: 353
GlyphClass: 1
Flags: W
VStem: 201 99<40 139 362 461>
DStem2: 53 250 151 250 0.576835 0.816861<56.5298 257.729> 151 250 53 250 0.578664 -0.815566<0 200.202>
LayerCount: 2
Fore
SplineSet
201 40 m 1
 53 250 l 1
 201 461 l 1
 300 461 l 1
 151 250 l 1
 300 40 l 1
 201 40 l 1
EndSplineSet
EndChar

StartChar: guilsinglright
Encoding: 276 8250 85
Width: 353
GlyphClass: 1
Flags: W
VStem: 53 100<40 140 361 461>
DStem2: 153 461 53 461 0.576835 -0.816861<0 200.623> 53 40 153 40 0.578664 0.815566<57.8664 257.49>
LayerCount: 2
Fore
SplineSet
53 40 m 1
 202 250 l 1
 53 461 l 1
 153 461 l 1
 300 250 l 1
 153 40 l 1
 53 40 l 1
EndSplineSet
EndChar

StartChar: fraction
Encoding: 277 8260 86
Width: 586
GlyphClass: 1
Flags: W
HStem: 0 21G<15 117.012> 648 20G<468.988 571>
VStem: 15 88<0 88> 483 88<580 668>
DStem2: 15 0 103 0 0.573791 0.819001<50.4936 815.627>
LayerCount: 2
Fore
SplineSet
15 0 m 1
 483 668 l 1
 571 668 l 1
 103 0 l 1
 15 0 l 1
EndSplineSet
EndChar

StartChar: ordfeminine
Encoding: 170 170 87
Width: 371
GlyphClass: 1
Flags: W
HStem: 397 51<126.612 223.592> 527 49<134.041 239> 643 49<136.073 231.572>
VStem: 53 70<452.991 510.954> 239 68<463.452 530 578 636.644> 260 58<403 425.75>
LayerCount: 2
Fore
SplineSet
123 484.261070755 m 0xf8
 123 474.555269479 126.608547744 448 169.978760952 448 c 0
 191.893510291 448 239 454.780170478 239 519 c 2
 239 530 l 1
 217 527 l 2
 141.123354831 516.978556298 123 506.012332963 123 484.261070755 c 0xf8
248 442 m 1
 242.04950308 430.556736693 218.895661094 397 153.801111972 397 c 0
 85.6504827725 397 53 433.781565806 53 480.885110037 c 0
 53 520.503124621 76.0976528591 563.030902476 222 576 c 1
 239 578 l 1
 239 626.582507917 226.913658833 643 187.869937042 643 c 0
 160.274699106 643 136.315497142 634.79888914 129 607 c 1
 68 625 l 1
 78.9052178982 654.741503359 113.093904665 692 188.343428519 692 c 0
 250.750450702 692 307 666.373769074 307 573 c 2
 307 491 l 2xf8
 307 466.25 308.754208754 456.163299663 318 403 c 1
 260 403 l 1xf4
 248 442 l 1
EndSplineSet
EndChar

StartChar: guillemotleft
Encoding: 171 171 88
Width: 562
GlyphClass: 1
Flags: W
VStem: 201 99<40 139 362 461> 409 100<40 140 361 461>
DStem2: 53 251 151 251 0.578664 0.815566<56.709 256.911> 151 251 53 251 0.576835 -0.816861<0 201.199> 262 251 359 251 0.581238 0.813733<56.3801 256.326> 359 251 262 251 0.57941 -0.815036<0 200.943>
LayerCount: 2
Fore
SplineSet
201 40 m 1
 53 251 l 1
 201 461 l 1
 300 461 l 1
 151 251 l 1
 300 40 l 1
 201 40 l 1
409 40 m 1
 262 251 l 1
 409 461 l 1
 509 461 l 1
 359 251 l 1
 509 40 l 1
 409 40 l 1
EndSplineSet
EndChar

StartChar: logicalnot
Encoding: 172 172 89
Width: 602
GlyphClass: 1
Flags: W
HStem: 317 79<53 468>
VStem: 468 81<90 317>
LayerCount: 2
Fore
SplineSet
468 90 m 1
 468 317 l 1
 53 317 l 1
 53 396 l 1
 549 396 l 1
 549 90 l 1
 468 90 l 1
EndSplineSet
EndChar

StartChar: registered
Encoding: 174 174 90
Width: 798
GlyphClass: 1
Flags: W
HStem: -12 61<293.967 504.036> 301 58<340 382> 469 61<340 465.282> 619 61<295.42 502.585>
VStem: 53 62<224.706 437.675> 264 76<162 301 359 469> 474 76<376.172 430.793> 484 86<162 248> 683 62<224.708 437.672>
DStem2: 462 311 382 301 0.586879 -0.809675<0 133.553>
LayerCount: 2
Fore
SplineSet
474 430.793281654 m 1xfe80
 474 430.793281654 474 469 388 469 c 2
 340 469 l 1
 340 359 l 1
 393 359 l 2
 420.669938773 359 474 362.175917098 474 430.793281654 c 1xfe80
550 423.02280339 m 0
 550 367.504367832 526.017489005 329.531378396 462 311 c 1
 570 162 l 1
 484 162 l 1xfd80
 382 301 l 1
 340 301 l 1
 340 162 l 1
 264 162 l 1
 264 530 l 1
 376 530 l 2
 513.223497356 530 550 491.773184007 550 423.02280339 c 0
115 334.255052581 m 0
 115 181.471114324 236.591287717 49 399.000460222 49 c 0
 561.411196226 49 683 181.473664913 683 334.254236054 c 0
 683 490.724886538 555.466845088 619 399.00130913 619 c 0
 242.539936987 619 115 490.731713688 115 334.255052581 c 0
745 334.537668001 m 0
 745 145.202155373 592.116128485 -12 399.001377374 -12 c 0
 205.891088715 -12 53 145.194890274 53 334.53783665 c 0
 53 524.634172284 207.110206381 680 399.001539749 680 c 0
 590.89790469 680 745 524.626024498 745 334.537668001 c 0
EndSplineSet
EndChar

StartChar: macron
Encoding: 175 175 91
Width: 382
GlyphClass: 1
Flags: W
HStem: 601 67<53 329>
VStem: 53 276<601 668>
LayerCount: 2
Fore
SplineSet
53 601 m 1
 53 668 l 1
 329 668 l 1
 329 601 l 1
 53 601 l 1
EndSplineSet
EndChar

StartChar: degree
Encoding: 176 176 92
Width: 352
GlyphClass: 1
Flags: W
HStem: 408 63<125.596 228.162> 617 63<124.35 229.411>
VStem: 40 63<493.598 596.164> 249 63<492.348 597.41>
LayerCount: 2
Fore
SplineSet
103 544.868027848 m 0
 103 503.590603533 135.590203676 471 176.867641058 471 c 0
 218.94748501 471 249 504.869999469 249 544.870937238 c 0
 249 585.696921638 217.694992859 617 176.870938282 617 c 0
 136.87184052 617 103 586.949260267 103 544.868027848 c 0
312 544.929955921 m 0
 312 472.574472775 254.359816179 408 176.899945517 408 c 0
 101.37750738 408 40 469.384587002 40 544.901755293 c 0
 40 622.362117459 104.576856492 680 176.931919991 680 c 0
 251.231026912 680 312 619.223267633 312 544.929955921 c 0
EndSplineSet
EndChar

StartChar: plusminus
Encoding: 177 177 93
Width: 579
GlyphClass: 1
Flags: W
HStem: 0 79<53 526> 270 79<53 250 329 526> 476 20G<250 329>
VStem: 250 79<124 270 349 496>
LayerCount: 2
Fore
SplineSet
53 0 m 1
 53 79 l 1
 526 79 l 1
 526 0 l 1
 53 0 l 1
250 124 m 1
 250 270 l 1
 53 270 l 1
 53 349 l 1
 250 349 l 1
 250 496 l 1
 329 496 l 1
 329 349 l 1
 526 349 l 1
 526 270 l 1
 329 270 l 1
 329 124 l 1
 250 124 l 1
EndSplineSet
EndChar

StartChar: uni00B2
Encoding: 178 178 94
Width: 382
GlyphClass: 1
Flags: W
HStem: 403 58<134 329> 677 21G<65 132.396> 736 50<143.786 239.944>
VStem: 65 64<693.031 720.419> 250 70<621.679 725.655>
LayerCount: 2
Fore
SplineSet
320 678.518470937 m 0
 320 652.436127884 313.210030301 583.188657024 134 461 c 1
 329 461 l 1
 329 403 l 1
 53 403 l 1
 53 458 l 1
 232.319416432 600.286058691 250 641.052614743 250 676.80326422 c 0
 250 721.263749306 222.655051054 736 194.419022006 736 c 0
 178.547099527 736 135.792965348 731.343722784 129 677 c 1
 65 695 l 1
 71.9529508015 721.547630333 98.8393917708 786 193.067868376 786 c 0
 250.891954393 786 320 761.728752252 320 678.518470937 c 0
EndSplineSet
EndChar

StartChar: uni00B3
Encoding: 179 179 95
Width: 383
GlyphClass: 1
Flags: W
HStem: 397 51<135.149 242.115> 484 20G<53 121.164> 572 54<151 238.652> 736 50<136.801 242.245>
VStem: 58 61<698.934 718.539> 252 69<640.221 724.766> 261 69<468.035 523.686>
LayerCount: 2
Fore
SplineSet
330 509.045672736 m 0xfa
 330 426.449907129 251.552585033 397 190.188991973 397 c 0
 159.413671621 397 80.9132477726 404.407429588 53 486 c 1
 115 504 l 1
 127.327462184 468.558546222 150.597960953 448 188.156151358 448 c 0
 225.134342061 448 261 467.928490216 261 523.68627451 c 1xfa
 261 523.68627451 261 572 176 572 c 2
 151 572 l 1
 151 626 l 1
 172 626 l 2
 207.688465448 626 252 635.553223425 252 682.763237396 c 0
 252 733.121396734 201.581696559 736 187.706636585 736 c 0
 153.333333333 736 129.666666667 718.333333333 119 683 c 1
 58 701 l 1
 66.485403283 727.108933178 96.4393156164 786 185.386892809 786 c 0
 224.211258559 786 321 774.780076005 321 689.354883617 c 0xfc
 321 674.43940195 318.049283557 628.112669682 268 602 c 1
 282.744023705 596.292635985 330 573.151400453 330 509.045672736 c 0xfa
EndSplineSet
EndChar

StartChar: acute
Encoding: 180 180 96
Width: 268
GlyphClass: 1
Flags: W
HStem: 571 136<141.037 148.198>
VStem: 53 162
LayerCount: 2
Fore
SplineSet
176.497662324 707 m 0
 196.893391537 707 215 693.364173304 215 656.589690003 c 1
 215 656.589690003 215 646.818181818 141.522828211 586.700495809 c 0
 131.5 578.5 125 573 123 571 c 2
 53 571 l 1
 72.3424934646 596.789991286 135.110847506 680.110847506 148.039717182 694.297645127 c 0
 155.666666667 702.666666667 165 707 176.497662324 707 c 0
EndSplineSet
EndChar

StartChar: uni03BC
Encoding: 278 956 97
Width: 538
GlyphClass: 1
Flags: W
HStem: -162 21G<70 154> -12 74<187.055 327.594> 0 21G<399.167 468> 477 20G<70 154 384 468>
VStem: 70 84<-162 41 96.7631 497> 384 84<122.618 497> 405 63<0 24>
LayerCount: 2
Fore
SplineSet
267.47035967 -12 m 0xdc
 221.972562972 -12 185.247513352 -0.115149146856 154 41 c 1
 154 -162 l 1
 70 -162 l 1
 70 497 l 1
 154 497 l 1
 154 191 l 2
 154 74.8054783863 210.805964101 62 251.2993361 62 c 0
 323.526511697 62 384 102.740765574 384 224 c 2
 384 497 l 1
 468 497 l 1xdc
 468 0 l 1
 405 0 l 1xba
 384 72 l 1
 338.18213859 -6.54490527483 298.294760676 -12 267.47035967 -12 c 0xdc
EndSplineSet
EndChar

StartChar: paragraph
Encoding: 182 182 98
Width: 508
GlyphClass: 1
Flags: W
HStem: -161 21G<187 268 362 443> 601 67<268 362 443 483>
VStem: 38 230<391.335 565.097> 187 81<-161 299.216> 362 81<-161 601>
LayerCount: 2
Fore
SplineSet
38 478.707412426 m 0xe8
 38 583.736691235 122.262486093 668 227 668 c 2
 483 668 l 1
 483 601 l 1
 443 601 l 1
 443 -161 l 1
 362 -161 l 1
 362 601 l 1
 268 601 l 1
 268 -161 l 1
 187 -161 l 1
 187 294 l 1xd8
 103.327325754 311.929858767 38 386.228931084 38 478.707412426 c 0xe8
EndSplineSet
EndChar

StartChar: periodcentered
Encoding: 183 183 99
Width: 235
GlyphClass: 1
Flags: W
HStem: 183 129<70.0586 165.354>
VStem: 53 129<199.646 294.942>
LayerCount: 2
Fore
SplineSet
182 247.213297155 m 0
 182 211.647709807 153.351153508 183 117.786761416 183 c 0
 82.6575289711 183 53 210.950942131 53 247.209249274 c 0
 53 283.040183714 81.9625092112 312 117.790994328 312 c 0
 154.047627746 312 182 282.343912001 182 247.213297155 c 0
EndSplineSet
EndChar

StartChar: cedilla
Encoding: 184 184 100
Width: 291
GlyphClass: 1
Flags: W
HStem: -181 41<81.5409 190.796> -81 40<130.672 195.475>
VStem: 196 62<-134.136 -83.2437>
DStem2: 104 -57 159 -45 0.528136 0.84916<39.2374 96.566>
LayerCount: 2
Fore
SplineSet
258 -95.6394270868 m 0
 258 -103.2509996 256.730367483 -181 162.0220544 -181 c 0
 142.48677991 -181 116.399355527 -177.692059818 73 -161 c 1
 87 -126 l 1
 109.666666667 -135.333333333 129 -140 147.082888531 -140 c 0
 195.4503706 -140 196 -106.612943717 196 -104.571873588 c 0
 196 -100.190433295 193.467275815 -81 161.849033624 -81 c 0
 135.977085156 -81 120.123874145 -93.8489492024 107.619268744 -82.1779841609 c 0
 103.5 -78.3333333333 101 -73 101 -66.8742588672 c 0
 101 -63 102 -59.6666666667 104 -57 c 2
 155 25 l 1
 189 4 l 1
 159 -45 l 1
 167.875703238 -42.7810741904 178.220944115 -41 187.471230633 -41 c 0
 197.339618 -41 258 -43.0270479314 258 -95.6394270868 c 0
EndSplineSet
EndChar

StartChar: uni00B9
Encoding: 185 185 101
Width: 256
GlyphClass: 1
Flags: W
HStem: 683 47<53 129.012>
VStem: 136 67<403 683> 147 56<749.407 779>
LayerCount: 2
Fore
SplineSet
53 730 m 1xc0
 71.1904761905 730 129.5 730 147 779 c 1
 203 779 l 1xa0
 203 403 l 1
 136 403 l 1
 136 683 l 1
 53 683 l 1
 53 730 l 1xc0
EndSplineSet
EndChar

StartChar: ordmasculine
Encoding: 186 186 102
Width: 381
GlyphClass: 1
Flags: W
HStem: 398 54<146.957 241.182> 638 54<146.713 241.941>
VStem: 57 69<472.169 616.286> 263 69<472.543 617.734>
LayerCount: 2
Fore
SplineSet
126 549.885462694 m 0
 126 531.391085371 128.794457307 452 191.015715817 452 c 0
 206.261756555 452 263 456.766595613 263 540.597052735 c 0
 263 561.528725115 259.462633367 638 197.828406379 638 c 0
 184.048612944 638 126 634.177567382 126 549.885462694 c 0
332 544.999624562 m 0
 332 427.574938492 246.139428368 398 195.070850374 398 c 0
 145.753061211 398 57 425.58185806 57 544.999970704 c 0
 57 664.417691433 145.752478659 692 195.071879889 692 c 0
 246.146581438 692 332 662.419419187 332 544.999624562 c 0
EndSplineSet
EndChar

StartChar: guillemotright
Encoding: 187 187 103
Width: 562
GlyphClass: 1
Flags: W
VStem: 53 100<40 140 361 461> 262 99<40 139 362 461>
DStem2: 153 461 53 461 0.578664 -0.815566<0 199.623> 53 40 153 40 0.576835 0.816861<57.6835 258.306> 361 461 262 461 0.578664 -0.815566<0 200.202> 262 40 361 40 0.576835 0.816861<57.1067 258.306>
LayerCount: 2
Fore
SplineSet
53 40 m 1
 202 251 l 1
 53 461 l 1
 153 461 l 1
 300 251 l 1
 153 40 l 1
 53 40 l 1
262 40 m 1
 411 251 l 1
 262 461 l 1
 361 461 l 1
 509 251 l 1
 361 40 l 1
 262 40 l 1
EndSplineSet
EndChar

StartChar: onequarter
Encoding: 188 188 104
Width: 826
GlyphClass: 1
Flags: W
HStem: 0 21G<115 217.982 640 708> 86 57<528 640 708 773> 571 48<53 129.012> 648 20G<138.25 204 568.988 671>
VStem: 115 89<0 89> 136 68<292 571> 147 57<638.407 668> 583 88<580 668> 640 68<0 86 143 289>
DStem2: 115 0 204 0 0.573791 0.819001<51.0674 815.627> 455 140 528 143 0.618997 0.785394<47.5429 231.538>
LayerCount: 2
Fore
SplineSet
528 143 m 1xf080
 640 143 l 1
 640 289 l 1
 528 143 l 1xf080
640 0 m 1
 640 86 l 1
 455 86 l 1
 455 140 l 1
 641 376 l 1
 708 376 l 1
 708 143 l 1
 773 143 l 1
 773 86 l 1
 708 86 l 1
 708 0 l 1
 640 0 l 1
53 619 m 1
 71.1904761905 619 129.5 619 147 668 c 1
 204 668 l 1xf2
 204 292 l 1
 136 292 l 1
 136 571 l 1xf4
 53 571 l 1
 53 619 l 1
115 0 m 1xf9
 583 668 l 1
 671 668 l 1
 204 0 l 1
 115 0 l 1xf9
EndSplineSet
Ligature2: "'frac' Diagonal Fractions lookup 10 subtable" one slash four
EndChar

StartChar: onehalf
Encoding: 189 189 105
Width: 812
GlyphClass: 1
Flags: W
HStem: 0 58<565 759> 332 50<574.907 670.979> 571 48<53 129.012> 648 20G<138.25 203 568.988 671>
VStem: 115 88<0 88> 136 67<292 571> 147 56<638.407 668> 495 64<289.922 315.33> 583 88<580 668> 681 70<217.551 321.109>
DStem2: 115 0 203 0 0.573791 0.819001<50.4936 815.627>
LayerCount: 2
Fore
SplineSet
751 274.651125196 m 0xf1c0
 751 249.253988661 744.48030221 178.333384436 565 58 c 1
 759 58 l 1
 759 0 l 1
 484 0 l 1
 484 54 l 1
 661.942915494 197.127997245 681 235.456694503 681 272.677726266 c 0
 681 317.263749306 653.655051054 332 625.303512488 332 c 0
 608.495626989 332 567.409505186 326.820833189 559 273 c 1
 495 292 l 1
 507.342823974 338.005071177 547.728902403 382 621.572777415 382 c 0
 641.100805885 382 751 378.923262382 751 274.651125196 c 0xf1c0
53 619 m 1
 71.1904761905 619 129.5 619 147 668 c 1
 203 668 l 1xf3c0
 203 292 l 1
 136 292 l 1
 136 571 l 1xf5c0
 53 571 l 1
 53 619 l 1
115 0 m 1xf9c0
 583 668 l 1
 671 668 l 1
 203 0 l 1
 115 0 l 1xf9c0
EndSplineSet
Ligature2: "'frac' Diagonal Fractions lookup 10 subtable" one slash two
EndChar

StartChar: threequarters
Encoding: 190 190 106
Width: 868
GlyphClass: 1
Flags: W
HStem: 0 21G<157 259.042 682 751> 86 57<570 682 751 815> 291 51<134.723 244.174> 466 53<151 238.883> 629 51<137.543 241.004> 648 20G<611.958 714>
VStem: 58 61<591.934 611.182> 157 88<0 88> 252 69<533.198 616.844> 261 69<359.016 450.477> 626 88<580 668> 682 69<0 86 143 289>
DStem2: 157 0 245 0 0.574613 0.818425<50.5659 816.202> 497 140 570 143 0.618997 0.785394<47.5429 231.538>
LayerCount: 2
Fore
SplineSet
570 143 m 1xf310
 682 143 l 1
 682 289 l 1
 570 143 l 1xf310
682 0 m 1
 682 86 l 1
 497 86 l 1
 497 140 l 1
 683 376 l 1
 751 376 l 1
 751 143 l 1
 815 143 l 1
 815 86 l 1
 751 86 l 1
 751 0 l 1
 682 0 l 1
157 0 m 1
 626 668 l 1
 714 668 l 1xf720
 245 0 l 1
 157 0 l 1
330 403.325844566 m 0xfb40
 330 320.449907129 251.552585033 291 190.188991973 291 c 0
 159.413671621 291 80.9132477726 298.407429588 53 380 c 1
 115 398 l 1
 119.329925017 385.010224949 133.666666667 342 188.089259311 342 c 0
 225.134342061 342 261 361.928490216 261 408.355346926 c 0xfb40
 261 429.074303138 253.857076729 466 170 466 c 2
 151 466 l 1
 151 519 l 1
 169 519 l 2
 224.333333333 519 252 538 252 575.050913607 c 0
 252 627.451335085 196.66135062 629 187.235868574 629 c 0
 161.431448221 629 132.24560135 617.392504218 119 576 c 1
 58 594 l 1
 66.0919253309 618.898231787 95.9383122202 680 186.656143459 680 c 0
 232.409630359 680 321 664.4576439 321 581.70031251 c 0xfb80
 321 563.156130178 316.55175258 520.331349172 268 495 c 1
 281.192843453 490.318668452 330 468.696206388 330 403.325844566 c 0xfb40
EndSplineSet
Ligature2: "'frac' Diagonal Fractions lookup 10 subtable" three slash four
EndChar

StartChar: less
Encoding: 60 60 107
Width: 553
GlyphClass: 1
Flags: W
HStem: 0 21G<468.587 513> 476 20G<468.587 513>
VStem: 40 105<160.5 335.5>
DStem2: 145 248 40 213 0.911813 -0.410605<0 400.423>
LayerCount: 2
Fore
SplineSet
513 0 m 1
 40 213 l 1
 40 283 l 1
 513 496 l 1
 513 406 l 1
 145 248 l 1
 513 90 l 1
 513 0 l 1
EndSplineSet
EndChar

StartChar: equal
Encoding: 61 61 108
Width: 602
GlyphClass: 1
Flags: W
HStem: 121 79<53 549> 307 79<53 549>
LayerCount: 2
Fore
SplineSet
53 121 m 1
 53 200 l 1
 549 200 l 1
 549 121 l 1
 53 121 l 1
53 307 m 1
 53 386 l 1
 549 386 l 1
 549 307 l 1
 53 307 l 1
EndSplineSet
EndChar

StartChar: greater
Encoding: 62 62 109
Width: 553
GlyphClass: 1
Flags: W
HStem: 0 21G<40 84.4131> 476 20G<40 84.4131>
VStem: 408 105<160.5 335.5>
DStem2: 40 90 40 0 0.911813 0.410605<0 400.423>
LayerCount: 2
Fore
SplineSet
40 0 m 1
 40 90 l 1
 408 248 l 1
 40 406 l 1
 40 496 l 1
 513 283 l 1
 513 213 l 1
 40 0 l 1
EndSplineSet
EndChar

StartChar: question
Encoding: 63 63 110
Width: 520
GlyphClass: 1
Flags: W
HStem: -12 129<178.966 274.25> 501 21G<50.6957 131.146> 610 70<176.008 339.754>
VStem: 40 82<522.037 555.242> 162 129<4.74028 100.224> 182 86<190 285.9> 382 88<443.875 570.554>
LayerCount: 2
Fore
SplineSet
291 52.0686095743 m 0xfa
 291 16.9598162862 262.037490789 -12 227.739773105 -12 c 0
 197.483273626 -12 162 10.5373433986 162 51.523880894 c 0
 162 88.3522901931 190.648846492 117 226.872113896 117 c 0
 264.928833875 117 291 85.378870818 291 52.0686095743 c 0xfa
254.731690628 680 m 0
 324.479749194 680 470 654.465771505 470 512.39763743 c 0
 470 478.594634975 461.761642472 404.624827872 326.71449129 316.63126694 c 0
 282.418419178 287.768983757 268 270.38922824 268 224 c 2
 268 190 l 1
 182 190 l 1
 182 227 l 2xf6
 182 295.533305267 207.5207452 331.118365389 304.67382143 392.630804043 c 0
 320.215306981 402.470890571 382 441.944444444 382 510.963376447 c 0
 382 579.131714874 321.728799703 610 257.821025759 610 c 0
 214.956914343 610 140.291057851 596.113500825 122 501 c 1
 40 524 l 1
 60.852578537 624.092376977 151.525376662 680 254.731690628 680 c 0
EndSplineSet
EndChar

StartChar: at
Encoding: 64 64 111
Width: 780
GlyphClass: 1
Flags: W
HStem: -12 61<290.106 503.489> 155 74<324.365 418.67 537.912 629.667> 445 74<381.243 450.532> 618 62<289.11 505.279>
VStem: 50 62<224.476 441.146> 218 84<248.934 409.254> 451 81<263.252 443.742> 668 62<274.355 462.062>
LayerCount: 2
Fore
SplineSet
451 441 m 1
 441.101499736 442.979700053 425.916596731 445 381.243265993 445 c 1
 381.243265993 445 302 445 302 320.803936804 c 0
 302 284.333333333 308.833333333 263.166666667 324.20992993 247.79007007 c 0
 336.166666667 235.833333333 351.666666667 229 365.273259745 229 c 0
 383.781474821 229 451 241.643371174 451 338 c 2
 451 441 l 1
532 16 m 1
 514.733028556 8.44569999339 465.111980803 -12 398.62686856 -12 c 0
 232.454312316 -12 50 115.723782861 50 328.252371907 c 0
 50 522.797844627 202.883871515 680 388.506854625 680 c 0
 542.876880241 680 730 571.277118758 730 360.821555791 c 0
 730 306.340262614 717.459887153 215.899371455 645.025963403 174.071330979 c 0
 623.833333333 161.833333333 599.666666667 155 577.494781302 155 c 0
 574.151493209 155 495.247933543 155.155372789 473 213 c 1
 456.927728314 193.57933838 417.39836845 155 359.816777392 155 c 0
 298.490884139 155 218 198.759788986 218 325.048288402 c 0
 218 387.648051385 237.777184715 466.941076792 321.900336262 501.91362294 c 0
 348.166666667 512.833333333 379.666666667 519 413.548606737 519 c 0
 439.585255052 519 481.106987325 515.35846836 532 499 c 1
 532 273 l 2
 532 264.956462916 534.277418362 229 578.749777354 229 c 0
 646.868585589 229 668 313.358861892 668 369.000194793 c 0
 668 501.578347892 548.028677478 618 398.208136856 618 c 0
 247.433790242 618 112 500.091273572 112 332.149642196 c 0
 112 161.757534012 251.414918811 49 396.627847161 49 c 0
 444 49 489.333333333 61 532 85 c 1
 532 16 l 1
EndSplineSet
EndChar

StartChar: colon
Encoding: 58 58 112
Width: 205
GlyphClass: 1
Flags: W
HStem: -12 129<55.0581 150.354> 375 129<55.0586 150.354>
VStem: 38 129<5.05858 100.354 391.646 486.942>
LayerCount: 2
Fore
SplineSet
167 52.786761416 m 0
 167 17.6575289711 139.049057869 -12 102.790750726 -12 c 0
 66.9598162862 -12 38 16.9625092112 38 52.7909943284 c 0
 38 89.0476277456 67.6560879988 117 102.786702845 117 c 0
 138.352290193 117 167 88.3511535084 167 52.786761416 c 0
167 439.213297155 m 0
 167 403.647709807 138.351153508 375 102.786761416 375 c 0
 67.6575289711 375 38 402.950942131 38 439.209249274 c 0
 38 475.040183714 66.9625092112 504 102.790994328 504 c 0
 139.047627746 504 167 474.343912001 167 439.213297155 c 0
EndSplineSet
EndChar

StartChar: semicolon
Encoding: 59 59 113
Width: 205
GlyphClass: 1
Flags: W
HStem: 375 129<55.0586 150.354>
VStem: 38 129<5.35938 100.055 391.646 486.942>
DStem2: 45 -133 100 -133 0.359367 0.933196<19.7652 130.74>
LayerCount: 2
Fore
SplineSet
102.790994328 117 m 0
 139.047627746 117 167 87.3439120012 167 53.3103981312 c 0
 167 45 165.333333333 36.6666666667 162 28 c 2
 100 -133 l 1
 45 -133 l 1
 92 -11 l 1
 62.2195219988 -5.82078643457 38 19.6365117499 38 52.3101744007 c 0
 38 88.0401837138 66.9625092112 117 102.790994328 117 c 0
167 439.213297155 m 0
 167 403.647709807 138.351153508 375 102.786761416 375 c 0
 67.6575289711 375 38 402.950942131 38 439.209249274 c 0
 38 475.040183714 66.9625092112 504 102.790994328 504 c 0
 139.047627746 504 167 474.343912001 167 439.213297155 c 0
EndSplineSet
EndChar

StartChar: bracketleft
Encoding: 91 91 114
Width: 315
GlyphClass: 1
Flags: W
HStem: -161 74<157 282> 594 74<157 282>
VStem: 76 206<-161 -87 594 668> 76 81<-87 594>
LayerCount: 2
Fore
SplineSet
76 -161 m 1xe0
 76 668 l 1
 282 668 l 1
 282 594 l 1xe0
 157 594 l 1
 157 -87 l 1xd0
 282 -87 l 1
 282 -161 l 1
 76 -161 l 1xe0
EndSplineSet
EndChar

StartChar: backslash
Encoding: 92 92 115
Width: 377
GlyphClass: 1
Flags: W
HStem: 0 21G<267.216 362> 648 20G<15 109.784>
DStem2: 102 668 15 668 0.362716 -0.9319<0 685.259>
LayerCount: 2
Fore
SplineSet
275 0 m 1
 15 668 l 1
 102 668 l 1
 362 0 l 1
 275 0 l 1
EndSplineSet
EndChar

StartChar: bracketright
Encoding: 93 93 116
Width: 315
GlyphClass: 1
Flags: W
HStem: -161 74<33 158> 594 74<33 158>
VStem: 33 206<-161 -87 594 668> 158 81<-87 594>
LayerCount: 2
Fore
SplineSet
33 -161 m 1xe0
 33 -87 l 1xe0
 158 -87 l 1
 158 594 l 1xd0
 33 594 l 1
 33 668 l 1
 239 668 l 1
 239 -161 l 1
 33 -161 l 1xe0
EndSplineSet
EndChar

StartChar: asciicircum
Encoding: 94 94 117
Width: 552
GlyphClass: 1
Flags: W
HStem: 569 99<188.5 363.5>
DStem2: 53 311 142 311 0.460099 0.887867<40.9488 331.672> 314 668 276 569 0.460099 -0.887867<70.4151 361.138>
LayerCount: 2
Fore
SplineSet
53 311 m 1
 238 668 l 1
 314 668 l 1
 499 311 l 1
 410 311 l 1
 276 569 l 1
 142 311 l 1
 53 311 l 1
EndSplineSet
EndChar

StartChar: underscore
Encoding: 95 95 118
Width: 396
GlyphClass: 1
Flags: W
HStem: -79 79<10 386>
LayerCount: 2
Fore
SplineSet
10 -79 m 1
 10 0 l 1
 386 0 l 1
 386 -79 l 1
 10 -79 l 1
EndSplineSet
EndChar

StartChar: grave
Encoding: 96 96 119
Width: 268
GlyphClass: 1
Flags: W
HStem: 571 136
VStem: 53 162
LayerCount: 2
Fore
SplineSet
53 664.706114568 m 0
 53 690.529519558 69.471910052 707 96.1111111111 707 c 1
 96.1111111111 707 110.333333333 707 122 692 c 2
 215 571 l 1
 145 571 l 1
 59.5085470085 642.992802519 53 648.473684211 53 664.706114568 c 0
EndSplineSet
EndChar

StartChar: exclam
Encoding: 33 33 120
Width: 281
GlyphClass: 1
Flags: W
HStem: -12 129<93.0581 188.354> 648 20G<96 185>
VStem: 76 129<5.05858 100.354> 96 89<378.944 668>
LayerCount: 2
Fore
SplineSet
205 52.786761416 m 0xe0
 205 17.6575289711 177.049057869 -12 140.790750726 -12 c 0
 104.959816286 -12 76 16.9625092112 76 52.7909943284 c 0
 76 89.0476277456 105.656087999 117 140.786702845 117 c 0
 176.352290193 117 205 88.3511535084 205 52.786761416 c 0xe0
114 195 m 1
 96 496 l 1
 96 668 l 1
 185 668 l 1
 185 496 l 1xd0
 167 195 l 1
 114 195 l 1
EndSplineSet
EndChar

StartChar: quotedbl
Encoding: 34 34 121
Width: 301
GlyphClass: 1
Flags: W
HStem: 447 221<54 106 195 247>
VStem: 54 52<447 557.5> 195 52<447 557.5>
LayerCount: 2
Fore
SplineSet
54 447 m 1
 40 668 l 1
 120 668 l 1
 106 447 l 1
 54 447 l 1
195 447 m 1
 181 668 l 1
 261 668 l 1
 247 447 l 1
 195 447 l 1
EndSplineSet
EndChar

StartChar: numbersign
Encoding: 35 35 122
Width: 655
GlyphClass: 1
Flags: W
HStem: 0 21G<137 221.791 342 426.791> 172 81<49 162 255 366 460 572> 415 81<83 196 289 400 494 606> 648 20G<228.209 313 433.209 518>
VStem: 137 82<0 82> 231 82<586 668> 342 82<0 82> 436 82<586 668>
DStem2: 137 0 219 0 0.139346 0.990244<11.4263 173.806 266.974 419.173 512.341 674.581> 342 0 424 0 0.139346 0.990244<11.4263 173.666 266.974 419.033 512.341 674.581>
LayerCount: 2
Fore
SplineSet
255 253 m 1
 378 253 l 1
 400 415 l 1
 277 415 l 1
 255 253 l 1
137 0 m 1
 162 172 l 1
 38 172 l 1
 49 253 l 1
 173 253 l 1
 196 415 l 1
 72 415 l 1
 83 496 l 1
 207 496 l 1
 231 668 l 1
 313 668 l 1
 289 496 l 1
 412 496 l 1
 436 668 l 1
 518 668 l 1
 494 496 l 1
 617 496 l 1
 606 415 l 1
 482 415 l 1
 460 253 l 1
 583 253 l 1
 572 172 l 1
 448 172 l 1
 424 0 l 1
 342 0 l 1
 366 172 l 1
 243 172 l 1
 219 0 l 1
 137 0 l 1
EndSplineSet
EndChar

StartChar: dollar
Encoding: 36 36 123
Width: 594
GlyphClass: 1
Flags: W
HStem: -11 80<197.625 267 317 399.991> 600 79<193.236 267 317 384.506>
VStem: 47 96<445.071 557.145> 267 50<-87 -12 69 297 398 599 676.881 742> 457 97<119.858 241.637>
DStem2: 252 401 231 315 0.973748 -0.227629<-93.3994 15.2891 86.9671 208.952>
LayerCount: 2
Fore
SplineSet
317 68 m 1
 343.75750882 69.5974632131 457 82.1392638439 457 181.127598817 c 0
 457 214.666666667 444 240.5 413.668536071 260.33211103 c 0
 392 274.5 358.333333333 287.666666667 317 297 c 1
 317 68 l 1
267 600 m 1
 254.686634253 599.052818019 143 588.115359572 143 502.41318971 c 0
 143 469.638699451 159.333883717 419.130327099 252 401 c 2
 267 398 l 1
 267 600 l 1
554 190.300447015 m 0
 554 51.6194468531 428.052359329 -6.71179241292 317 -12 c 1
 317 -87 l 1
 267 -87 l 1
 267 -11 l 1
 198.003108429 -4.58168450507 85.1439435622 25.0142312534 40 146 c 1
 127 172 l 1
 149.666666667 112.666666667 196.333333333 78.3333333333 267 69 c 1
 267 308 l 1
 231 315 l 2
 169.795571515 326.974779486 47 367.287522833 47 494.305631687 c 0
 47 628.727805354 184.528671495 672.656051653 267 679 c 1
 267 742 l 1
 317 742 l 1
 317 679 l 1
 374.598993843 674.701567624 476.592319698 652.787612065 523 555 c 1
 437 530 l 1
 425.038665469 550.145405525 392.122987397 590.414515726 317 599 c 1
 317 386 l 1
 329 383 l 2
 458.497015476 348.921838033 554 311.062480881 554 190.300447015 c 0
EndSplineSet
EndChar

StartChar: percent
Encoding: 37 37 124
Width: 927
GlyphClass: 1
Flags: W
HStem: -12 74<643.746 771.531> 0 21G<186 288.012> 277 75<643.846 771.435> 317 74<156.81 283.191> 606 74<154.612 282.634> 648 20G<639.988 742>
VStem: 38 74<434.705 563.016> 186 88<0 88> 327 74<435.119 562.808> 526 74<106.648 233.287> 654 88<580 668> 815 74<106.831 233.098>
DStem2: 186 0 274 0 0.573791 0.819001<50.4936 815.627>
LayerCount: 2
Fore
SplineSet
600 170.08136143 m 0xa3f0
 600 111.899764801 646.249754778 62 707.208272922 62 c 0
 767.721142434 62 815 111.17282865 815 170.077894923 c 0
 815 229.266101858 767.265536808 277 707.209542392 277 c 0
 646.703151699 277 600 228.547446281 600 170.08136143 c 0xa3f0
889 169.999317261 m 0
 889 70.7045858335 809.846466519 -12 707.898281782 -12 c 0
 607.000315076 -12 526 69.0094018535 526 170.001711088 c 0
 526 270.999684924 607.009401854 352 707.900653521 352 c 0
 809.849965307 352 889 269.291854123 889 169.999317261 c 0
112 498.972951374 m 0
 112 438.278857566 161.17282865 391 220.077894923 391 c 0
 279.266101858 391 327 438.734463192 327 498.790457608 c 0
 327 559.296848301 278.547446281 606 219.211550448 606 c 0x1bf0
 159.418606324 606 112 558.574593922 112 498.972951374 c 0
186 0 m 1x47f0
 654 668 l 1
 742 668 l 1
 274 0 l 1
 186 0 l 1x47f0
401 499.011410121 m 0
 401 397.832823601 320.164777767 317 219.911260988 317 c 0
 120.704585834 317 38 396.153533481 38 499.014024107 c 0
 38 602.88721512 122.341118293 680 219.925766627 680 c 0x1bf0
 318.590797894 680 401 601.170295134 401 499.011410121 c 0
EndSplineSet
EndChar

StartChar: ampersand
Encoding: 38 38 125
Width: 705
GlyphClass: 1
Flags: W
HStem: -12 74<188.532 362.206> 0 21G<557.149 695> 606 74<245.52 387.497>
VStem: 38 90<117.633 260.96> 135 90<479.736 583.604> 409 82<472.279 584.011> 521 87<252.953 361> 576 119<0 119>
DStem2: 281.552 435.812 209 387 0.688248 -0.725475<-100.74 -14.5222 100.62 298.691 399.271 518.824>
LayerCount: 2
Fore
SplineSet
128 188.706886008 m 0xbc
 128 106.415854754 195.581721796 62 269.77514531 62 c 0
 311.408430045 62 381.577398964 75.9858399885 440 143 c 1
 259 334 l 1
 226.690119185 322.691541715 128 288.15 128 188.706886008 c 0xbc
322.903265193 606 m 0
 304.503333864 606 225 603.122681171 225 540.988919001 c 0
 225 523.506559991 231.294048832 487.427733632 281.551948921 435.811511919 c 0
 288.833333333 428.333333333 296.666666667 419.666666667 300 415 c 1
 348.539950708 432.831002301 409 467.738278865 409 531.081008357 c 0
 409 558.6959971 397.508818326 606 322.903265193 606 c 0
494 87 m 1
 448.369499449 38.1859761552 374.367215522 -12 265.390388536 -12 c 0
 119.823080097 -12 38 77.5450869353 38 184.84364903 c 0
 38 248.624268736 66.9111581214 339.021949496 209 387 c 1
 135.230623398 469.44812679 135 518.547502296 135 524.153592927 c 0
 135 631.067783804 218.879116161 680 312.639910061 680 c 0
 351.358718277 680 491 671.655577297 491 537.663689319 c 0
 491 453.435695767 435.821521135 398.570315315 351 363 c 1
 487 219 l 1
 504.157756766 259.91465075 516.963883232 307.185109761 521 361 c 1
 608 361 l 1xbe
 604.350926849 311.737512463 591.042605532 232.07100922 546 157 c 1
 695 0 l 1
 576 0 l 1x7d
 494 87 l 1
EndSplineSet
EndChar

StartChar: quotesingle
Encoding: 39 39 126
Width: 160
GlyphClass: 1
Flags: W
HStem: 447 221<54 106>
VStem: 54 52<447 557.5>
LayerCount: 2
Fore
SplineSet
54 447 m 1
 40 668 l 1
 120 668 l 1
 106 447 l 1
 54 447 l 1
EndSplineSet
EndChar

StartChar: parenleft
Encoding: 40 40 127
Width: 300
GlyphClass: 1
Flags: W
HStem: -161 21G<160.068 265> 648 20G<114.801 235>
VStem: 50 74<101.992 455.058> 189 76<-161 -85>
LayerCount: 2
Fore
SplineSet
124 279.826883878 m 0
 124 161.645035115 149.555174203 -4.54188082817 265 -161 c 1
 189 -161 l 1
 131.135750179 -78.8159930072 50 73.3129039791 50 277.8979767 c 0
 50 378.457778962 69.6025780514 523.364124882 160 668 c 1
 235 668 l 1
 204.117087416 623.881553451 124 489.080963085 124 279.826883878 c 0
EndSplineSet
EndChar

StartChar: parenright
Encoding: 41 41 128
Width: 300
GlyphClass: 1
Flags: W
HStem: -161 21G<35 175.157> 648 20G<66 166.719>
VStem: 35 77<-161 -84> 177 73<100.175 458.607>
LayerCount: 2
Fore
SplineSet
250 282.017265503 m 0
 250 203.009052054 238.313373529 21.0398618507 112 -161 c 1
 35 -161 l 1
 98.5456967788 -74.8788583129 177 73.1303160006 177 273.256960139 c 0
 177 343.348839846 167.376293762 526.073188733 66 668 c 1
 141 668 l 1
 192.437276013 587.169994837 250 457.364260926 250 282.017265503 c 0
EndSplineSet
EndChar

StartChar: asterisk
Encoding: 42 42 129
Width: 433
GlyphClass: 1
Flags: W
HStem: 388 280
VStem: 187 57<562 668>
DStem2: 86 595 68 540 0.950549 -0.310575<0 105.916> 107 422 153 388 0.584802 0.811176<0 105.34> 261 508 215 474 0.590957 -0.806703<0.243887 106.607> 244 562 261 508 0.954146 0.29934<0.0561263 106.247>
LayerCount: 2
Fore
SplineSet
153 388 m 1
 107 422 l 1
 169 508 l 1
 68 540 l 1
 86 595 l 1
 187 562 l 1
 187 668 l 1
 244 668 l 1
 244 562 l 1
 345 595 l 1
 363 540 l 1
 261 508 l 1
 324 422 l 1
 278 388 l 1
 215 474 l 1
 153 388 l 1
EndSplineSet
EndChar

StartChar: plus
Encoding: 43 43 130
Width: 602
GlyphClass: 1
Flags: W
HStem: 0 21G<261 341> 208 80<53 261 341 549> 476 20G<261 341>
VStem: 261 80<0 208 288 496>
LayerCount: 2
Fore
SplineSet
261 0 m 1
 261 208 l 1
 53 208 l 1
 53 288 l 1
 261 288 l 1
 261 496 l 1
 341 496 l 1
 341 288 l 1
 549 288 l 1
 549 208 l 1
 341 208 l 1
 341 0 l 1
 261 0 l 1
EndSplineSet
EndChar

StartChar: comma
Encoding: 44 44 131
Width: 205
GlyphClass: 1
Flags: W
HStem: -133 250<92.9135 100>
VStem: 38 129<5.35938 100.055>
DStem2: 45 -133 100 -133 0.359367 0.933196<19.7652 130.74>
LayerCount: 2
Fore
SplineSet
102.790994328 117 m 0
 139.047627746 117 167 87.3439120012 167 53.3103981312 c 0
 167 45 165.333333333 36.6666666667 162 28 c 2
 100 -133 l 1
 45 -133 l 1
 92 -11 l 1
 62.2195219988 -5.82078643457 38 19.6365117499 38 52.3101744007 c 0
 38 88.0401837138 66.9625092112 117 102.790994328 117 c 0
EndSplineSet
EndChar

StartChar: hyphen
Encoding: 45 45 132
Width: 368
GlyphClass: 1
Flags: W
HStem: 208 81<38 330>
VStem: 38 292<208 289>
LayerCount: 2
Fore
SplineSet
38 208 m 1
 38 289 l 1
 330 289 l 1
 330 208 l 1
 38 208 l 1
EndSplineSet
EndChar

StartChar: period
Encoding: 46 46 133
Width: 205
GlyphClass: 1
Flags: W
HStem: -12 129<55.0581 150.354>
VStem: 38 129<5.05858 100.354>
LayerCount: 2
Fore
SplineSet
167 52.786761416 m 0
 167 17.6575289711 139.049057869 -12 102.790750726 -12 c 0
 66.9598162862 -12 38 16.9625092112 38 52.7909943284 c 0
 38 89.0476277456 67.6560879988 117 102.786702845 117 c 0
 138.352290193 117 167 88.3511535084 167 52.786761416 c 0
EndSplineSet
EndChar

StartChar: slash
Encoding: 47 47 134
Width: 377
GlyphClass: 1
Flags: W
HStem: 0 21G<15 109.784> 648 20G<267.216 362>
DStem2: 15 0 102 0 0.362716 0.9319<31.5563 716.815>
LayerCount: 2
Fore
SplineSet
15 0 m 1
 275 668 l 1
 362 668 l 1
 102 0 l 1
 15 0 l 1
EndSplineSet
EndChar

StartChar: braceleft
Encoding: 123 123 135
Width: 319
GlyphClass: 1
Flags: W
HStem: -161 71<197.205 285> 220 67<38 93.2434> 597 71<200.567 285>
VStem: 108 84<-84.3608 206.491 300.51 590.715>
CounterMasks: 1 e0
LayerCount: 2
Fore
SplineSet
192 -26 m 2
 192 -79.4370758202 201.678056596 -90 243 -90 c 2
 285 -90 l 1
 285 -161 l 1
 242 -161 l 2
 134.114236234 -161 108 -131.566726574 108 -25 c 2
 108 125 l 2
 108 212.525135142 77.2218995702 220 38 220 c 1
 38 287 l 1
 77.2249486424 287 108 294.47796536 108 382 c 2
 108 532 l 2
 108 636.954433087 132.139818037 668 242 668 c 2
 285 668 l 1
 285 597 l 1
 243 597 l 2
 202.404413697 597 192 586.206245119 192 533 c 2
 192 380 l 2
 192 337.889741009 188.524519753 274.979033265 113 254 c 1
 113 253 l 1
 183.927622525 234.334836178 192 179.265605868 192 127 c 2
 192 -26 l 2
EndSplineSet
EndChar

StartChar: bar
Encoding: 124 124 136
Width: 233
GlyphClass: 1
Flags: W
HStem: -161 21G<76 157> 648 20G<76 157>
VStem: 76 81<-161 668>
LayerCount: 2
Fore
SplineSet
76 -161 m 1
 76 668 l 1
 157 668 l 1
 157 -161 l 1
 76 -161 l 1
EndSplineSet
EndChar

StartChar: braceright
Encoding: 125 125 137
Width: 319
GlyphClass: 1
Flags: W
HStem: -161 71<34 121.796> 220 67<226.557 281> 597 71<34 118.432>
VStem: 127 84<-84.3589 205.675 302.518 590.716>
CounterMasks: 1 e0
LayerCount: 2
Fore
SplineSet
211 -25 m 2
 211 -131.561815447 184.890516849 -161 77 -161 c 2
 34 -161 l 1
 34 -90 l 1
 76 -90 l 2
 117.323446018 -90 127 -79.4352293201 127 -26 c 2
 127 127 l 2
 127 172.550895242 132.311102206 233.084081677 206 253 c 1
 206 254 l 1
 130.466532445 274.981518765 127 337.90775247 127 380 c 2
 127 533 l 2
 127 586.205200299 116.59644407 597 76 597 c 2
 34 597 l 1
 34 668 l 1
 77 668 l 2
 186.857859484 668 211 636.956886321 211 532 c 2
 211 382 l 2
 211 293.532539502 244.371348801 287 281 287 c 1
 281 220 l 1
 244.370987274 220 211 213.4671054 211 125 c 2
 211 -25 l 2
EndSplineSet
EndChar

StartChar: asciitilde
Encoding: 126 126 138
Width: 555
GlyphClass: 1
Flags: W
HStem: 195 73<303.021 427.786> 249 74<127.753 263.478>
LayerCount: 2
Fore
SplineSet
515 297 m 1x80
 510.021084537 276.179080791 483.883203074 195 381.583676332 195 c 0x80
 298.148643764 195 247.629134013 249 181.735021424 249 c 0
 159.145736807 249 123.730784161 242.653920807 115 199 c 1
 40 221 l 1
 45.4478830502 243.782056392 71.9443239411 323 180.492799184 323 c 0x40
 270.939616619 323 317.398767219 268 374.953618591 268 c 0
 398.576787272 268 432.653126701 277.265633506 441 319 c 1
 515 297 l 1x80
EndSplineSet
EndChar

StartChar: exclamdown
Encoding: 161 161 139
Width: 281
GlyphClass: 1
Flags: W
HStem: -161 21G<96 185> 390 129<93.0581 188.354>
VStem: 76 129<407.059 502.354> 96 89<-161 127.667>
LayerCount: 2
Fore
SplineSet
96 -161 m 1xd0
 96 11 l 1
 114 311 l 1
 167 311 l 1
 185 11 l 1
 185 -161 l 1
 96 -161 l 1xd0
205 454.786761416 m 0xe0
 205 419.657528971 177.049057869 390 140.790750726 390 c 0
 104.959816286 390 76 418.962509211 76 454.790994328 c 0
 76 491.047627746 105.656087999 519 140.786702845 519 c 0
 176.352290193 519 205 490.351153508 205 454.786761416 c 0xe0
EndSplineSet
EndChar

StartChar: cent
Encoding: 162 162 140
Width: 500
GlyphClass: 1
Flags: W
HStem: -12 74<286 344.987> 425 76<193.666 236 286 355.335>
VStem: 38 91<141.769 350.22> 236 50<-87 -10 67 425 504 571>
LayerCount: 2
Fore
SplineSet
236 425 m 1
 206.512479811 416.957949039 129 382.981385094 129 245.816940886 c 0
 129 195.333333333 139.5 154.166666667 162.978953598 120.997986188 c 0
 181.5 94.8333333333 206.666666667 75.6666666667 236 67 c 1
 236 425 l 1
467 99 m 1
 442.391415541 54.7045479739 384.747677476 -3.90592807574 286 -12 c 1
 286 -87 l 1
 236 -87 l 1
 236 -10 l 1
 108.427686343 6.73079523373 38 113.545256925 38 244.836924602 c 0
 38 380.350620347 113.03009061 482.856898615 236 501 c 1
 236 571 l 1
 286 571 l 1
 286 504 l 1
 329.333333333 502.666666667 366.166666667 491.166666667 400.10096854 466.927879614 c 0
 426.833333333 447.833333333 449.666666667 422.333333333 465 393 c 1
 388 365 l 1
 366.666666667 403 332.666666667 424.666666667 286 430 c 1
 286 62 l 1
 309.031067481 64.5590074978 359.42112211 76.0352035162 390 127 c 1
 467 99 l 1
EndSplineSet
EndChar

StartChar: sterling
Encoding: 163 163 141
Width: 586
GlyphClass: 1
Flags: W
HStem: -12 78<327.469 435.013> 26 76<195.088 339.414> 318 51<70 156 272 453> 609 71<247.021 414.143>
VStem: 112 89<424.7 565.021> 202 88<160.949 314.872>
LayerCount: 2
Fore
SplineSet
239.793683059 26 m 0x7c
 194.321374394 26 150.150899096 13.1748507564 101 -12 c 1xbc
 73 55 l 1
 101.038448105 67.0164777594 202 117.797169162 202 224.717216181 c 0
 202 245.196140504 198.296161705 277.799663115 179 318 c 1
 70 318 l 1
 70 369 l 1
 156 369 l 1
 116.425404291 453.096015883 112 475.960132051 112 502.293314748 c 0
 112 671.691624332 295.132064997 680 334.592269131 680 c 0
 385.274037762 680 508.803252556 666.29430718 546 541 c 1
 463 516 l 1
 450.897084984 564.411660066 416.10472907 609 333.156014843 609 c 0
 301.71095097 609 201 602.592229497 201 499.139811847 c 0
 201 470.161937818 208.901843941 451.55502718 249 369 c 1
 453 369 l 1
 453 318 l 1
 272 318 l 1
 284.174789066 291.215464054 290 264.799312184 290 239.436575008 c 0
 290 198.077059747 274.509326738 137.127410773 194 90 c 1
 214.161467807 98.3017808618 233.693707148 102 255.107447326 102 c 0x7c
 321.918368294 102 344.914965039 66 435.012698413 66 c 1
 435.012698413 66 472.071428571 66 531 91 c 1
 556 18 l 1
 509.454072574 -2.12796861666 467.998564775 -12 426.947188787 -12 c 0xbc
 346.40633051 -12 318.065891713 26 239.793683059 26 c 0x7c
EndSplineSet
EndChar

StartChar: currency
Encoding: 164 164 142
Width: 580
GlyphClass: 1
Flags: W
HStem: 103 75<215.936 365.347> 463 76<215.378 364.741>
VStem: 72 76<245.94 395.237> 432 76<245.147 396.582>
DStem2: 89 558 53 522 0.7063 -0.707913<0.0580521 96.6161 523.641 619.483> 53 119 89 84 0.7063 0.707913<0.649861 96.7062 523.936 620.075>
LayerCount: 2
Fore
SplineSet
148 320.886119266 m 0
 148 241.353376157 212.10733508 178 290.911314111 178 c 0
 371.744934391 178 432 244.658805963 432 320.918992891 c 0
 432 398.225643356 370.079914701 463 290.92385975 463 c 0
 213.752282989 463 148 401.432775866 148 320.886119266 c 0
290.754680168 103 m 0
 255.721130932 103 204.572067484 110.994748263 155 149 c 1
 89 84 l 1
 53 119 l 1
 119 185 l 1
 87.6666666667 225.666666667 72 271 72 321.934155457 c 0
 72 337.561211642 73.4747307349 398.598573535 119 456 c 1
 53 522 l 1
 89 558 l 1
 155 492 l 1
 183.060796279 514.448637023 227.947846099 539 289.373702521 539 c 0
 322.062727581 539 376.609969276 532.046921978 425 492 c 1
 491 558 l 1
 527 522 l 1
 461 456 l 1
 480.288176366 432.693453557 508 387.614578437 508 321.750584133 c 0
 508 286.944841113 500.261250386 234.076562982 461 185 c 1
 527 119 l 1
 491 84 l 1
 425 149 l 1
 402.411023631 131.084604949 356.416951403 103 290.754680168 103 c 0
EndSplineSet
EndChar

StartChar: yen
Encoding: 165 165 143
Width: 595
GlyphClass: 1
Flags: W
HStem: 0 21G<251 345> 86 51<101 251 345 494> 223 51<101 242 353 494> 648 20G<10 124.455 470.607 585>
VStem: 251 94<0 86 137 223>
DStem2: 113 668 10 668 0.507402 -0.861709<0 372.202> 298 345 353 274 0.507402 0.861709<0 371.694>
LayerCount: 2
Fore
SplineSet
251 0 m 1
 251 86 l 1
 101 86 l 1
 101 137 l 1
 251 137 l 1
 251 223 l 1
 101 223 l 1
 101 274 l 1
 242 274 l 1
 10 668 l 1
 113 668 l 1
 298 345 l 1
 482 668 l 1
 585 668 l 1
 353 274 l 1
 494 274 l 1
 494 223 l 1
 345 223 l 1
 345 137 l 1
 494 137 l 1
 494 86 l 1
 345 86 l 1
 345 0 l 1
 251 0 l 1
EndSplineSet
EndChar

StartChar: brokenbar
Encoding: 166 166 144
Width: 233
GlyphClass: 1
Flags: W
HStem: -161 21G<76 157> 648 20G<76 157>
VStem: 76 81<-161 149 358 668>
LayerCount: 2
Fore
SplineSet
76 -161 m 1
 76 149 l 1
 157 149 l 1
 157 -161 l 1
 76 -161 l 1
76 358 m 1
 76 668 l 1
 157 668 l 1
 157 358 l 1
 76 358 l 1
EndSplineSet
EndChar

StartChar: section
Encoding: 167 167 145
Width: 530
GlyphClass: 1
Flags: W
HStem: -173 70<187.772 333.037> 610 70<182.894 328.738>
VStem: 31 84<240.23 338.536> 76 86<538.724 587.874> 363 86<-72.7139 -16.253> 416 84<179.21 238.835>
DStem2: 201 195 160 124 0.879543 -0.475819<-105.021 154.658> 257 456 218 387 0.88025 -0.47451<-19.8904 228.267>
LayerCount: 2
Fore
SplineSet
218 387 m 1xe4
 203.986461214 382.912717854 115 354.573806732 115 284.081797836 c 0
 115 262.686199054 123.197719462 237.791254296 201 195 c 2
 323 129 l 1
 355.431254868 142.354046122 416 174.224633753 416 238.83531746 c 1
 416 238.83531746 416 280.8125 346 318 c 2
 218 387 l 1xe4
449 -28.0515387113 m 0xc8
 449 -133.388200195 347.106531983 -173 262.209773812 -173 c 0
 215.183674071 -173 101.47913886 -160.845970582 67 -44 c 1
 150 -20 l 1
 171.231941422 -102.804571547 241.396219521 -103 248.982886114 -103 c 0
 286.42165166 -103 363 -98.2408560833 363 -16.2530071356 c 1
 363 -16.2530071356 363 23.7111111111 254 77 c 2
 160 124 l 2
 88.1732593535 160.590981084 31 213.446818579 31 286.051063786 c 0xe8
 31 377.888778984 122.476820794 414.686308831 151 424 c 1
 133.269421232 436.227985357 76 475.724137931 76 548.474735503 c 0
 76 652.234199116 192.494413754 680 259.053580797 680 c 0
 301.00310962 680 400.236455954 668.970682913 439 574 c 1
 358 550 l 1
 348.649442252 574.93482066 323.04760282 610 255.536627813 610 c 0
 233.804781697 610 162 606.366538638 162 538.723684211 c 1
 162 538.723684211 162 505.875 257 456 c 2
 371 398 l 2
 407 379.333333333 437.5 357.333333333 458.376568084 336.178411009 c 0
 487.5 306.666666667 500 276.666666667 500 242.879103957 c 0xd4
 500 209.106950509 487.511398978 136.10501555 385 91 c 1
 403.358154783 77.0731239579 449 42.4482758621 449 -28.0515387113 c 0xc8
EndSplineSet
EndChar

StartChar: dieresis
Encoding: 168 168 146
Width: 425
GlyphClass: 1
Flags: W
HStem: 590 107<63.9794 150.127 275.48 361.122>
VStem: 53 108<601.16 685.953> 265 107<600.927 686.353>
LayerCount: 2
Fore
SplineSet
372 644.088480157 m 0
 372 615.626259945 350.165162993 590 318.795622514 590 c 0
 287.914811136 590 265 614.833979524 265 644.080225367 c 0
 265 673.622154511 288.380496733 697 318.792294814 697 c 0
 349.701354703 697 372 672.851404367 372 644.088480157 c 0
161 644.088480157 m 0
 161 615.626259945 139.165162993 590 107.867268127 590 c 0
 77.3554278934 590 53 614.355204236 53 644.074918534 c 0
 53 674.085188864 77.8339795237 697 107.868683402 697 c 0
 138.701354703 697 161 672.851404367 161 644.088480157 c 0
EndSplineSet
EndChar

StartChar: copyright
Encoding: 169 169 147
Width: 798
GlyphClass: 1
Flags: W
HStem: -12 62<295.3 502.704> 150 59<342.048 464.84> 473 58<340.164 459.551> 618 62<295.296 502.7>
VStem: 53 62<230.296 437.7> 227 76<253.144 432.201> 683 62<230.3 437.704>
LayerCount: 2
Fore
SplineSet
550 230 m 1
 532.986229403 199.554305247 491.407799032 150 403.340668203 150 c 0
 350.644729655 150 227 167.742220999 227 333.177546163 c 0
 227 384.513661814 238.905979211 531 398.786187795 531 c 0
 445.198985918 531 511.23752067 518.655223994 548 449 c 1
 481 424 l 1
 463.666666667 456.666666667 437 473 401.99734097 473 c 0
 370.244022824 473 303 459.558399612 303 345.72940149 c 0
 303 304.970371099 311.621752435 209 402.418259549 209 c 0
 428.615270769 209 464.754375289 216.989183248 484 254 c 1
 550 230 l 1
115 334.000271965 m 0
 115 176.332025826 241.330579093 50 398.999728035 50 c 0
 556.667974174 50 683 176.330579093 683 333.999728035 c 0
 683 491.667974174 556.669420907 618 399.000271965 618 c 0
 241.332025826 618 115 491.669420907 115 334.000271965 c 0
745 334.00286405 m 0
 745 142.80807037 590.206907674 -12 399.00286405 -12 c 0
 207.80807037 -12 53 142.793092326 53 333.99713595 c 0
 53 525.19192963 207.793092326 680 398.99713595 680 c 0
 590.19192963 680 745 525.206907674 745 334.00286405 c 0
EndSplineSet
EndChar

StartChar: questiondown
Encoding: 191 191 148
Width: 520
GlyphClass: 1
Flags: W
HStem: -174 70<179.407 342.777> 390 129<244.646 339.942>
VStem: 49 88<-64.2972 62.5176> 228 129<406.646 501.941> 251 86<220.081 316> 397 82<-48.5902 -16.0366>
LayerCount: 2
Fore
SplineSet
479 -18 m 1xec
 458.529677709 -116.257546996 371.04993982 -174 260.456940356 -174 c 0
 221.710247261 -174 133.323923334 -166.91223612 81.6433729055 -105.065020034 c 0
 59.1666666667 -78.1666666667 49 -47.3333333333 49 -11.408119448 c 0
 49 53.9431167293 82.6424390191 119.059638077 194.987822972 191.980140562 c 0
 232.622127778 216.407600958 251 232.79535193 251 282 c 2
 251 316 l 1
 337 316 l 1
 337 279 l 2
 337 204.639949876 304.998134365 172.94614103 235.585914972 127.995851011 c 0
 199.821428571 104.83531746 137 66.4444444444 137 -4.06664616189 c 0
 137 -73.1317148738 197.271200297 -104 262.83202066 -104 c 0
 304.714243196 -104 350.758479422 -91.4025342971 379.036660868 -44.2722318866 c 0
 388 -29.3333333333 394.333333333 -12.3333333333 397 5 c 1
 479 -18 l 1xec
357 454.209005672 m 0xf4
 357 417.952372254 327.343912001 390 292.213297155 390 c 0
 256.647709807 390 228 418.648846492 228 454.213238584 c 0
 228 489.342471029 255.950942131 519 292.209249274 519 c 0
 328.040183714 519 357 490.037490789 357 454.209005672 c 0xf4
EndSplineSet
EndChar

StartChar: germandbls
Encoding: 223 223 149
Width: 597
GlyphClass: 1
Flags: W
HStem: -12 74<302 410.835> 0 21G<76 160> 330 76<279 384.648> 611 69<213.391 388.902>
VStem: 76 84<0 553.398> 435 85<449.917 569.027> 469 90<116.493 270.38>
LayerCount: 2
Fore
SplineSet
520 518.902699731 m 0x7c
 520 425.919820286 455.6142387 391.067562527 420 376 c 1
 459.333333333 366 492.333333333 347.166666667 515.283030804 323.356355541 c 0
 545.666666667 291.833333333 559 251 559 198.573439396 c 0
 559 131.68725481 537.297545801 46.6290852532 432.134398865 7.43191230404 c 0
 398.333333333 -5.16666666667 358.666666667 -12 316 -12 c 2
 302 -12 l 1
 279 65 l 1
 293 63 306 62 318.808573894 62 c 0
 367.508400179 62 469 76.4561707034 469 193.95178972 c 0xba
 469 269.10354312 427.479269415 330 291 330 c 2
 279 330 l 1
 279 406 l 1
 285 406 l 2
 317.998231143 406 435 412.915613123 435 508.02049921 c 0
 435 567.565577916 389.13530441 611 298.136388239 611 c 0
 196.588961837 611 160 556.912183405 160 453 c 2
 160 0 l 1
 76 0 l 1
 76 453 l 2
 76 649.673879841 201.235082412 680 301.386778832 680 c 0
 355.121572543 680 442.977703054 671.270057096 491.876060128 606.977772795 c 0
 511 581.833333333 520 553.666666667 520 518.902699731 c 0x7c
EndSplineSet
EndChar

StartChar: AE
Encoding: 198 198 150
Width: 998
GlyphClass: 1
Flags: W
HStem: 0 81<600 960> 145 81<279 506> 303 81<600 866> 587 81<600 960>
VStem: 10 109<0 109> 506 94<81 145 226 303 384 546>
DStem2: 10 0 119 0 0.588316 0.808631<64.1264 242.563 341.008 341.008>
AnchorPoint: "Anchor-0" 659 668 basechar 0
LayerCount: 2
Fore
SplineSet
279 226 m 1
 506 226 l 1
 506 546 l 1
 279 226 l 1
10 0 m 1
 496 668 l 1
 960 668 l 1
 960 587 l 1
 600 587 l 1
 600 384 l 1
 866 384 l 1
 866 303 l 1
 600 303 l 1
 600 81 l 1
 960 81 l 1
 960 0 l 1
 506 0 l 1
 506 145 l 1
 223 145 l 1
 119 0 l 1
 10 0 l 1
EndSplineSet
EndChar

StartChar: florin
Encoding: 279 402 151
Width: 321
GlyphClass: 1
Flags: W
HStem: -173 80<25.8593 64.3237> 429 67<25 109 193 296> 635 71<201.361 296>
VStem: 109 84<-81.0844 429 496 628.957>
LayerCount: 2
Fore
SplineSet
193 -27 m 2
 193 -93.6723311398 173.379309153 -173 78.7239855984 -173 c 0
 61.0702238539 -173 43.3422230731 -170.240635164 25 -165 c 1
 25 -90 l 1
 35 -92 43.6666666667 -93 64.3236714976 -93 c 1
 64.3236714976 -93 109 -93 109 -24 c 2
 109 429 l 1
 25 429 l 1
 25 496 l 1
 109 496 l 1
 109 570 l 2
 109 675.558524253 134.516178424 706 242 706 c 2
 296 706 l 1
 296 635 l 1
 244 635 l 2
 203.904614043 635 193 623.302896118 193 571 c 2
 193 496 l 1
 296 496 l 1
 296 429 l 1
 193 429 l 1
 193 -27 l 2
EndSplineSet
EndChar

StartChar: integral
Encoding: 280 8747 152
Width: 458
GlyphClass: 1
Flags: W
HStem: -173 112<67.6706 143.449> 569 112<313.996 390.338>
VStem: 53 99<-126.601 -70.3328> 189 84<-83.2724 603.228> 305 100<577.576 633.82>
LayerCount: 2
Fore
SplineSet
273 131.088147022 m 0
 273 -20.9858828935 267.446810551 -173 136.601060514 -173 c 0
 106.992289477 -173 53 -165.215953122 53 -115.756170836 c 0
 53 -85.2063526403 73.5989272143 -61 103.672559842 -61 c 0
 136.053910052 -61 152 -89.063865015 152 -112 c 2
 152 -119.5 l 2
 152 -121.833333333 151.333333333 -124.333333333 150 -127 c 1
 160.808193669 -125.198634389 189 -120.5 189 101.52548196 c 0
 189 185.157266811 185 247.842733189 185 387.571930453 c 0
 185 521.461795122 188.672662904 681 321.637493513 681 c 0
 351.007710523 681 405 673.215953122 405 622.758253199 c 0
 405 590.740237085 383.259692527 569 354.610758708 569 c 0
 322.076344451 569 305 597.037115578 305 619.551644761 c 0
 305 625 306 630.333333333 308 635 c 1
 297.224677716 633.204112953 269 628.5 269 405.714468556 c 0
 269 321.845272023 273 260.154727977 273 131.088147022 c 0
EndSplineSet
EndChar

StartChar: approxequal
Encoding: 281 8776 153
Width: 581
GlyphClass: 1
Flags: W
HStem: 97 73<316.021 440.786> 151 74<140.753 276.478> 283 73<318.422 440.98> 337 74<142.025 275.883>
VStem: 53 75<120.947 137.295 306.947 322.913> 454 74<183.774 201.081 369.929 387.081>
LayerCount: 2
Fore
SplineSet
194.735021424 151 m 0x4c
 172.145736807 151 136.730784161 144.653920807 128 101 c 1
 53 123 l 1
 58.4478830502 145.782056392 84.9443239411 225 193.492799184 225 c 0x4c
 283.939616619 225 330.398767219 170 387.953618591 170 c 0
 411.576787272 170 445.653126701 179.265633506 454 221 c 1
 528 199 l 1
 523.021084537 178.179080791 496.883203074 97 394.583676332 97 c 0x8c
 311.148643764 97 260.629134013 151 194.735021424 151 c 0x4c
194.735021424 337 m 0x1c
 172.145736807 337 136.730784161 330.653920807 128 287 c 1
 53 309 l 1
 60.0574325496 336.05349144 88.9119651444 411 195.232916663 411 c 0x1c
 286.313225919 411 331.775157919 356 389.255267007 356 c 0
 413.308634684 356 445.726235123 365.631175617 454 407 c 1
 528 385 l 1
 523.021084537 364.179080791 496.883203074 283 394.583676332 283 c 0x2c
 311.148643764 283 260.629134013 337 194.735021424 337 c 0x1c
EndSplineSet
EndChar

StartChar: notequal
Encoding: 282 8800 154
Width: 602
GlyphClass: 1
Flags: W
HStem: 0 21G<77 191.05> 121 79<53 162 317 549> 307 80<53 292 448 549> 476 20G<410.872 524>
VStem: 77 100<0 100> 425 99<397 496>
DStem2: 77 0 177 0 0.574348 0.818611<57.4348 147.872 301.566 374.798 529.886 605.904>
LayerCount: 2
Fore
SplineSet
77 0 m 1
 162 121 l 1
 53 121 l 1
 53 200 l 1
 218 200 l 1
 292 307 l 1
 53 307 l 1
 53 387 l 1
 348 387 l 1
 425 496 l 1
 524 496 l 1
 448 387 l 1
 549 387 l 1
 549 307 l 1
 392 307 l 1
 317 200 l 1
 549 200 l 1
 549 121 l 1
 262 121 l 1
 177 0 l 1
 77 0 l 1
EndSplineSet
EndChar

StartChar: lessequal
Encoding: 283 8804 155
Width: 579
GlyphClass: 1
Flags: W
HStem: 0 80<53 526> 100 90<436 526> 414 91<435 526>
VStem: 53 105<214.5 389.5>
LayerCount: 2
Fore
SplineSet
53 0 m 1
 53 80 l 1
 526 80 l 1
 526 0 l 1
 53 0 l 1
526 100 m 1
 53 267 l 1
 53 337 l 1
 526 505 l 1
 526 414 l 1
 158 302 l 1
 526 190 l 1
 526 100 l 1
EndSplineSet
EndChar

StartChar: greaterequal
Encoding: 284 8805 156
Width: 579
GlyphClass: 1
Flags: W
HStem: 0 80<53 526> 100 90<53 143> 414 91<53 144>
VStem: 421 105<214.5 389.5>
LayerCount: 2
Fore
SplineSet
53 0 m 1
 53 80 l 1
 526 80 l 1
 526 0 l 1
 53 0 l 1
53 100 m 1
 53 190 l 1
 421 302 l 1
 53 414 l 1
 53 505 l 1
 526 337 l 1
 526 267 l 1
 53 100 l 1
EndSplineSet
EndChar

StartChar: lozenge
Encoding: 285 9674 157
Width: 561
GlyphClass: 1
Flags: W
VStem: 53 87<271.5 358.5> 421 87<271.5 358.5>
DStem2: 53 315 140 315 0.506632 0.862163<44.077 321.569> 140 315 53 315 0.506632 -0.862163<0 277.492> 281 703 281 554 0.504977 -0.863133<128.607 405.592> 281 76 281 -73 0.504977 0.863133<0 276.986>
LayerCount: 2
Fore
SplineSet
281 76 m 1
 421 315 l 1
 281 554 l 1
 140 315 l 1
 281 76 l 1
281 -73 m 1
 53 315 l 1
 281 703 l 1
 508 315 l 1
 281 -73 l 1
EndSplineSet
EndChar

StartChar: summation
Encoding: 286 8721 158
Width: 587
GlyphClass: 1
Flags: W
HStem: -161 81<154 534> 587 81<154 534>
DStem2: 154 587 53 587 0.594187 -0.804327<0 353.998> 53 -80 154 -80 0.593035 0.805177<59.8965 414.816>
LayerCount: 2
Fore
SplineSet
53 -161 m 1
 53 -80 l 1
 299 254 l 1
 53 587 l 1
 53 668 l 1
 534 668 l 1
 534 587 l 1
 154 587 l 1
 399 254 l 1
 154 -80 l 1
 534 -80 l 1
 534 -161 l 1
 53 -161 l 1
EndSplineSet
EndChar

StartChar: minus
Encoding: 287 8722 159
Width: 602
GlyphClass: 1
Flags: W
HStem: 209 79<53 549>
LayerCount: 2
Fore
SplineSet
53 209 m 1
 53 288 l 1
 549 288 l 1
 549 209 l 1
 53 209 l 1
EndSplineSet
EndChar

StartChar: uni2215
Encoding: 288 8725 160
Width: 598
GlyphClass: 1
Flags: W
HStem: 0 21G<15 128.991> 649 20G<469.009 583>
VStem: 15 100<0 100> 483 100<569 669>
DStem2: 15 0 115 0 0.573216 0.819405<57.3216 816.447>
LayerCount: 2
Fore
SplineSet
15 0 m 1
 483 669 l 1
 583 669 l 1
 115 0 l 1
 15 0 l 1
EndSplineSet
EndChar

StartChar: uni2219
Encoding: 289 8729 161
Width: 235
GlyphClass: 1
Flags: W
HStem: 191 129<69.3166 165.088>
VStem: 53 129<208.337 303.274>
LayerCount: 2
Fore
SplineSet
182 256.076108407 m 0
 182 221.367462688 153.457372705 191 114.845202122 191 c 0
 70.7483474642 191 53 230.607305717 53 257.361319901 c 0
 53 291.352290193 81.6488464916 320 117.246988489 320 c 0
 153.040183714 320 182 291.037490789 182 256.076108407 c 0
EndSplineSet
EndChar

StartChar: radical
Encoding: 290 8730 162
Width: 582
GlyphClass: 1
Flags: W
HStem: -161 21G<271.157 381.639> 145 80<53 159> 649 20G<437.516 529>
VStem: 441 88<581 669>
DStem2: 215 225 159 145 0.365088 -0.930973<54.033 281.519> 318 -37 378 -161 0.17899 0.983851<0 716.615>
LayerCount: 2
Fore
SplineSet
279 -161 m 1
 159 145 l 1
 53 145 l 1
 53 225 l 1
 215 225 l 1
 318 -37 l 1
 441 669 l 1
 529 669 l 1
 378 -161 l 1
 279 -161 l 1
EndSplineSet
EndChar

StartChar: infinity
Encoding: 291 8734 163
Width: 773
GlyphClass: 1
Flags: W
HStem: 104 76<159.004 283.693 533.864 613.556> 330 76<159.808 243.184 488.771 616.283>
VStem: 53 81<206.34 306.974> 639 81<206.341 306.975>
LayerCount: 2
Fore
SplineSet
435 256 m 1
 481.976002549 199.628796941 514.221915975 180 553.427009088 180 c 0
 607.218458295 180 639 216.951765459 639 258.364503733 c 0
 639 305.440398678 597.931935501 330 543.174838043 330 c 0
 530.372269556 330 496.304712428 328.657436952 435 256 c 1
134 258.363902743 m 0
 134 216.950604671 165.78272131 180 219.220579981 180 c 0
 262.679909663 180 297.260419427 204.439341645 339 256 c 1
 278.154845746 328.112775412 244.305336158 330 229.277924153 330 c 0
 175.06392519 330 134 305.437187943 134 258.363902743 c 0
533.863812458 104 m 1
 533.863812458 104 473.378378378 104 387 198 c 1
 364.333333333 173.333333333 339 151.5 317.881694635 137.16972136 c 0
 283 113.5 250.333333333 104 212.959858566 104 c 0
 116.760356993 104 53 166.942254302 53 253.687219129 c 0
 53 339.907680337 115.99163381 406 243.183556269 406 c 1
 243.183556269 406 305.628571429 406 387 317 c 1
 408.333333333 340.333333333 432.5 361 453.087072061 374.724714707 c 0
 486.5 397 518 406 555.469558244 406 c 0
 657.009007838 406 720 339.907074832 720 253.687405224 c 0
 720 166.944106973 656.241571668 104 533.863812458 104 c 1
EndSplineSet
EndChar

StartChar: uni03A9
Encoding: 292 937 164
Width: 687
GlyphClass: 1
Flags: W
HStem: 0 173<234.984 286 401 452.015> 0 81<50 201 486 637> 606 74<249.716 439.125>
VStem: 50 73<292.286 478.533> 201 85<81 143.038> 401 85<81 141.437> 564 73<292.149 477.584>
LayerCount: 2
Fore
SplineSet
123 384.789431978 m 0xbe
 123 284.671474831 189.123955851 199.795501573 286 173 c 1
 286 0 l 1xbe
 50 0 l 1
 50 81 l 1
 201 81 l 1
 201 130 l 1
 168.720701507 148.307661832 50 226.423103963 50 384.225089334 c 0
 50 551.436578028 183.301106726 680 344.028168275 680 c 0
 508.66416766 680 637 545.107121481 637 390.286325828 c 0
 637 346.566382329 626.765926644 208.663311948 486 130 c 1
 486 81 l 1
 637 81 l 1
 637 0 l 1x7e
 401 0 l 1
 401 173 l 1
 497.872153451 199.794425423 564 284.66750987 564 384.650847559 c 0
 564 506.99049312 464.99353485 606 344.010569154 606 c 0
 223.949531182 606 123 508.493710029 123 384.789431978 c 0xbe
EndSplineSet
EndChar

StartChar: estimated
Encoding: 293 8494 165
Width: 622
GlyphClass: 1
Flags: W
HStem: -12 32<229.101 391.437> 248 31<159 463> 472 32<230.977 391.92>
VStem: 53 106<133.325 248 279 339.191> 463 106<279 350.334>
LayerCount: 2
Fore
SplineSet
312.064073996 472 m 0
 275.268976742 472 213.104783637 463.497798061 159 413 c 1
 159 279 l 1
 463 279 l 1
 463 413 l 1
 437.57600869 436.729058556 387.007367198 472 312.064073996 472 c 0
514 87 m 1
 481.713555788 45.4888574417 414.13317088 -12 315.653576936 -12 c 0
 196.425555422 -12 53 72.2651219195 53 234.423929073 c 0
 53 368.942582462 151.698483685 504 307.934653087 504 c 0
 447.805065063 504 569 395.755214397 569 248 c 1
 159 248 l 1
 159 78 l 1
 184.352731763 55.1825414133 235.664374643 20 308.849112671 20 c 0
 344.931200572 20 420.374659801 28.5520352596 481 97 c 1
 514 87 l 1
EndSplineSet
EndChar

StartChar: partialdiff
Encoding: 294 8706 166
Width: 582
GlyphClass: 1
Flags: W
HStem: -12 73<218.126 364.571> 430 74<218.895 363.869> 598 82<142 308.403>
VStem: 53 89<144.256 345.984> 439 91<144.164 339.087>
LayerCount: 2
Fore
SplineSet
142 245.770895571 m 0
 142 97.40351753 239.870764138 61 290.791852743 61 c 0
 339.041910207 61 439 93.6846365922 439 245.749444843 c 0
 439 400.879530341 334.971442957 430 290.692159511 430 c 0
 243.411838594 430 142 396.79847455 142 245.770895571 c 0
530 289.015325418 m 0
 530 264.616692508 529 259.772196381 528.671713879 247.592497441 c 0
 526.612115868 171.179630539 504.411960838 61.3075286973 398.689445269 11.4384175796 c 0
 366.666666667 -3.66666666667 329.666666667 -12 292.869348871 -12 c 0
 192.121157163 -12 53 50.4684811473 53 246.613410073 c 0
 53 447.182486449 198.467830386 504 287.088546794 504 c 0
 306.308241603 504 381.937935863 501.327580171 423 450 c 1
 395.539521798 537.873530246 334.815766012 603.755694508 142 598 c 1
 142 680 l 1
 297.024758761 680 530 661.424505425 530 289.015325418 c 0
EndSplineSet
EndChar

StartChar: uni0394
Encoding: 295 916 167
Width: 759
GlyphClass: 1
Flags: W
HStem: 0 78<178 580> 660 20G<369.412 388.618>
DStem2: 53 0 178 78 0.4323 0.90173<124.372 589.991> 379 680 379 498 0.433377 -0.901213<164.021 629.639>
LayerCount: 2
Fore
SplineSet
178 78 m 1
 580 78 l 1
 379 498 l 1
 178 78 l 1
53 0 m 1
 379 680 l 1
 706 0 l 1
 53 0 l 1
EndSplineSet
EndChar

StartChar: product
Encoding: 296 8719 168
Width: 585
GlyphClass: 1
Flags: W
HStem: -161 21G<53 134 450 532> 587 81<134 450>
VStem: 53 81<-161 587> 450 82<-161 587>
LayerCount: 2
Fore
SplineSet
53 -161 m 1
 53 668 l 1
 532 668 l 1
 532 -161 l 1
 450 -161 l 1
 450 587 l 1
 134 587 l 1
 134 -161 l 1
 53 -161 l 1
EndSplineSet
EndChar

StartChar: pi
Encoding: 297 960 169
Width: 591
GlyphClass: 1
Flags: W
HStem: 0 74<471.576 551> 414 82<20 104 185 383 467 551>
VStem: 104 81<0 414> 383 84<78.2637 414>
LayerCount: 2
Fore
SplineSet
500 0 m 2
 405.748560966 0 383 22.175625653 383 124 c 2
 383 414 l 1
 185 414 l 1
 185 0 l 1
 104 0 l 1
 104 414 l 1
 20 414 l 1
 20 496 l 1
 551 496 l 1
 551 414 l 1
 467 414 l 1
 467 139 l 2
 467 82.7863217376 475.021779341 74 518 74 c 2
 551 74 l 1
 551 0 l 1
 500 0 l 2
EndSplineSet
EndChar

StartChar: hungarumlaut
Encoding: 298 733 170
Width: 414
GlyphClass: 1
Flags: W
HStem: 572 136
VStem: 53 308
LayerCount: 2
Fore
SplineSet
321.659004003 708 m 0
 343.238698398 708 361 690.238508715 361 664.536796537 c 1
 361 664.536796537 361 652.428571429 350 643 c 2
 269 572 l 1
 199 572 l 1
 295 695 l 2
 301.666666667 703.666666667 311 708 321.659004003 708 c 0
176.36721348 708 m 0
 198.529519558 708 215 691.528089948 215 664.536796537 c 1
 215 664.536796537 215 652.428571429 204 643 c 2
 123 572 l 1
 53 572 l 1
 149 695 l 2
 155.666666667 703.666666667 165 708 176.36721348 708 c 0
EndSplineSet
EndChar

StartChar: tilde
Encoding: 299 732 171
Width: 435
GlyphClass: 1
Flags: W
HStem: 575 63<226.733 320.68> 618 63<123.788 216.922>
VStem: 53 65<577 613.731>
LayerCount: 2
Fore
SplineSet
382 648.946897635 m 0xa0
 382 621.508844642 341.593764667 575 286.533546452 575 c 0xa0
 233.591054347 575 196.331426273 618 157.32419344 618 c 0
 135.333333333 618 121.333333333 604.333333333 118 577 c 1
 53 577 l 1
 59.4976279396 615.263808978 81.8828040187 681 159.709468241 681 c 0x60
 222.654343335 681 235.350178629 638 281.264845461 638 c 0
 326.642480171 638 317.059900781 680 350.588638219 680 c 0
 372.298190778 680 382 662.391732155 382 648.946897635 c 0xa0
EndSplineSet
EndChar

StartChar: endash
Encoding: 300 8211 172
Width: 480
GlyphClass: 1
InSpiro: 1
Flags: W
HStem: 208 79<41 439>
LayerCount: 2
Fore
SplineSet
41 208 m 1
 41 287 l 1
 439 287 l 1
 439 208 l 1
 41 208 l 1
EndSplineSet
EndChar

StartChar: emdash
Encoding: 301 8212 173
Width: 800
GlyphClass: 1
Flags: W
HStem: 208 79<41 759>
LayerCount: 2
Fore
SplineSet
41 208 m 1
 41 287 l 1
 759 287 l 1
 759 208 l 1
 41 208 l 1
EndSplineSet
EndChar

StartChar: trademark
Encoding: 302 8482 174
Width: 848
GlyphClass: 1
Flags: W
HStem: 292 92<512 676> 608 60<53 171 238 356>
VStem: 171 67<292 608> 393 67<292 571> 728 67<292 571>
DStem2: 501 668 460 571 0.311204 -0.950343<79.4239 298.839> 594 384 630 292 0.311204 0.950343<0 219.415>
LayerCount: 2
Fore
SplineSet
171 292 m 1
 171 608 l 1
 53 608 l 1
 53 668 l 1
 356 668 l 1
 356 608 l 1
 238 608 l 1
 238 292 l 1
 171 292 l 1
393 292 m 1
 393 668 l 1
 501 668 l 1
 594 384 l 1
 687 668 l 1
 795 668 l 1
 795 292 l 1
 728 292 l 1
 728 571 l 1
 630 292 l 1
 558 292 l 1
 460 571 l 1
 460 292 l 1
 393 292 l 1
EndSplineSet
EndChar

StartChar: uni2113
Encoding: 303 8467 175
Width: 450
GlyphClass: 1
Flags: W
HStem: -12 73<224.626 282.79> 610 70<216.637 298.065>
VStem: 53 151<138 227> 119 85<81.5124 188 344 600.24> 312 82<442.39 598.856>
DStem2: 53 227 119 188 0.790478 0.61249<0 28.2845 191.024 312.859>
LayerCount: 2
Fore
SplineSet
256.263911356 610 m 0xd8
 215.782304806 610 204 580.003278774 204 518 c 2
 204 344 l 1
 227.842296312 360.60445636 312 419.753660019 312 532.579062168 c 0
 312 573.348238527 301.011359336 610 256.263911356 610 c 0xd8
397 42 m 1
 380.682880563 27.101760514 331.173335673 -12 251.113570284 -12 c 0
 166.234501223 -12 119 31.9510141395 119 156 c 2
 119 188 l 1xd8
 53 138 l 1
 53 227 l 1xe8
 119 278 l 1
 119 507 l 2
 119 676.230862512 223.151083996 680 248.463663089 680 c 0
 364.838693262 680 394 600.331104247 394 527.682371071 c 0
 394 433.07247938 344.543431438 355.274158809 204 251 c 1xd8
 204 151 l 2xe8
 204 124.822553897 204 61 282.790242165 61 c 1
 282.790242165 61 313.6875 61 360 100 c 1
 397 42 l 1
EndSplineSet
EndChar

StartChar: Lslash
Encoding: 304 321 176
Width: 573
GlyphClass: 1
Flags: W
HStem: 0 81<204 563> 216 71<20 91> 434 71<313 384> 649 20G<110 204>
VStem: 110 94<81 270 397 669>
DStem2: 20 287 20 216 0.857909 0.513802<0 68.4771 214.373 387.808>
LayerCount: 2
Fore
SplineSet
110 0 m 1
 110 270 l 1
 20 216 l 1
 20 287 l 1
 110 340 l 1
 110 669 l 1
 204 669 l 1
 204 397 l 1
 384 505 l 1
 384 434 l 1
 204 326 l 1
 204 81 l 1
 563 81 l 1
 563 0 l 1
 110 0 l 1
EndSplineSet
EndChar

StartChar: lslash
Encoding: 305 322 177
Width: 237
GlyphClass: 1
Flags: W
HStem: 0 74<157.009 222> 365 71<151 222> 648 20G<68 152>
VStem: 68 154<26.5105 74 365 394> 68 84<79.1279 273 394 668>
LayerCount: 2
Fore
SplineSet
152 139 m 2xe8
 152 83.2253415758 160.716011149 74 204 74 c 2
 222 74 l 1
 222 0 l 1xf0
 186 0 l 2
 89.6964714329 0 68 24.6194382589 68 124 c 2
 68 273 l 1
 15 242 l 1
 15 312 l 1
 68 344 l 1
 68 668 l 1
 152 668 l 1
 152 394 l 1xe8
 222 436 l 1
 222 365 l 1xf0
 152 323 l 1
 152 139 l 2xe8
EndSplineSet
EndChar

StartChar: oslash
Encoding: 248 248 178
Width: 552
GlyphClass: 1
Flags: W
HStem: -12 74<201.892 345.842> 430 74<207.048 350.144>
VStem: 38 89<147.33 344.148> 424 90<146.484 348.918>
DStem2: 45 24 83 -9 0.648973 0.760811<0 65.0757 159.663 483.31 570.3 634.403>
AnchorPoint: "Anchor-0" 276 496 basechar 0
LayerCount: 2
Fore
SplineSet
178 103 m 1
 194.288367353 86.7116326468 227.060356135 62 271.60947919 62 c 0
 319.965348508 62 424 91.1153161939 424 249.455861879 c 0
 424 266.00026376 422.86421564 315.229788917 397 359 c 1
 178 103 l 1
280.962385855 430 m 0
 228.411838594 430 127 396.79847455 127 239.620238737 c 0
 127 232.743340936 127.194128356 187.611743287 148 146 c 1
 364 398 l 1
 348.860509485 411.545859934 320.14064463 430 280.962385855 430 c 0
514 244.293788149 m 0
 514 50.4869205935 374.900540775 -12 274.918118846 -12 c 0
 240.844518028 -12 178.028329658 -4.74265314928 125 40 c 1
 83 -9 l 1
 45 24 l 1
 89 77 l 1
 61.354475835 114.261358657 38 168.640474481 38 247.952527671 c 0
 38 441.513079406 177.099459225 504 277.936129366 504 c 0
 314.114560542 504 367.537054208 495.956379136 416 460 c 1
 457 507 l 1
 495 474 l 1
 454 425 l 1
 484.669597319 389.786758634 514 333.288756755 514 244.293788149 c 0
EndSplineSet
EndChar

StartChar: Oslash
Encoding: 216 216 179
Width: 727
GlyphClass: 1
Flags: W
HStem: -12 79<269.656 454.916> 599 81<274.214 458.067> 653 20G<599.175 640.375>
VStem: 50 96<206.536 459.439> 581 96<207.651 459.144>
DStem2: 65 27 103 -6 0.649047 0.760749<0 86.7641 186.561 669.115 766.742 849.068>
AnchorPoint: "Anchor-0" 364 668 basechar 0
LayerCount: 2
Fore
SplineSet
360.229045384 67 m 0x98
 472.652492764 67 581 147.907132022 581 332.115437164 c 0
 581 386.14013256 571.680659834 449.110944266 538 503 c 1
 217 127 l 1
 255.666666667 87 304.333333333 67 360.229045384 67 c 0x98
366.44470164 599 m 0xd8
 265.456931652 599 146 531.791759433 146 333.310602435 c 0
 146 267 159.333333333 212.333333333 186 169 c 1
 506 543 l 1
 467.333333333 580.333333333 419.666666667 599 366.44470164 599 c 0xd8
677 334.556511096 m 0
 677 145.703261231 567.85386022 -12 365.193053362 -12 c 0
 308.649127544 -12 228.506416686 0.276457248359 160 60 c 1
 103 -6 l 1
 65 27 l 1
 125 97 l 1
 94.0551952046 135.681005994 50 212.009594295 50 332.762504592 c 0
 50 525.103230646 161.774933182 680 367.244337395 680 c 0xd8
 395.874396108 680 486.155557532 676.99259087 563 610 c 1
 616 673 l 1xb8
 655 641 l 1
 599 574 l 1
 661.940471279 497.808903189 677 404.706234518 677 334.556511096 c 0
EndSplineSet
EndChar

StartChar: Thorn
Encoding: 222 222 180
Width: 576
GlyphClass: 1
Flags: W
HStem: 0 21G<76 160> 163 81<160 407.587> 447 81<160 400.066> 648 20G<76 160>
VStem: 76 84<0 163 244 447 528 668> 441 97<275.873 411.636>
LayerCount: 2
Fore
SplineSet
441 344.619540897 m 0
 441 408.917543368 414.750658626 447 296 447 c 2
 160 447 l 1
 160 244 l 1
 296 244 l 2
 405.964966355 244 441 270.336522062 441 344.619540897 c 0
538 344.420376053 m 0
 538 242.443172465 497.605892126 163 287 163 c 2
 160 163 l 1
 160 0 l 1
 76 0 l 1
 76 668 l 1
 160 668 l 1
 160 528 l 1
 287 528 l 2
 492.442166925 528 538 452.719668095 538 344.420376053 c 0
EndSplineSet
EndChar

StartChar: ae
Encoding: 230 230 181
Width: 874
GlyphClass: 1
Flags: W
HStem: -12 74<537.971 702.512> -12 66<159.588 320.664> 225 67<196.195 373 465 757> 436 68<187.893 335.165 537.734 681.061>
VStem: 38 93<81.8045 179.304> 373 92<292 366.627> 380 83<139.274 225>
AnchorPoint: "Anchor-0" 433 496 basechar 0
LayerCount: 2
Fore
SplineSet
131 131.794573634 m 0x7a
 131 91.2825340083 160.794185614 54 236.77834955 54 c 0
 313.609718505 54 380 92.1185513074 380 209 c 2
 380 225 l 1
 304 225 243.5 218.166666667 202.843892932 205.819256372 c 0
 153.5 190.833333333 131 167 131 131.794573634 c 0x7a
757 292 m 1
 755.274159741 352.404409077 710.141714003 432 611.963589119 432 c 0
 569.402361004 432 475.003320547 417.041506839 465 292 c 1x3c
 757 292 l 1
417 88 m 1
 396.523235414 52.7799649117 340.92971541 -12 222.731439521 -12 c 0
 123.897265513 -12 38 33.2931681011 38 127.336626497 c 0
 38 205.524749483 97.3750146796 292 373 292 c 1
 373 319 l 2x7c
 373 379.165815673 349.561864693 436 263.805415253 436 c 0
 231.784054367 436 166.350177006 428.075796529 151 359 c 1
 70 383 l 1
 104.959829503 481.220473366 206.292392269 504 273.716424321 504 c 0
 346.666666667 504 404.333333333 477.333333333 433 424 c 1
 460.237119389 455.36395566 517.960144167 504 612.08229677 504 c 0
 766.83393474 504 856.133919468 372.524432945 845 225 c 1
 463 225 l 1
 465.25272005 178.443785637 480.617142519 105.658612385 555.358358516 74.6943943289 c 0
 574.333333333 66.8333333333 596.333333333 62 620.828851647 62 c 0
 657.95371609 62 701.992587513 73.1020514048 733 111 c 1
 814 87 l 1
 792.155816802 53.4535758037 734.480445576 -12 617.26588707 -12 c 0xba
 560.934054573 -12 472.358196521 3.11743200154 417 88 c 1
EndSplineSet
EndChar

StartChar: eth
Encoding: 240 240 182
Width: 567
GlyphClass: 1
Flags: W
HStem: -12 71<194.595 352.91> 371 74<196.141 353.309> 602 77<175 302.627>
VStem: 38 90<128.348 301.277> 419 98<147.253 383.056>
DStem2: 247 510 283 474 0.707107 0.707107<0 93.3381 183.848 240.416>
LayerCount: 2
Fore
SplineSet
128 214.999449 m 0
 128 126.383478865 180.903325519 59 273.803044308 59 c 0
 367.702291904 59 419 127.841267011 419 208.512119868 c 0
 419 231.811458086 414.720905903 371 276.838837285 371 c 0
 180.899541568 371 128 303.612249917 128 214.999449 c 0
517 302.58475563 m 0
 517 159.761232474 474.905477816 -12 280.289760453 -12 c 0
 122.906850714 -12 38 100.327079064 38 224.645098663 c 0
 38 356.513693349 133.533859298 445 256.080143527 445 c 0
 304.818296889 445 384.57288494 431.003678365 430 352 c 1
 427.497420692 395.169493066 418.821037116 486.142120294 356 547 c 1
 283 474 l 1
 247 510 l 1
 313 576 l 1
 297.13179345 584.227958952 259.473177733 602 175 602 c 1
 175 679 l 1
 205.6 679 297.2 679 371 634 c 1
 417 680 l 1
 453 644 l 1
 413 604 l 1
 442.119220903 578.116248086 517 493.074731633 517 302.58475563 c 0
EndSplineSet
EndChar

StartChar: thorn
Encoding: 254 254 183
Width: 566
GlyphClass: 1
Flags: W
HStem: -161 21G<70 154> -12 72<221.19 366.036> 433 72<220.855 367.139> 649 20G<70 154>
VStem: 70 84<-161 75 132 359.359 418 669> 434 94<138.868 354.72>
LayerCount: 2
Fore
SplineSet
294.048677571 433 m 0
 217.555326427 433 152 377.822754488 152 245.76326322 c 0
 152 187.333333333 164.833333333 141.666666667 190.995893194 108.368863208 c 0
 216.166666667 76.3333333333 250.333333333 60 291.984764028 60 c 0
 370.158893181 60 434 117.536187618 434 247.198789813 c 0
 434 305.333333333 421.166666667 351.333333333 394.93163254 384.723376767 c 0
 369.833333333 416.666666667 335.666666667 433 294.048677571 433 c 0
311.131073793 -12 m 0
 265.467006443 -12 196.549298424 2.85118962905 154 75 c 1
 154 -161 l 1
 70 -161 l 1
 70 669 l 1
 154 669 l 1
 154 418 l 1
 177.173920127 457.294908041 224.041040187 505 307.543405586 505 c 0
 412.664134073 505 528 429.396151181 528 247.884821336 c 0
 528 72.0484208875 419.763317442 -12 311.131073793 -12 c 0
EndSplineSet
EndChar

StartChar: multiply
Encoding: 215 215 184
Width: 528
GlyphClass: 1
Flags: W
HStem: 193 115<206.5 321.5>
DStem2: 110 462 53 404 0.707107 -0.707107<0.707107 217.789 299.813 516.188> 53 97 110 39 0.707107 0.707107<0 217.082 298.399 515.481>
LayerCount: 2
Fore
SplineSet
110 39 m 1
 53 97 l 1
 207 250 l 1
 53 404 l 1
 110 462 l 1
 264 308 l 1
 418 462 l 1
 475 404 l 1
 322 250 l 1
 475 97 l 1
 418 39 l 1
 264 193 l 1
 110 39 l 1
EndSplineSet
EndChar

StartChar: divide
Encoding: 247 247 185
Width: 602
GlyphClass: 1
Flags: W
HStem: 14 129<252.735 348.906> 208 81<53 549> 354 129<252.922 348.726>
VStem: 236 129<30.8323 125.941 370.275 466.078>
CounterMasks: 1 e0
LayerCount: 2
Fore
SplineSet
365 78.2161097645 m 0
 365 43.1791014609 337.843895654 14 301.07800559 14 c 0
 264.647709807 14 236 42.6488464916 236 78.213238584 c 0
 236 113.342471029 263.950942131 143 301.072191541 143 c 0
 338.524343635 143 365 112.811373797 365 78.2161097645 c 0
53 208 m 1
 53 289 l 1
 549 289 l 1
 549 208 l 1
 53 208 l 1
365 417.917188932 m 0
 365 381.674993289 337.328327077 354 301.083016092 354 c 0
 265.179101461 354 236 381.156104346 236 417.92199441 c 0
 236 454.352290193 264.648846492 483 301.07855303 483 c 0
 337.845849679 483 365 453.81887967 365 417.917188932 c 0
EndSplineSet
EndChar

StartChar: OE
Encoding: 306 338 186
Width: 1052
GlyphClass: 1
Flags: W
HStem: -12 81<273.083 455.69> 0 81<655 1014> 304 81<655 920> 588 81<655 1014> 602 78<269.738 455.192>
VStem: 50 96<207.402 462.683> 581 74<212.169 304 385 464.011>
LayerCount: 2
Fore
SplineSet
146 336.030689351 m 0xae
 146 143.436374631 258.867316484 69 363.049640786 69 c 0
 464.350401969 69 581 139.375670533 581 337.98776236 c 0
 581 571.795644761 419.344616368 602 357.201293475 602 c 0
 262.257618113 602 146 531.496170803 146 336.030689351 c 0xae
581 75 m 1
 540.91443401 33.9122948607 471.790070516 -12 362.506901093 -12 c 0
 161.787908576 -12 50 142.881438625 50 336.089087268 c 0
 50 533.603487743 166.827136106 680 362.647484779 680 c 0xae
 425.502211242 680 511.341653928 664.91688742 581 597 c 1
 581 669 l 1
 1014 669 l 1
 1014 588 l 1
 655 588 l 1
 655 385 l 1
 920 385 l 1
 920 304 l 1
 655 304 l 1
 655 81 l 1
 1014 81 l 1
 1014 0 l 1
 581 0 l 1x76
 581 75 l 1
EndSplineSet
EndChar

StartChar: oe
Encoding: 307 339 187
Width: 927
GlyphClass: 1
Flags: W
HStem: -12 74<204.442 347.707 594.555 686.615> 225 67<517 809> 431 74<202.743 347.92 580.858 745.725>
VStem: 38 89<144.019 349.997> 424 92<143.397 225 292 348.111>
LayerCount: 2
Fore
SplineSet
127 247.030107355 m 0
 127 95.1935486818 228.421035355 62 275.69273655 62 c 0
 319.965348508 62 424 91.1153161939 424 247.037242061 c 0
 424 407.66134798 313.595930311 431 275.471987717 431 c 0
 233.354514934 431 127 402.515751715 127 247.030107355 c 0
809 292 m 1
 807.275102101 354.096324359 764.03375723 433 667.622802192 433 c 0
 632.42734107 433 527.438783522 422.484794029 517 292 c 1
 809 292 l 1
470 88 m 1
 453.547373471 63.3210602059 393.6925666 -12 280.345552195 -12 c 0
 177.121157163 -12 38 50.4684811473 38 246.277785831 c 0
 38 442.04279706 177.058223896 505 275.072993991 505 c 0
 311.880994598 505 410.766808177 496.1213522 471 404 c 1
 492.474553559 436.211830338 551.71235281 505 664.450938695 505 c 0
 822.650969101 505 908.909370324 369.549156786 898 225 c 1
 516 225 l 1
 521.11348087 66.4820930247 653.985368582 62 686.614924758 62 c 1
 686.614924758 62 744.909090909 62 785 111 c 1
 866 87 l 1
 841.676088263 49.6454212617 784.098812169 -12 670.377393222 -12 c 0
 616.030052149 -12 526.035411983 2.0790349594 470 88 c 1
EndSplineSet
EndChar

StartChar: Aring
Encoding: 197 197 191
Width: 626
GlyphClass: 2
Flags: W
HStem: 0 21G<10 116.986 509.014 616> 146 81<190 436> 574 104<261 365> 780 58<271.043 355.212>
VStem: 204 57<687.76 769.469> 365 57<687.606 770.131>
DStem2: 10 0 110 0 0.351277 0.936272<35.1277 189.738 275.763 275.763> 377.011 639.535 313 574 0.350049 -0.936731<38.9822 407.084>
AnchorPoint: "Anchor-2" 615 0 basechar 0
AnchorPoint: "Anchor-1" 313 0 basechar 0
AnchorPoint: "Anchor-0" 313 788 basechar 0
LayerCount: 2
Fore
SplineSet
422 729.780941332 m 0
 422 711.809013413 417.525609773 669.575982977 377.010682896 639.53541257 c 1
 616 0 l 1
 516 0 l 1
 465 146 l 1
 161 146 l 1
 110 0 l 1
 10 0 l 1
 250.376862955 640.685742297 l 1
 237.998823965 649.638677361 204 678.797721831 204 728.572331078 c 0
 204 788.582247221 253.419029916 838 315.634183418 838 c 0
 380.266202672 838 422 784.668218953 422 729.780941332 c 0
190 227 m 1
 436 227 l 1
 313 574 l 1
 190 227 l 1
261 729.000010327 m 0
 261 701.4599235 282.659311061 678 312.999990466 678 c 0
 343.340633879 678 365 701.459867842 365 728.999989673 c 0
 365 756.5400765 343.340688939 780 313.000009534 780 c 0
 282.659366121 780 261 756.540132158 261 729.000010327 c 0
EndSplineSet
EndChar

StartChar: Ccedilla
Encoding: 199 199 202
Width: 656
GlyphClass: 2
Flags: W
HStem: -181 41<267.464 376.805> -81 40<316.672 381.475> -11.8128 78.8128<365.319 452.309> 499 21G<523.448 586.667> 601 79<267.343 454.324>
VStem: 50 96<205.614 462.199> 382 62<-134.136 -83.2437>
AnchorPoint: "Anchor-1" 352 -181 basechar 0
AnchorPoint: "Anchor-0" 353 668 basechar 0
LayerCount: 2
Fore
SplineSet
444 -95.6394270868 m 0
 444 -103.2509996 442.730367483 -181 348.0220544 -181 c 0
 328.48677991 -181 302.399355527 -177.692059818 259 -161 c 1
 273 -126 l 1
 292.301243451 -133.947570833 312.788577152 -140 333.292702309 -140 c 0
 381.4503706 -140 382 -106.612943717 382 -104.571873588 c 0
 382 -100.190433295 379.467275815 -81 347.849033624 -81 c 0
 321.977085156 -81 306.123874145 -93.8489492024 293.619268744 -82.1779841609 c 0
 289.5 -78.3333333333 287 -73 287 -66.8742588672 c 0
 287 -63 288 -59.6666666667 290 -57 c 2
 318.926399804 -10.4908865899 l 1
 154.730505398 4.45516186778 50 137.736366513 50 332.833486593 c 0
 50 544.917776805 173.762331498 680 354.943352166 680 c 0
 411.51428721 680 549.804834527 666.830796457 614 529 c 1
 532 499 l 1
 514.89541166 533.986657968 467.573237492 601 362.733454875 601 c 0
 251.378882577 601 146 525.399413966 146 337.236746657 c 0
 146 265.459466097 161.334183911 156.511466286 248.467985248 99.0211231356 c 0
 280.833333333 77.6666666667 317.666666667 67 359.818442847 67 c 0
 408.366927726 67 492.074867823 81.1497356462 536 169 c 1
 618 139 l 1
 593.827446968 89.3119743223 526.403861377 -6.88077558529 365.318675836 -11.8128294679 c 1
 345 -45 l 1
 353.875703238 -42.7810741904 364.220944115 -41 373.471230633 -41 c 0
 383.339618 -41 444 -43.0270479314 444 -95.6394270868 c 0
EndSplineSet
EndChar

StartChar: ccedilla
Encoding: 231 231 203
Width: 500
GlyphClass: 2
Flags: W
HStem: -181 41<189.464 298.805> -81 40<238.672 303.475> 430 74<202.5 347.715>
VStem: 38 91<143.91 351.791> 304 62<-134.136 -83.2437>
AnchorPoint: "Anchor-1" 274 -181 basechar 0
AnchorPoint: "Anchor-0" 275 496 basechar 0
LayerCount: 2
Fore
SplineSet
366 -95.6394270868 m 0
 366 -103.2509996 364.730367483 -181 270.0220544 -181 c 0
 250.48677991 -181 224.399355527 -177.692059818 181 -161 c 1
 195 -126 l 1
 214.301243451 -133.947570833 234.788577152 -140 255.292702309 -140 c 0
 303.4503706 -140 304 -106.612943717 304 -104.571873588 c 0
 304 -100.190433295 301.467275815 -81 269.849033624 -81 c 0
 243.977085156 -81 228.123874145 -93.8489492024 215.619268744 -82.1779841609 c 0
 211.5 -78.3333333333 209 -73 209 -66.8742588672 c 0
 209 -63 210 -59.6666666667 212 -57 c 2
 240.852973842 -10.6089440188 l 1
 121.660419786 1.51205143729 38 99.2444788693 38 242.327306426 c 0
 38 389.060617415 125.983745529 504 276.196950079 504 c 0
 322.666666667 504 361 493 396.550196869 468.559239653 c 0
 425 449 449 422.666666667 465 392 c 1
 388 364 l 1
 380.973923014 377.173894349 348.058752329 430 277.507878144 430 c 0
 230.453423284 430 129 406.501221398 129 249.172713539 c 0
 129 109.055006662 209.470722507 62 272.116059594 62 c 0
 293.061727244 62 355.863071772 67.2603756005 390 127 c 1
 467 99 l 1
 454.413033242 77.4223427009 400.00442658 -3.43947323025 287.598848957 -11.3552133705 c 1
 267 -45 l 1
 275.875703238 -42.7810741904 286.220944115 -41 295.471230633 -41 c 0
 305.339618 -41 366 -43.0270479314 366 -95.6394270868 c 0
EndSplineSet
EndChar

StartChar: Eth
Encoding: 208 208 248
Width: 712
GlyphClass: 2
Flags: W
HStem: 0 79<209 439.988> 303 80<20 115 209 349> 589 79<209 433.943>
VStem: 115 94<79 303 383 589> 566 96<202.683 466.297>
AnchorPoint: "Anchor-1" 376 0 basechar 0
AnchorPoint: "Anchor-0" 366 668 basechar 0
LayerCount: 2
Fore
SplineSet
566 334.611110644 m 0
 566 518.463501693 486.031428806 589 295 589 c 2
 209 589 l 1
 209 383 l 1
 349 383 l 1
 349 303 l 1
 209 303 l 1
 209 79 l 1
 295 79 l 2
 480.355088684 79 566 144.345457585 566 334.611110644 c 0
662 334.991717351 m 0
 662 163.574320358 597.114798395 0 297 0 c 2
 115 0 l 1
 115 303 l 1
 20 303 l 1
 20 383 l 1
 115 383 l 1
 115 668 l 1
 297 668 l 2
 603.275286834 668 662 498.068644281 662 334.991717351 c 0
EndSplineSet
EndChar

StartChar: one.tf
Encoding: 316 -1 250
Width: 639
GlyphClass: 1
Flags: W
HStem: 0 77<109 287 370 530> 504 67<109 245.629> 648 20G<303.727 370>
VStem: 287 83<77 504> 314 56<627.46 668>
LayerCount: 2
Fore
SplineSet
109 571 m 1xf0
 245.322429405 571 293.45424073 607.830276424 314 668 c 1
 370 668 l 1xe8
 370 77 l 1
 530 77 l 1
 530 0 l 1
 109 0 l 1
 109 77 l 1
 287 77 l 1
 287 504 l 1
 109 504 l 1
 109 571 l 1xf0
EndSplineSet
Substitution2: "'pnum' Proportional Numbers lookup 13 subtable" one
Substitution2: "'aalt' Access All Alternates lookup 0 subtable" one
EndChar

StartChar: Aogonek
Encoding: 327 260 261
Width: 626
GlyphClass: 2
Flags: W
HStem: -173 58<533.642 614.142> 0 21G<10 116.986> 146 81<190 436> 574 95<261 366>
VStem: 458 70<-109.953 -34.7881>
DStem2: 10 0 110 0 0.351277 0.936272<35.1277 189.738 275.763 643.857> 366 669 313 574 0.350049 -0.936731<70.4369 438.539 524.565 679.181>
AnchorPoint: "Anchor-2" 615 0 basechar 0
AnchorPoint: "Anchor-1" 313 0 basechar 0
AnchorPoint: "Anchor-0" 313 668 basechar 0
LayerCount: 2
Fore
SplineSet
190 227 m 1
 436 227 l 1
 313 574 l 1
 190 227 l 1
575.97008758 -115 m 0
 588.407865254 -115 601.024580892 -112.590167643 615 -107 c 1
 615 -161 l 1
 592.333333333 -169 571.333333333 -173 551.276361042 -173 c 0
 478.258797314 -173 458 -119.986812332 458 -88.8912814646 c 0
 458 -53.8401290573 483.740816033 -13.198179884 538 0 c 1
 516 0 l 1
 465 146 l 1
 161 146 l 1
 110 0 l 1
 10 0 l 1
 261 669 l 1
 366 669 l 1
 616 0 l 1
 615 0 l 1
 590.026979498 -9.3036743048 528 -32.4268166628 528 -74.2691163071 c 0
 528 -83.8392770248 531.244800535 -115 575.97008758 -115 c 0
EndSplineSet
EndChar

StartChar: aogonek
Encoding: 328 261 262
Width: 526
GlyphClass: 2
Flags: W
HStem: -173 58<393.634 474.228> -12 67<157.809 315.121> 239 67<242.192 373> 437 67<186.961 335.035>
VStem: 38 93<81.9329 179.839> 318 70<-109.953 -34.7881> 373 85<304.608 398.802> 380 78<119.881 239>
AnchorPoint: "Anchor-2" 475 0 basechar 0
AnchorPoint: "Anchor-1" 263 0 basechar 0
AnchorPoint: "Anchor-0" 263 496 basechar 0
LayerCount: 2
Fore
SplineSet
131 135.120255017 m 0xf9
 131 119.696805667 135.69368126 55 230.576550465 55 c 0
 281.335721632 55 380 73.515534955 380 208 c 2
 380 239 l 1
 193.11728503 219.328135266 131 191.229050736 131 135.120255017 c 0xf9
435.745085821 -115 m 0
 451.480263158 -115 464.74014063 -111.103943748 475 -107 c 1
 475 -161 l 1
 452.333333333 -169 431.333333333 -173 411.276361042 -173 c 0
 338.258797314 -173 318 -119.986812332 318 -88.8912814646 c 0xfc
 318 -53.8401290573 343.740816033 -13.198179884 398 0 c 1
 378 68 l 1
 347.602660332 16.8772014676 293.173948953 -12 218.019621631 -12 c 0
 123.897265513 -12 38 33.2931681011 38 133.532467972 c 0
 38 221.394590318 103.99433675 276.702353507 373 306 c 1xfa
 375.513038172 385.160702406 345.066707614 437 263.625483287 437 c 0
 231.784054367 437 166.350177006 429.075796529 151 360 c 1
 70 384 l 1
 99.3388074617 467.615601266 179.872322658 504 273.775062783 504 c 0
 393.906473657 504 458 444.451362787 458 303 c 2
 458 187 l 2xf9
 458 112.700484069 464.047973605 54.7601319767 475 0 c 1
 450.026979498 -9.3036743048 388 -32.4268166628 388 -74.2691163071 c 0xfc
 388 -83.8392770248 391.244800535 -115 435.745085821 -115 c 0
EndSplineSet
EndChar

StartChar: Eogonek
Encoding: 333 280 267
Width: 567
GlyphClass: 2
Flags: W
HStem: -173 58<424.634 505.228> 0 81<170 429 458.446 529> 303 81<170 435> 587 81<170 529>
VStem: 76 94<81 303 384 587> 349 70<-109.953 -34.7881>
AnchorPoint: "Anchor-2" 506 0 basechar 0
AnchorPoint: "Anchor-1" 284 0 basechar 0
AnchorPoint: "Anchor-0" 304 668 basechar 0
LayerCount: 2
Fore
SplineSet
466.745085821 -115 m 0
 482.480263158 -115 495.74014063 -111.103943748 506 -107 c 1
 506 -161 l 1
 483.333333333 -169 462.333333333 -173 442.276361042 -173 c 0
 369.258797314 -173 349 -119.986812332 349 -88.8912814646 c 0
 349 -53.8401290573 374.740816033 -13.198179884 429 0 c 1
 76 0 l 1
 76 668 l 1
 529 668 l 1
 529 587 l 1
 170 587 l 1
 170 384 l 1
 435 384 l 1
 435 303 l 1
 170 303 l 1
 170 81 l 1
 529 81 l 1
 529 0 l 1
 506 0 l 1
 481.026979498 -9.3036743048 419 -32.4268166628 419 -74.2691163071 c 0
 419 -83.8392770248 422.244800535 -115 466.745085821 -115 c 0
EndSplineSet
EndChar

StartChar: eogonek
Encoding: 334 281 268
Width: 539
GlyphClass: 2
Flags: W
HStem: -173 58<281.13 363.228> 225 67<129 421> 432 72<196.523 355.237>
VStem: 38 90<137.001 225 292 357.756> 207 70<-109.831 -35.0706>
AnchorPoint: "Anchor-2" 365 0 basechar 0
AnchorPoint: "Anchor-1" 270 0 basechar 0
AnchorPoint: "Anchor-0" 281 496 basechar 0
LayerCount: 2
Fore
SplineSet
421 292 m 1
 421 353.011836979 374.401526166 432 277.843054831 432 c 0
 238.660289959 432 139.159453737 418.993171716 129 292 c 1
 421 292 l 1
324.745085821 -115 m 0
 340.480263158 -115 353.74014063 -111.103943748 364 -107 c 1
 364 -161 l 1
 341.333333333 -169 320.333333333 -173 300.276361042 -173 c 0
 227.258797314 -173 207 -119.986812332 207 -91.6371707934 c 0
 207 -81.3121143286 209.68722101 -36.9063221511 257.342808373 -11.1672602369 c 1
 112.758911183 -0.732966781213 38 114.621982877 38 248.485075895 c 0
 38 412.863138748 150.727265643 504 277.988318059 504 c 0
 429.531923045 504 521.303060913 374.765557095 510 225 c 1
 128 225 l 1
 133.11348087 66.4820930247 265.985368582 62 287.983473178 62 c 0
 321.415826958 62 367.136004475 72.3524763798 397 111 c 1
 478 87 l 1
 422.863165828 -0.810513682047 333.246459411 1.80886422921 293.323095424 -39.2234846074 c 0
 283 -49.8333333333 277 -62.3333333333 277 -74.7258963293 c 0
 277 -83.8392770248 280.244800535 -115 324.745085821 -115 c 0
EndSplineSet
EndChar

StartChar: Iogonek
Encoding: 341 302 275
Width: 414
GlyphClass: 2
Flags: W
HStem: -173 58<191.634 272.228> 0 74<66 160 254.026 348> 594 74<66 160 254 348>
VStem: 116 70<-109.953 -34.7881> 160 94<74 594>
AnchorPoint: "Anchor-2" 273 0 basechar 0
AnchorPoint: "Anchor-1" 207 0 basechar 0
AnchorPoint: "Anchor-0" 207 668 basechar 0
LayerCount: 2
Fore
SplineSet
233.745085821 -115 m 0xf0
 249.480263158 -115 262.74014063 -111.103943748 273 -107 c 1
 273 -161 l 1
 250.333333333 -169 229.333333333 -173 209.276361042 -173 c 0
 136.258797314 -173 116 -119.986812332 116 -88.8912814646 c 0xf0
 116 -53.8401290573 141.740816033 -13.198179884 196 0 c 1
 66 0 l 1
 66 74 l 1
 160 74 l 1
 160 594 l 1
 66 594 l 1
 66 668 l 1
 348 668 l 1
 348 594 l 1
 254 594 l 1
 254 74 l 1xe8
 348 74 l 1
 348 0 l 1
 273 0 l 1
 248.026979498 -9.3036743048 186 -32.4268166628 186 -74.2691163071 c 0
 186 -83.8392770248 189.244800535 -115 233.745085821 -115 c 0xf0
EndSplineSet
EndChar

StartChar: iogonek
Encoding: 342 303 276
Width: 278
GlyphClass: 1
Flags: W
HStem: -173 58<116.642 197.142> 429 67<45 114> 590 125<109.774 203.612>
VStem: 41 70<-109.953 -34.7881> 94 125<606.058 699.569> 114 84<0 429>
LayerCount: 2
Fore
SplineSet
219 653.07726881 m 0xe8
 219 617.983328987 191.013856556 590 156.786691845 590 c 0
 122.976974901 590 94 617.304900505 94 653.070971018 c 0
 94 689.150762282 123.487545252 715 156.783373467 715 c 0
 190.501403232 715 219 688.491053082 219 653.07726881 c 0xe8
158.97008758 -115 m 0
 171.407865254 -115 184.024580892 -112.590167643 198 -107 c 1
 198 -161 l 1
 175.333333333 -169 154.333333333 -173 134.276361042 -173 c 0
 61.2587973136 -173 41 -119.986812332 41 -88.8912814646 c 0
 41 -53.8401290573 66.7408160326 -13.198179884 121 0 c 1
 114 0 l 1
 114 429 l 1
 45 429 l 1
 45 496 l 1
 198 496 l 1
 198 0 l 1
 173.026979498 -9.3036743048 111 -32.4268166628 111 -74.2691163071 c 0xf4
 111 -83.8392770248 114.244800535 -115 158.97008758 -115 c 0
EndSplineSet
EndChar

StartChar: Uogonek
Encoding: 355 370 289
Width: 690
GlyphClass: 2
Flags: W
HStem: -173 58<345.634 426.228> -11.4266 80.4266<247.052 319.866> 648 20G<76 170 520 614>
VStem: 76 94<155.682 668> 270 70<-109.819 -34.5527> 520 94<152.96 668>
AnchorPoint: "Anchor-2" 427 0 basechar 0
AnchorPoint: "Anchor-1" 345 0 basechar 0
AnchorPoint: "Anchor-0" 345 668 basechar 0
LayerCount: 2
Fore
SplineSet
387.745085821 -115 m 0
 403.480263158 -115 416.74014063 -111.103943748 427 -107 c 1
 427 -161 l 1
 404.333333333 -169 383.333333333 -173 363.276361042 -173 c 0
 290.258797314 -173 270 -119.986812332 270 -91.6049511253 c 0
 270 -81.228902955 272.707670879 -37.2065119818 319.86558034 -11.4265776053 c 1
 199.140011739 -5.77032412148 76 39.1927920281 76 279 c 2
 76 668 l 1
 170 668 l 1
 170 272 l 2
 170 88.662500421 268.785062826 69 344.988839602 69 c 0
 421.253718773 69 520 88.6940449872 520 272 c 2
 520 668 l 1
 614 668 l 1
 614 279 l 2
 614 44.4607284716 496.457890989 3.1530868232 406.065753103 -8.37530920914 c 1
 389.724962243 -15.4377857008 340 -36.9288738564 340 -74.2942680733 c 0
 340 -83.8392770248 343.244800535 -115 387.745085821 -115 c 0
EndSplineSet
EndChar

StartChar: uogonek
Encoding: 356 371 290
Width: 536
GlyphClass: 1
Flags: W
HStem: -173 58<384.634 465.228> -12 74<186.507 321.082> 477 20G<68 152 382 466>
VStem: 68 84<101.744 497> 309 70<-109.417 -34.727> 382 84<122.618 497>
LayerCount: 2
Fore
SplineSet
426.745085821 -115 m 0
 442.480263158 -115 455.74014063 -111.103943748 466 -107 c 1
 466 -161 l 1
 443.333333333 -169 422.333333333 -173 402.276361042 -173 c 0
 329.258797314 -173 309 -119.986812332 309 -86.7732877023 c 0
 309 -52.6925229185 330.330566626 -15.2470303411 402.454280799 1.8710372591 c 1
 382 72 l 1
 368 48 349 28 328.752720257 14.5018135044 c 0
 301 -4 268.333333333 -12 230.21011211 -12 c 0
 141.962294717 -12 68 30.8665719578 68 180 c 2
 68 497 l 1
 152 497 l 1
 152 200 l 2
 152 121.349815295 170.451484141 62 253.072798878 62 c 0
 321.526511697 62 382 102.740765574 382 224 c 2
 382 497 l 1
 466 497 l 1
 466 0 l 1
 441.026979498 -9.3036743048 379 -32.4268166628 379 -74.2691163071 c 0
 379 -83.8392770248 382.244800535 -115 426.745085821 -115 c 0
EndSplineSet
EndChar

StartChar: Hbar
Encoding: 365 294 299
Width: 710
GlyphClass: 2
Flags: W
HStem: 0 21G<86 180 530 624> 303 81<180 530> 504 77<10 86 180 530 624 700> 648 20G<86 180 530 624>
VStem: 86 94<0 303 384 504 581 668> 530 94<0 303 384 504 581 668>
AnchorPoint: "Anchor-1" 355 0 basechar 0
AnchorPoint: "Anchor-0" 355 668 basechar 0
LayerCount: 2
Fore
SplineSet
180 384 m 1
 530 384 l 1
 530 504 l 1
 180 504 l 1
 180 384 l 1
86 0 m 1
 86 504 l 1
 10 504 l 1
 10 581 l 1
 86 581 l 1
 86 668 l 1
 180 668 l 1
 180 581 l 1
 530 581 l 1
 530 668 l 1
 624 668 l 1
 624 581 l 1
 700 581 l 1
 700 504 l 1
 624 504 l 1
 624 0 l 1
 530 0 l 1
 530 303 l 1
 180 303 l 1
 180 0 l 1
 86 0 l 1
EndSplineSet
EndChar

StartChar: hbar
Encoding: 366 295 300
Width: 581
GlyphClass: 1
Flags: W
HStem: 0 21G<105 189 429 513> 432 72<324.353 393.723> 548 67<20 105 189 349> 648 20G<105 189>
VStem: 105 84<0 370.94 421 548 615 668> 429 84<0 394.608>
LayerCount: 2
Fore
SplineSet
326.104349006 432 m 0
 276.056462282 432 189 413.735530811 189 269 c 2
 189 0 l 1
 105 0 l 1
 105 548 l 1
 20 548 l 1
 20 615 l 1
 105 615 l 1
 105 668 l 1
 189 668 l 1
 189 615 l 1
 349 615 l 1
 349 548 l 1
 189 548 l 1
 189 421 l 1
 238.8 504 324.353145917 504 324.353145917 504 c 1
 409 504 451.333333333 486.5 478.501535132 447.950524475 c 0
 500.666666667 416.5 513 370.666666667 513 314 c 2
 513 0 l 1
 429 0 l 1
 429 289 l 2
 429 399.751106175 392.607102571 432 326.104349006 432 c 0
EndSplineSet
EndChar

StartChar: dcroat
Encoding: 385 273 319
Width: 603
GlyphClass: 1
Flags: W
HStem: -12 72<199.991 346.18> 0 21G<428.133 513> 432 72<202.052 346.115> 548 67<249 412 496 578> 648 20G<412 496>
VStem: 38 94<138.17 357.618> 412 84<132.943 358.325 418 548 615 668>
LayerCount: 2
Fore
SplineSet
278.350430591 432 m 0xbe
 240.45843473 432 132 419.021850267 132 246.632491238 c 0
 132 187.333333333 144.833333333 141.666666667 170.995893194 108.368863208 c 0
 196.166666667 76.3333333333 230.333333333 60 271.984764028 60 c 0
 350.158893181 60 414 117.536187618 414 240.612181292 c 0
 414 288.926525913 404.162020988 432 278.350430591 432 c 0xbe
412 75 m 1
 389.427117512 33.9583954758 343.498077788 -12 260.858173084 -12 c 0xbe
 156.004300823 -12 38 61.9867907526 38 246.00136926 c 0
 38 430.025511425 156.016567047 504 256.94353799 504 c 0
 302.128420227 504 371.851138119 489.172982425 412 418 c 1
 412 548 l 1
 249 548 l 1
 249 615 l 1
 412 615 l 1
 412 668 l 1
 496 668 l 1
 496 615 l 1
 578 615 l 1
 578 548 l 1
 496 548 l 1
 496 187 l 2
 496 99.4549273338 502.994977261 50.0251136938 513 0 c 1
 434 0 l 1x7e
 412 75 l 1
EndSplineSet
EndChar

StartChar: Scedilla
Encoding: 393 350 327
Width: 596
GlyphClass: 2
Flags: W
HStem: -181 41<217.464 326.805> -81 40<266.672 331.475> 601 79<197.042 381.437>
VStem: 46 97<441.18 553.506> 332 62<-134.136 -83.2437> 457 99<121.914 242.017>
DStem2: 286 392 238 313 0.975916 -0.218146<-128.069 171.438>
AnchorPoint: "Anchor-1" 302 -181 basechar 0
AnchorPoint: "Anchor-0" 298 668 basechar 0
LayerCount: 2
Fore
SplineSet
394 -95.6394270868 m 0
 394 -103.2509996 392.730367483 -181 298.0220544 -181 c 0
 278.48677991 -181 252.399355527 -177.692059818 209 -161 c 1
 223 -126 l 1
 242.301243451 -133.947570833 262.788577152 -140 283.292702309 -140 c 0
 331.4503706 -140 332 -106.612943717 332 -104.571873588 c 0
 332 -100.190433295 329.467275815 -81 297.849033624 -81 c 0
 271.977085156 -81 256.123874145 -93.8489492024 243.619268744 -82.1779841609 c 0
 239.5 -78.3333333333 237 -73 237 -66.8742588672 c 0
 237 -63 238 -59.6666666667 240 -57 c 2
 268.650435253 -10.9345942988 l 1
 223.682626977 -7.4068901861 84.2090494894 13.3728515318 40 146 c 1
 127 172 l 1
 156.400934829 83.7971955133 251.922142713 67 300.612446135 67 c 0
 362.563223567 67 457 94.1922620574 457 184.841769934 c 0
 457 238.926455316 423.383006657 268.225984777 323 294 c 2
 238 313 l 1
 98.3284048489 349.4360683 46 404.572691578 46 489.079793002 c 0
 46 627.566747495 186.529924843 680 287.711615257 680 c 0
 326.366049288 680 465.690740636 672.347531078 523 555 c 1
 437 530 l 1
 404.348874263 590.146810569 322.709937021 601 286.169185618 601 c 0
 232.176561701 601 143 577.30420395 143 495.752659057 c 0
 143 440.030176557 184.633915015 415.392173458 286 392 c 2
 359 376 l 2
 518.25209199 338.528919532 556 268.700167315 556 194.721188612 c 0
 556 66.9541781388 443.406403583 -4.61487398009 315.523211266 -11.4787549327 c 1
 295 -45 l 1
 303.875703238 -42.7810741904 314.220944115 -41 323.471230633 -41 c 0
 333.339618 -41 394 -43.0270479314 394 -95.6394270868 c 0
EndSplineSet
Substitution2: "'locl' Localized Forms in Latin lookup 8 subtable" uni0218
Substitution2: "'aalt' Access All Alternates lookup 0 subtable" uni0218
EndChar

StartChar: scedilla
Encoding: 394 351 328
Width: 471
GlyphClass: 2
Flags: W
HStem: -181 41<149.464 258.805> -81 40<198.672 263.475> -11.8882 70.8882<247.273 320.672> 434 71<155.28 305.447>
VStem: 41 85<324.27 405.07> 264 62<-134.136 -83.2437> 356 85<92.4485 182.225>
DStem2: 218 299 177 231 0.980031 -0.198847<-90.9043 146.849>
AnchorPoint: "Anchor-1" 234 -181 basechar 0
AnchorPoint: "Anchor-0" 240 496 basechar 0
LayerCount: 2
Fore
SplineSet
326 -95.6394270868 m 0
 326 -103.2509996 324.730367483 -181 230.0220544 -181 c 0
 210.48677991 -181 184.399355527 -177.692059818 141 -161 c 1
 155 -126 l 1
 174.301243451 -133.947570833 194.788577152 -140 215.292702309 -140 c 0
 263.4503706 -140 264 -106.612943717 264 -104.571873588 c 0
 264 -100.190433295 261.467275815 -81 229.849033624 -81 c 0
 203.977085156 -81 188.123874145 -93.8489492024 175.619268744 -82.1779841609 c 0
 171.5 -78.3333333333 169 -73 169 -66.8742588672 c 0
 169 -63 170 -59.6666666667 172 -57 c 2
 201.600285033 -9.40738484943 l 1
 157.643161135 -3.26570611623 68.0571605398 20.4470151369 31 112 c 1
 112 142 l 1
 131.59906186 63.6037525594 218.786283497 59 241.728713778 59 c 0
 299.883057836 59 356 88.5799513342 356 138.43037042 c 0
 356 160.333333333 345.166666667 179.666666667 318.006608914 193.873466107 c 0
 301.833333333 202.333333333 276 211 246 217 c 2
 177 231 l 2
 73.5410422194 253.990879507 41 299.275550063 41 357.892545454 c 0
 41 466.272033213 152.244497725 505 230.927290621 505 c 0
 263.570282571 505 378.089330168 498.334310511 418 404 c 1
 339 375 l 1
 314.517636231 431.497762544 239.159090012 434 225.377021269 434 c 0
 194.339979609 434 126 421.310037595 126 350.484672147 c 0
 126 350.484671126 126 317.871794872 218 299 c 2
 283 286 l 2
 408.263360487 260.947327903 441 209.573655424 441 147.857489466 c 0
 441 40.5965687469 342.11754032 -9.31380736655 247.272501778 -11.8882470966 c 1
 227 -45 l 1
 235.875703238 -42.7810741904 246.220944115 -41 255.471230633 -41 c 0
 265.339618 -41 326 -43.0270479314 326 -95.6394270868 c 0
EndSplineSet
Substitution2: "'locl' Localized Forms in Latin lookup 8 subtable" uni0219
Substitution2: "'aalt' Access All Alternates lookup 0 subtable" uni0219
EndChar

StartChar: uni0162
Encoding: 396 354 330
Width: 558
GlyphClass: 2
Flags: W
HStem: -181 41<198.464 307.805> -81 40<247.672 312.475> 0 21G<303.551 326> 587 81<10 232 326 548>
VStem: 232 94<2.22045e-16 587> 313 62<-134.136 -83.2437>
AnchorPoint: "Anchor-1" 269 -250 basechar 0
AnchorPoint: "Anchor-0" 279 668 basechar 0
LayerCount: 2
Fore
SplineSet
375 -95.6394270868 m 0xf4
 375 -103.2509996 373.730367483 -181 279.0220544 -181 c 0
 259.48677991 -181 233.399355527 -177.692059818 190 -161 c 1
 204 -126 l 1
 223.301243451 -133.947570833 243.788577152 -140 264.292702309 -140 c 0
 312.4503706 -140 313 -106.612943717 313 -104.571873588 c 0xf4
 313 -100.190433295 310.467275815 -81 278.849033624 -81 c 0
 252.977085156 -81 237.123874145 -93.8489492024 224.619268744 -82.1779841609 c 0
 220.5 -78.3333333333 218 -73 218 -66.8742588672 c 0
 218 -63 219 -59.6666666667 221 -57 c 2
 256.451219512 -3.5527136788e-15 l 1
 232 0 l 1
 232 587 l 1
 10 587 l 1
 10 668 l 1
 548 668 l 1
 548 587 l 1
 326 587 l 1
 326 0 l 1xf8
 303.551020408 2.22044604925e-16 l 1
 276 -45 l 1
 284.875703238 -42.7810741904 295.220944115 -41 304.471230633 -41 c 0
 314.339618 -41 375 -43.0270479314 375 -95.6394270868 c 0xf4
EndSplineSet
Substitution2: "'locl' Localized Forms in Latin lookup 8 subtable" uni021A
Substitution2: "'aalt' Access All Alternates lookup 0 subtable" uni021A
EndChar

StartChar: acutecomb
Encoding: 398 769 332
Width: 162
GlyphClass: 4
Flags: W
HStem: 571 136<88.0373 95.1983>
VStem: 0 162
AnchorPoint: "Anchor-4" 81 707 basemark 0
AnchorPoint: "Anchor-4" 47 496 mark 0
AnchorPoint: "Anchor-0" 47 496 mark 0
LayerCount: 2
Fore
SplineSet
123.497662324 707 m 0
 143.893391537 707 162 693.364173304 162 656.589690003 c 1
 162 656.589690003 162 646.818181818 88.5228282106 586.700495809 c 0
 78.5 578.5 72 573 70 571 c 2
 0 571 l 1
 19.3424934646 596.789991286 82.1108475057 680.110847506 95.0397171817 694.297645127 c 0
 102.666666667 702.666666667 112 707 123.497662324 707 c 0
EndSplineSet
Substitution2: "'case' Case-Sensitive Forms lookup 15 subtable" acutecomb.case
Substitution2: "Single Substitution lookup 7 subtable" acutecomb.case
Substitution2: "Single Substitution lookup 6 subtable" acutecomb.case
Substitution2: "Single Substitution lookup 4 subtable" acutecomb.case
Substitution2: "Single Substitution lookup 3 subtable" acutecomb.case
Substitution2: "'aalt' Access All Alternates lookup 0 subtable" acutecomb.case
EndChar

StartChar: acutecomb.case
Encoding: 399 -1 333
Width: 0
GlyphClass: 4
Flags: W
HStem: 744 120
VStem: 0 172
AnchorPoint: "Anchor-4" 86 864 basemark 0
AnchorPoint: "Anchor-4" 58 668 mark 0
AnchorPoint: "Anchor-0" 58 668 mark 0
LayerCount: 2
Fore
SplineSet
136.105042193 864 m 0
 156.193797892 864 172 848.191531307 172 821.010385112 c 0
 172 809.991529839 169.402443781 799.676450995 91.4409641438 753.38682246 c 0
 84.3333333333 749.166666667 78 745.333333333 76 744 c 2
 0 744 l 1
 7.75020080887 751.750200809 90.9190272368 838.599189364 107.97834821 852.964456562 c 0
 116.333333333 860 126 864 136.105042193 864 c 0
EndSplineSet
EndChar

StartChar: uni0306
Encoding: 400 774 334
Width: 294
GlyphClass: 4
Flags: W
HStem: 569 67<91.1264 202.356>
VStem: 0 69<657.692 689>
AnchorPoint: "Anchor-4" 147 689 basemark 0
AnchorPoint: "Anchor-4" 147 496 mark 0
AnchorPoint: "Anchor-0" 147 496 mark 0
LayerCount: 2
Fore
SplineSet
294 689 m 1
 280.997624966 622.687887325 221.826608514 569 145.949325652 569 c 0
 67.324901402 569 13.4489434081 626.645807835 0 689 c 1
 69 689 l 1
 71.5998252139 682.356002231 91.7194831643 636 145.428541273 636 c 0
 186.512642801 636 213.749694323 663.124296942 225 689 c 1
 294 689 l 1
EndSplineSet
Substitution2: "'case' Case-Sensitive Forms lookup 15 subtable" uni0306.case
Substitution2: "Single Substitution lookup 7 subtable" uni0306.case
Substitution2: "Single Substitution lookup 6 subtable" uni0306.case
Substitution2: "Single Substitution lookup 4 subtable" uni0306.case
Substitution2: "Single Substitution lookup 3 subtable" uni0306.case
Substitution2: "'aalt' Access All Alternates lookup 0 subtable" uni0306.case
EndChar

StartChar: uni030C
Encoding: 402 780 336
Width: 323
GlyphClass: 4
Flags: W
HStem: 569 120
VStem: 0 323
DStem2: 94 689 0 689 0.742634 -0.669697<0 90.608> 161 628 211 588 0.742634 0.669697<0 91.3507>
AnchorPoint: "Anchor-4" 162 689 basemark 0
AnchorPoint: "Anchor-4" 162 496 mark 0
AnchorPoint: "Anchor-0" 162 496 mark 0
LayerCount: 2
Fore
SplineSet
161.666666667 569 m 0
 142 569 125.333333333 575.333333333 112 588 c 2
 0 689 l 1
 94 689 l 1
 161 628 l 1
 229 689 l 1
 323 689 l 1
 211 588 l 2
 197.666666667 575.333333333 181.333333333 569 161.666666667 569 c 0
EndSplineSet
Substitution2: "'case' Case-Sensitive Forms lookup 15 subtable" uni030C.case
Substitution2: "Single Substitution lookup 7 subtable" uni030C.case
Substitution2: "Single Substitution lookup 6 subtable" uni030C.case
Substitution2: "Single Substitution lookup 4 subtable" uni030C.case
Substitution2: "Single Substitution lookup 3 subtable" uni030C.case
Substitution2: "'aalt' Access All Alternates lookup 0 subtable" uni030C.case
EndChar

StartChar: uni030C.alt
Encoding: 403 -1 337
Width: 0
GlyphClass: 1
Flags: W
HStem: 495 183<48.6875 69>
VStem: 45.0163 74.9837<576.615 674.536>
LayerCount: 2
Fore
SplineSet
81.8256220334 678 m 0
 101.893391537 678 120 664.364173304 120 642.501228034 c 0
 120 631.068580342 115.048766407 623.170682424 111 609 c 2
 69 495 l 1
 20 495 l 1
 22.1096022429 505.548011214 38.3405250535 626.02157516 45.0162642201 646.599855276 c 0
 46.6891548092 651.756619237 53.9856843732 678 81.8256220334 678 c 0
EndSplineSet
EndChar

StartChar: uni0327
Encoding: 405 807 339
Width: 0
GlyphClass: 4
Flags: W
HStem: -181 41<8.54089 117.796> -81 40<57.6724 122.475>
VStem: 123 62<-134.136 -83.2437>
DStem2: 31 -57 86 -45 0.528136 0.84916<39.2374 96.566>
AnchorPoint: "Anchor-3" 93 -181 basemark 0
AnchorPoint: "Anchor-3" 89 0 mark 0
AnchorPoint: "Anchor-1" 89 0 mark 0
LayerCount: 2
Fore
SplineSet
185 -95.6394270868 m 0
 185 -103.2509996 183.730367483 -181 89.0220543996 -181 c 0
 69.4867799097 -181 43.3993555266 -177.692059818 0 -161 c 1
 14 -126 l 1
 36.6666666667 -135.333333333 56 -140 74.0828885311 -140 c 0
 122.4503706 -140 123 -106.612943717 123 -104.571873588 c 0
 123 -100.190433295 120.467275815 -81 88.8490336238 -81 c 0
 62.9770851564 -81 47.1238741454 -93.8489492024 34.6192687439 -82.1779841609 c 0
 30.5 -78.3333333333 28 -73 28 -66.8742588672 c 0
 28 -63 29 -59.6666666667 31 -57 c 2
 82 25 l 1
 116 4 l 1
 86 -45 l 1
 94.8757032385 -42.7810741904 105.220944115 -41 114.471230633 -41 c 0
 124.339618 -41 185 -43.0270479314 185 -95.6394270868 c 0
EndSplineSet
EndChar

StartChar: uni0302
Encoding: 406 770 340
Width: 323
GlyphClass: 4
Flags: W
HStem: 575 120
VStem: 0 323
DStem2: 0 575 94 575 0.742634 0.669697<69.8076 160.416> 323 575 161 636 0.742634 -0.669697<-161.158 -69.8076>
AnchorPoint: "Anchor-4" 162 695 basemark 0
AnchorPoint: "Anchor-4" 162 496 mark 0
AnchorPoint: "Anchor-0" 162 496 mark 0
LayerCount: 2
Fore
SplineSet
0 575 m 1
 112 676 l 2
 125.333333333 688.666666667 142 695 161.666666667 695 c 0
 181.333333333 695 197.666666667 688.666666667 211 676 c 2
 323 575 l 1
 229 575 l 1
 161 636 l 1
 94 575 l 1
 0 575 l 1
EndSplineSet
Substitution2: "'case' Case-Sensitive Forms lookup 15 subtable" uni0302.case
Substitution2: "Single Substitution lookup 7 subtable" uni0302.case
Substitution2: "Single Substitution lookup 6 subtable" uni0302.case
Substitution2: "Single Substitution lookup 4 subtable" uni0302.case
Substitution2: "Single Substitution lookup 3 subtable" uni0302.case
Substitution2: "'aalt' Access All Alternates lookup 0 subtable" uni0302.case
EndChar

StartChar: uni0302.case
Encoding: 407 -1 341
Width: 0
GlyphClass: 4
Flags: W
HStem: 747 120
VStem: 0 323
DStem2: 0 747 94 747 0.742634 0.669697<69.8076 160.416> 323 747 161 808 0.742634 -0.669697<-161.158 -69.8076>
AnchorPoint: "Anchor-4" 162 867 basemark 0
AnchorPoint: "Anchor-4" 162 668 mark 0
AnchorPoint: "Anchor-0" 162 668 mark 0
LayerCount: 2
Fore
SplineSet
0 747 m 1
 112 848 l 2
 125.333333333 860.666666667 142 867 161.666666667 867 c 0
 181.333333333 867 197.666666667 860.666666667 211 848 c 2
 323 747 l 1
 229 747 l 1
 161 808 l 1
 94 747 l 1
 0 747 l 1
EndSplineSet
EndChar

StartChar: uni0326
Encoding: 408 806 342
Width: 0
GlyphClass: 4
Flags: W
HStem: -250 34<40 67.273>
VStem: 94 66<-196.392 -98.2772>
AnchorPoint: "Anchor-3" 80 -250 basemark 0
AnchorPoint: "Anchor-3" 90 0 mark 0
AnchorPoint: "Anchor-1" 90 0 mark 0
LayerCount: 2
Fore
SplineSet
104 -56 m 1
 123.69644021 -66.5047681122 160 -92.6899373439 160 -145.119855731 c 0
 160 -205.522784497 111.815557036 -250 40 -250 c 1
 0 -216 l 1
 35.6236854048 -216 94 -206.866684476 94 -147.710683057 c 0
 94 -122.156255006 83.1064010464 -95.9665718023 44 -82 c 1
 104 -56 l 1
EndSplineSet
EndChar

StartChar: uni0308
Encoding: 409 776 343
Width: 319
GlyphClass: 4
Flags: W
HStem: 590 107<10.9794 97.1275 222.48 308.122>
VStem: 0 108<601.16 685.953> 212 107<600.927 686.353>
AnchorPoint: "Anchor-4" 160 697 basemark 0
AnchorPoint: "Anchor-4" 160 496 mark 0
AnchorPoint: "Anchor-0" 160 496 mark 0
LayerCount: 2
Fore
SplineSet
319 644.088480157 m 0
 319 615.626259945 297.165162993 590 265.795622514 590 c 0
 234.914811136 590 212 614.833979524 212 644.080225367 c 0
 212 673.622154511 235.380496733 697 265.792294814 697 c 0
 296.701354703 697 319 672.851404367 319 644.088480157 c 0
108 644.088480157 m 0
 108 615.626259945 86.1651629928 590 54.8672681272 590 c 0
 24.3554278934 590 0 614.355204236 0 644.074918534 c 0
 0 674.085188864 24.8339795237 697 54.868683402 697 c 0
 85.7013547033 697 108 672.851404367 108 644.088480157 c 0
EndSplineSet
Substitution2: "'case' Case-Sensitive Forms lookup 15 subtable" uni0308.case
Substitution2: "Single Substitution lookup 7 subtable" uni0308.case
Substitution2: "Single Substitution lookup 6 subtable" uni0308.case
Substitution2: "Single Substitution lookup 4 subtable" uni0308.case
Substitution2: "Single Substitution lookup 3 subtable" uni0308.case
Substitution2: "'aalt' Access All Alternates lookup 0 subtable" uni0308.case
EndChar

StartChar: uni0307
Encoding: 411 775 345
Width: 108
GlyphClass: 4
Flags: W
HStem: 590 108<11.2122 97.2705>
VStem: 0 108<601.212 687.27>
AnchorPoint: "Anchor-4" 54 698 basemark 0
AnchorPoint: "Anchor-4" 54 496 mark 0
AnchorPoint: "Anchor-0" 54 496 mark 0
LayerCount: 2
Fore
SplineSet
108 644.871309686 m 0
 108 615.626259945 86.1651629928 590 54.8672681272 590 c 0
 24.3554278934 590 0 614.355204236 0 644.867046265 c 0
 0 676.164149302 25.6251955888 698 54.8714127485 698 c 0
 84.932356347 698 108 674.930619466 108 644.871309686 c 0
EndSplineSet
Substitution2: "'case' Case-Sensitive Forms lookup 15 subtable" uni0307.case
Substitution2: "Single Substitution lookup 7 subtable" uni0307.case
Substitution2: "Single Substitution lookup 6 subtable" uni0307.case
Substitution2: "Single Substitution lookup 4 subtable" uni0307.case
Substitution2: "Single Substitution lookup 3 subtable" uni0307.case
Substitution2: "'aalt' Access All Alternates lookup 0 subtable" uni0307.case
EndChar

StartChar: Euro
Encoding: 413 8364 347
Width: 664
GlyphClass: 1
Flags: W
HStem: -12 79<300.454 475.268> 240 51<43 100 197 343> 377 51<43 100 197 418> 500 21G<535.027 600.714> 601 79<300.08 473>
VStem: 106 91<180.999 240 428 488.638>
LayerCount: 2
Fore
SplineSet
626 139 m 1
 601.589308101 85.8708470428 535.514563936 -12 380.486532992 -12 c 0
 305.333333333 -12 244.5 11 195.625691193 58.8344298958 c 0
 150.5 103 120 164 106 240 c 1
 15 240 l 1
 43 291 l 1
 100 291 l 1
 100 377 l 1
 15 377 l 1
 43 428 l 1
 106 428 l 1
 117.779028558 490.107605123 171.419762527 680 378.990920669 680 c 0
 435.539270592 680 560.658625801 665.906676259 623 528 c 1
 545 500 l 1
 525.053547639 542.742397916 479.906684983 601 388.580864569 601 c 0
 321.544575731 601 228.654096104 569.61042994 197 428 c 1
 446 428 l 1
 418 377 l 1
 189 377 l 1
 189 291 l 1
 371 291 l 1
 343 240 l 1
 197 240 l 1
 209.359164018 189.327427527 252.877173014 67 386.07272078 67 c 0
 432.905747075 67 507.504763663 82.1233802207 549 167 c 1
 626 139 l 1
EndSplineSet
EndChar

StartChar: uni2074
Encoding: 414 8308 348
Width: 412
GlyphClass: 1
Flags: W
HStem: 489 57<113 225 293 358>
VStem: 225 68<403 489 546 692>
DStem2: 40 543 113 546 0.618997 0.785394<47.5429 231.538>
LayerCount: 2
Fore
SplineSet
113 546 m 1
 225 546 l 1
 225 692 l 1
 113 546 l 1
225 403 m 1
 225 489 l 1
 40 489 l 1
 40 543 l 1
 226 779 l 1
 293 779 l 1
 293 546 l 1
 358 546 l 1
 358 489 l 1
 293 489 l 1
 293 403 l 1
 225 403 l 1
EndSplineSet
EndChar

StartChar: gravecomb
Encoding: 415 768 349
Width: 162
GlyphClass: 4
Flags: W
HStem: 571 136
VStem: 0 162
AnchorPoint: "Anchor-4" 81 707 basemark 0
AnchorPoint: "Anchor-4" 108 496 mark 0
AnchorPoint: "Anchor-0" 108 496 mark 0
LayerCount: 2
Fore
SplineSet
0 664.706114568 m 0
 0 690.529519558 16.471910052 707 43.1111111111 707 c 1
 43.1111111111 707 57.3333333333 707 69 692 c 2
 162 571 l 1
 92 571 l 1
 6.50854700855 642.992802519 0 648.473684211 0 664.706114568 c 0
EndSplineSet
Substitution2: "'case' Case-Sensitive Forms lookup 15 subtable" gravecomb.case
Substitution2: "Single Substitution lookup 7 subtable" gravecomb.case
Substitution2: "Single Substitution lookup 6 subtable" gravecomb.case
Substitution2: "Single Substitution lookup 4 subtable" gravecomb.case
Substitution2: "Single Substitution lookup 3 subtable" gravecomb.case
Substitution2: "'aalt' Access All Alternates lookup 0 subtable" gravecomb.case
EndChar

StartChar: gravecomb.case
Encoding: 416 -1 350
Width: 0
GlyphClass: 4
Flags: W
HStem: 744 120
VStem: 0 173
AnchorPoint: "Anchor-4" 87 864 basemark 0
AnchorPoint: "Anchor-4" 122 668 mark 0
AnchorPoint: "Anchor-0" 122 668 mark 0
LayerCount: 2
Fore
SplineSet
0 827.828768002 m 0
 0 848.193797892 15.8084686928 864 41.5790598291 864 c 1
 41.5790598291 864 55.625 864 67 851 c 2
 173 744 l 1
 97 744 l 2
 96.1991110708 744.533925953 37.9896123157 778.896968199 19.0436127346 794.234397274 c 0
 5.33333333333 805.333333333 0 816 0 827.828768002 c 0
EndSplineSet
EndChar

StartChar: uni030B
Encoding: 417 779 351
Width: 308
GlyphClass: 4
Flags: W
HStem: 572 136
VStem: 0 308
AnchorPoint: "Anchor-4" 154 708 basemark 0
AnchorPoint: "Anchor-4" 114 496 mark 0
AnchorPoint: "Anchor-0" 114 496 mark 0
LayerCount: 2
Fore
SplineSet
268.659004003 708 m 0
 290.238698398 708 308 690.238508715 308 664.536796537 c 1
 308 664.536796537 308 652.428571429 297 643 c 2
 216 572 l 1
 146 572 l 1
 242 695 l 2
 248.666666667 703.666666667 258 708 268.659004003 708 c 0
123.36721348 708 m 0
 145.529519558 708 162 691.528089948 162 664.536796537 c 1
 162 664.536796537 162 652.428571429 151 643 c 2
 70 572 l 1
 0 572 l 1
 96 695 l 2
 102.666666667 703.666666667 112 708 123.36721348 708 c 0
EndSplineSet
Substitution2: "'case' Case-Sensitive Forms lookup 15 subtable" uni030B.case
Substitution2: "Single Substitution lookup 7 subtable" uni030B.case
Substitution2: "Single Substitution lookup 6 subtable" uni030B.case
Substitution2: "Single Substitution lookup 4 subtable" uni030B.case
Substitution2: "Single Substitution lookup 3 subtable" uni030B.case
Substitution2: "'aalt' Access All Alternates lookup 0 subtable" uni030B.case
EndChar

StartChar: dotlessi
Encoding: 419 305 353
Width: 274
GlyphClass: 2
Flags: W
HStem: 0 21G<112 196> 429 67<43 112>
VStem: 112 84<0 429>
AnchorPoint: "Anchor-2" 248 10 basechar 0
AnchorPoint: "Anchor-1" 137 0 basechar 0
AnchorPoint: "Anchor-0" 132 496 basechar 0
LayerCount: 2
Fore
SplineSet
112 0 m 1
 112 429 l 1
 43 429 l 1
 43 496 l 1
 196 496 l 1
 196 0 l 1
 112 0 l 1
EndSplineSet
EndChar

StartChar: uni0304
Encoding: 420 772 354
Width: 276
GlyphClass: 4
Flags: W
HStem: 601 67<0 276>
VStem: 0 276<601 668>
AnchorPoint: "Anchor-4" 138 668 basemark 0
AnchorPoint: "Anchor-4" 138 496 mark 0
AnchorPoint: "Anchor-0" 138 496 mark 0
LayerCount: 2
Fore
SplineSet
0 601 m 1
 0 668 l 1
 276 668 l 1
 276 601 l 1
 0 601 l 1
EndSplineSet
Substitution2: "'case' Case-Sensitive Forms lookup 15 subtable" uni0304.case
Substitution2: "Single Substitution lookup 7 subtable" uni0304.case
Substitution2: "Single Substitution lookup 6 subtable" uni0304.case
Substitution2: "Single Substitution lookup 4 subtable" uni0304.case
Substitution2: "Single Substitution lookup 3 subtable" uni0304.case
Substitution2: "'aalt' Access All Alternates lookup 0 subtable" uni0304.case
EndChar

StartChar: mu
Encoding: 181 181 356
Width: 555
GlyphClass: 1
Flags: W
HStem: -162 21G<70 154> -11 72<190.386 327.05> 0 75<472.095 539.207> 476 20G<70 154 385 469>
VStem: 70 84<-162 21.0804 98.3807 496> 385 84<125.405 496>
LayerCount: 2
Fore
SplineSet
139 24 m 1xdc
 152.129551623 -39.021847789 154 -54.6397820496 154 -79 c 2
 154 -162 l 1
 70 -162 l 1
 70 496 l 1
 154 496 l 1
 154 198 l 2
 154 134.131046728 166.413936597 61 255.656730155 61 c 0xdc
 294 61 323.333333333 74.5 344.804696948 98.0024385509 c 0
 372.666666667 128.5 385 173.333333333 385 236 c 2
 385 496 l 1
 469 496 l 1
 469 122 l 2
 469 92.2491519785 476.002362928 75 510.542872658 75 c 0
 517.333333333 75 523.166666667 75.6666666667 528.944444444 77.4444444444 c 0
 531.833333333 78.3333333333 536 79.3333333333 540 80 c 1
 540 7 l 1
 509.911819949 0.313737766372 496.71052339 0 490.134301783 0 c 0xbc
 457.936644693 0 407.857971086 7.52077268439 390 73 c 1
 365.617115572 28.8785900832 320.921544706 -11 240.847298409 -11 c 0
 204.771836917 -11 167.699441751 -2.90572664179 139 24 c 1xdc
EndSplineSet
EndChar

StartChar: uni0328
Encoding: 422 808 357
Width: 157
GlyphClass: 4
Flags: W
HStem: -173 58<75.6418 156.142> -20 20G<52.8704 157>
VStem: 0 70<-109.953 -34.7881>
AnchorPoint: "Anchor-2" 157 0 mark 0
LayerCount: 2
Fore
SplineSet
117.97008758 -115 m 0
 130.407865254 -115 143.024580892 -112.590167643 157 -107 c 1
 157 -161 l 1
 134.333333333 -169 113.333333333 -173 93.2763610417 -173 c 0
 20.2587973136 -173 0 -119.986812332 0 -88.8912814646 c 0
 0 -53.8401290573 25.7408160326 -13.198179884 80 0 c 1
 157 0 l 1
 132.026979498 -9.3036743048 70 -32.4268166628 70 -74.2691163071 c 0
 70 -83.8392770248 73.2448005351 -115 117.97008758 -115 c 0
EndSplineSet
Substitution2: "'case' Case-Sensitive Forms lookup 15 subtable" uni0328.case
Substitution2: "Single Substitution lookup 7 subtable" uni0328.case
Substitution2: "Single Substitution lookup 6 subtable" uni0328.case
Substitution2: "Single Substitution lookup 4 subtable" uni0328.case
Substitution2: "Single Substitution lookup 3 subtable" uni0328.case
Substitution2: "'aalt' Access All Alternates lookup 0 subtable" uni0328.case
EndChar

StartChar: uni0328.case
Encoding: 423 -1 358
Width: 0
GlyphClass: 4
Flags: W
HStem: -173 58<75.7872 156.142> -20 20G<50.6667 157>
VStem: 0 70<-109.011 -32.1442>
AnchorPoint: "Anchor-2" 157 0 mark 0
LayerCount: 2
Fore
SplineSet
117.961423015 -115 m 0
 130.407865254 -115 143.024580892 -112.590167643 157 -107 c 1
 157 -161 l 1
 134.333333333 -169 113.333333333 -173 93.2763610417 -173 c 0
 20.2587973136 -173 0 -119.986812332 0 -86.0018570395 c 0
 0 -67 6.33333333333 -47.5 22.2737097716 -28.6232384284 c 0
 31.6666666667 -17.5 44.3333333333 -6.66666666667 57 0 c 1
 157 0 l 1
 78.2791951722 -28.1145731528 70 -51.893845448 70 -71.3450577875 c 0
 70 -85.2585011537 74.2360787009 -115 117.961423015 -115 c 0
EndSplineSet
EndChar

StartChar: uni030A
Encoding: 424 778 359
Width: 218
GlyphClass: 4
Flags: W
HStem: 559 58<66.309 151.118> 719 58<67.0428 151.212>
VStem: 0 57<627.191 708.774> 161 57<627.034 708.966>
AnchorPoint: "Anchor-4" 109 777 basemark 0
AnchorPoint: "Anchor-4" 109 496 mark 0
AnchorPoint: "Anchor-0" 109 496 mark 0
LayerCount: 2
Fore
SplineSet
57 668.000010327 m 0
 57 640.4599235 78.6593110606 617 108.999990466 617 c 0
 139.340633879 617 161 640.459867842 161 667.999989673 c 0
 161 695.5400765 139.340688939 719 109.000009534 719 c 0
 78.659366121 719 57 695.540132158 57 668.000010327 c 0
218 668.000177554 m 0
 218 612.332694097 176.267039234 559 111.24204069 559 c 0
 46.3324239956 559 0 612.143592507 0 668.932369379 c 0
 0 727.582247221 49.4190299158 777 111.634183418 777 c 0
 176.266202672 777 218 723.668218953 218 668.000177554 c 0
EndSplineSet
Substitution2: "'case' Case-Sensitive Forms lookup 15 subtable" uni030A.case
Substitution2: "Single Substitution lookup 7 subtable" uni030A.case
Substitution2: "Single Substitution lookup 6 subtable" uni030A.case
Substitution2: "Single Substitution lookup 4 subtable" uni030A.case
Substitution2: "Single Substitution lookup 3 subtable" uni030A.case
Substitution2: "'aalt' Access All Alternates lookup 0 subtable" uni030A.case
EndChar

StartChar: uni00AD
Encoding: 173 173 362
Width: 348
GlyphClass: 1
Flags: W
HStem: 208 81<38 310>
VStem: 38 272<208 289>
LayerCount: 2
Fore
SplineSet
38 208 m 1
 38 289 l 1
 310 289 l 1
 310 208 l 1
 38 208 l 1
EndSplineSet
EndChar

StartChar: uni0163
Encoding: 427 355 363
Width: 324
GlyphClass: 2
Flags: W
HStem: -181 41<102.541 211.796> -81 40<151.672 216.475> 0 74<207.676 284> 429 67<20 104 188 284>
VStem: 104 84<79.3623 429 496 621> 217 62<-134.136 -83.2437>
DStem2: 163.629 5.10893 180 -45 0.528136 0.84916<-33.9042 0>
AnchorPoint: "Anchor-1" 173 -250 basechar 0
AnchorPoint: "Anchor-0" 162 496 basechar 0
LayerCount: 2
Fore
SplineSet
279 -95.6394270868 m 0
 279 -103.2509996 277.730367483 -181 183.0220544 -181 c 0
 163.48677991 -181 137.399355527 -177.692059818 94 -161 c 1
 108 -126 l 1
 130.666666667 -135.333333333 150 -140 168.082888531 -140 c 0
 216.4503706 -140 217 -106.612943717 217 -104.571873588 c 0
 217 -100.190433295 214.467275815 -81 182.849033624 -81 c 0
 156.977085156 -81 141.123874145 -93.8489492024 128.619268744 -82.1779841609 c 0
 124.5 -78.3333333333 122 -73 122 -66.8742588672 c 0
 122 -63 123 -59.6666666667 125 -57 c 2
 163.628722298 5.10892604751 l 1
 126.107851872 13.4780880898 104 31.4077809732 104 124 c 2
 104 429 l 1
 20 429 l 1
 20 496 l 1
 104 496 l 1
 104 621 l 1
 188 621 l 1
 188 496 l 1
 284 496 l 1
 284 429 l 1
 188 429 l 1
 188 138 l 2
 188 82.789075422 196.248817788 74 239 74 c 2
 284 74 l 1
 284 0 l 1
 221 0 l 2
 216.404554439 0 211.96326446 0.0681152577427 207.676130065 0.204345773228 c 2
 180 -45 l 1
 188.875703238 -42.7810741904 199.220944115 -41 208.471230633 -41 c 0
 218.339618 -41 279 -43.0270479314 279 -95.6394270868 c 0
EndSplineSet
Substitution2: "'locl' Localized Forms in Latin lookup 8 subtable" uni021B
Substitution2: "'aalt' Access All Alternates lookup 0 subtable" uni021B
EndChar

StartChar: tildecomb
Encoding: 429 771 365
Width: 329
GlyphClass: 4
Flags: W
HStem: 575 63<173.733 267.68> 618 63<70.7884 163.922>
VStem: 0 65<577 613.731>
AnchorPoint: "Anchor-4" 165 681 basemark 0
AnchorPoint: "Anchor-4" 165 496 mark 0
AnchorPoint: "Anchor-0" 165 496 mark 0
LayerCount: 2
Fore
SplineSet
329 648.946897635 m 0xa0
 329 621.508844642 288.593764667 575 233.533546452 575 c 0xa0
 180.591054347 575 143.331426273 618 104.32419344 618 c 0
 82.3333333333 618 68.3333333333 604.333333333 65 577 c 1
 0 577 l 1
 6.49762793958 615.263808978 28.8828040187 681 106.709468241 681 c 0x60
 169.654343335 681 182.350178629 638 228.264845461 638 c 0
 273.642480171 638 264.059900781 680 297.588638219 680 c 0
 319.298190778 680 329 662.391732155 329 648.946897635 c 0xa0
EndSplineSet
Substitution2: "'case' Case-Sensitive Forms lookup 15 subtable" tildecomb.case
Substitution2: "Single Substitution lookup 7 subtable" tildecomb.case
Substitution2: "Single Substitution lookup 6 subtable" tildecomb.case
Substitution2: "Single Substitution lookup 4 subtable" tildecomb.case
Substitution2: "Single Substitution lookup 3 subtable" tildecomb.case
Substitution2: "'aalt' Access All Alternates lookup 0 subtable" tildecomb.case
EndChar

StartChar: zero.alt1
Encoding: 431 -1 367
Width: 648
Flags: W
HStem: -12 74<242.708 404.455> 606 74<243.968 405.84>
VStem: 60 91<191.16 488.896> 497 91<180.137 482.76>
DStem2: 168 190 213 107 0.571572 0.820552<0 419.499>
LayerCount: 2
Fore
SplineSet
323.733733675 62 m 0
 413.083084971 62 497 119.253329786 497 333.458905898 c 0
 497 386.131361509 491.925945853 439.729567856 477 486 c 1
 213 107 l 1
 241 77 278 62 323.733733675 62 c 0
318.136691457 606 m 0
 277.933134483 606 151 597.095761676 151 333.936020598 c 0
 151 278.333333333 156.666666667 230 168 190 c 1
 431 566 l 1
 403 592.666666667 367.333333333 606 318.136691457 606 c 0
588 327.873493783 m 0
 588 249.499220743 577.471573933 -12 305.456602674 -12 c 0
 271.980329309 -12 60 -8.03941812951 60 341.990448547 c 0
 60 419.894763101 70.5004613045 680 321.417215225 680 c 0
 433.607736284 680 588 628.000148255 588 327.873493783 c 0
EndSplineSet
Substitution2: "'aalt' Access All Alternates lookup 0 subtable" zero
Substitution2: "'tnum' Tabular Numbers lookup 14 subtable" zero
Substitution2: "'zero' Slashed Zero lookup 0-1" zero
EndChar

StartChar: copyleft
Encoding: 432 127279 368
Width: 798
Flags: W
HStem: -12 62<295.3 502.704> 150 59<332.47 453.933> 473 58<339.116 456.435> 618 62<295.296 502.7>
VStem: 53 62<230.296 437.7> 495 76<250.207 432.495> 683 62<230.3 437.704>
LayerCount: 2
Fore
SplineSet
571 345.673183857 m 0
 571 286.435092388 554.920839418 150 400.464820241 150 c 0
 357.317405231 150 286.756105714 160.646968723 248 230 c 1
 314 254 l 1
 324.842350968 233.149325062 347.981451456 209 392.969766426 209 c 0
 424.283880368 209 495 220.69999829 495 338.638884487 c 0
 495 383.115768449 484.942892693 473 398.043523051 473 c 0
 361 473 334.333333333 456.666666667 317 424 c 1
 250 449 l 1
 267.955001056 483.020002 308.594076103 531 391.6929286 531 c 0
 434.589381671 531 571 518.214640635 571 345.673183857 c 0
115 334.000271965 m 0
 115 176.332025826 241.330579093 50 398.999728035 50 c 0
 556.667974174 50 683 176.330579093 683 333.999728035 c 0
 683 491.667974174 556.669420907 618 399.000271965 618 c 0
 241.332025826 618 115 491.669420907 115 334.000271965 c 0
745 334.00286405 m 0
 745 142.80807037 590.206907674 -12 399.00286405 -12 c 0
 207.80807037 -12 53 142.793092326 53 333.99713595 c 0
 53 525.19192963 207.793092326 680 398.99713595 680 c 0
 590.19192963 680 745 525.206907674 745 334.00286405 c 0
EndSplineSet
EndChar

StartChar: fi
Encoding: 433 64257 369
Width: 527
Flags: W
HStem: 0 21G<99 183 363 447> 429 67<15 99 183 363> 590 125<358.774 452.612> 635 71<191.361 286>
VStem: 99 84<0 429 496 628.957> 343 125<606.058 699.569> 363 84<0 429>
LayerCount: 2
Fore
SplineSet
468 653.07726881 m 0xec
 468 617.983328987 440.013856556 590 405.786691845 590 c 0
 371.976974901 590 343 617.304900505 343 653.070971018 c 0
 343 689.150762282 372.487545252 715 405.783373467 715 c 0
 439.501403232 715 468 688.491053082 468 653.07726881 c 0xec
234 635 m 2xda
 193.904614043 635 183 623.302896118 183 571 c 2
 183 496 l 1
 447 496 l 1
 447 0 l 1
 363 0 l 1
 363 429 l 1
 183 429 l 1
 183 0 l 1
 99 0 l 1
 99 429 l 1
 15 429 l 1
 15 496 l 1
 99 496 l 1
 99 570 l 2
 99 675.558524253 124.516178424 706 232 706 c 2
 286 706 l 1
 286 635 l 1
 234 635 l 2xda
EndSplineSet
LCarets2: 1 286
Ligature2: "'liga' Standard Ligatures lookup 0-1" f i
EndChar

StartChar: f_f_i
Encoding: 434 64259 370
Width: 791
Flags: W
HStem: 0 21G<99 183 363 447 627 711> 429 67<15 99 183 363 447 627> 590 125<622.774 716.612> 635 71<191.361 286 455.361 550>
VStem: 99 84<0 429 496 628.957> 363 84<0 429 496 628.957> 607 125<606.058 699.569> 627 84<0 429>
LayerCount: 2
Fore
SplineSet
732 653.07726881 m 0xee
 732 617.983328987 704.013856556 590 669.786691845 590 c 0
 635.976974901 590 607 617.304900505 607 653.070971018 c 0
 607 689.150762282 636.487545252 715 669.783373467 715 c 0
 703.501403232 715 732 688.491053082 732 653.07726881 c 0xee
498 635 m 2xdd
 457.904614043 635 447 623.302896118 447 571 c 2
 447 496 l 1
 711 496 l 1
 711 0 l 1
 627 0 l 1
 627 429 l 1
 447 429 l 1
 447 0 l 1
 363 0 l 1
 363 429 l 1
 183 429 l 1
 183 0 l 1
 99 0 l 1
 99 429 l 1
 15 429 l 1
 15 496 l 1
 99 496 l 1
 99 570 l 2
 99 675.558524253 124.516178424 706 232 706 c 2
 286 706 l 1
 286 635 l 1
 234 635 l 2
 193.904614043 635 183 623.302896118 183 571 c 2
 183 496 l 1
 363 496 l 1
 363 570 l 2
 363 675.558524253 388.516178424 706 496 706 c 2
 550 706 l 1
 550 635 l 1
 498 635 l 2xdd
EndSplineSet
LCarets2: 2 288 550
Ligature2: "'liga' Standard Ligatures lookup 0-1" f f i
EndChar

StartChar: f_f_l
Encoding: 436 64260 372
Width: 814
Flags: W
HStem: 0 74<733.615 799> 429 67<15 99 183 363 447 550> 635 71<191.361 286 455.361 550> 647 20G<645 729>
VStem: 99 84<0 429 496 628.957> 363 84<0 429 496 628.957> 645 84<78.2637 667>
LayerCount: 2
Fore
SplineSet
498 635 m 2xee
 457.904614043 635 447 623.302896118 447 571 c 2
 447 496 l 1
 550 496 l 1
 550 429 l 1
 447 429 l 1
 447 0 l 1
 363 0 l 1
 363 429 l 1
 183 429 l 1
 183 0 l 1
 99 0 l 1
 99 429 l 1
 15 429 l 1
 15 496 l 1
 99 496 l 1
 99 570 l 2
 99 675.558524253 124.516178424 706 232 706 c 2
 286 706 l 1
 286 635 l 1
 234 635 l 2
 193.904614043 635 183 623.302896118 183 571 c 2
 183 496 l 1
 363 496 l 1
 363 570 l 2
 363 675.558524253 388.516178424 706 496 706 c 2
 550 706 l 1
 550 635 l 1
 498 635 l 2xee
729 138 m 2
 729 83.3648639888 738.055996296 74 780 74 c 2
 799 74 l 1
 799 0 l 1
 762 0 l 2
 667.748560966 0 645 22.175625653 645 124 c 2
 645 667 l 1
 729 667 l 1xde
 729 138 l 2
EndSplineSet
LCarets2: 2 288 602
Ligature2: "'liga' Standard Ligatures lookup 0-1" f f l
EndChar

StartChar: f_f
Encoding: 437 64256 373
Width: 575
Flags: W
HStem: 0 21G<99 183 363 447> 429 67<15 99 183 363 447 550> 635 71<191.361 286 455.361 550>
VStem: 99 84<0 429 496 628.957> 363 84<0 429 496 628.957>
LayerCount: 2
Fore
SplineSet
498 635 m 2
 457.904614043 635 447 623.302896118 447 571 c 2
 447 496 l 1
 550 496 l 1
 550 429 l 1
 447 429 l 1
 447 0 l 1
 363 0 l 1
 363 429 l 1
 183 429 l 1
 183 0 l 1
 99 0 l 1
 99 429 l 1
 15 429 l 1
 15 496 l 1
 99 496 l 1
 99 570 l 2
 99 675.558524253 124.516178424 706 232 706 c 2
 286 706 l 1
 286 635 l 1
 234 635 l 2
 193.904614043 635 183 623.302896118 183 571 c 2
 183 496 l 1
 363 496 l 1
 363 570 l 2
 363 675.558524253 388.516178424 706 496 706 c 2
 550 706 l 1
 550 635 l 1
 498 635 l 2
EndSplineSet
Ligature2: "'liga' Standard Ligatures lookup 0-1" f f
LCarets2: 1 288
EndChar

StartChar: dong
Encoding: 438 8363 374
Width: 603
Flags: W
HStem: -129 67<50 553> -12 72<199.991 346.18> 0 21G<428.133 513> 432 72<202.052 346.115> 548 67<249 412 496 578> 648 20G<412 496>
VStem: 38 94<138.17 357.618> 412 84<132.943 358.325 418 548 615 668>
LayerCount: 2
Fore
SplineSet
50 -129 m 1x9f
 50 -62 l 1
 553 -62 l 1
 553 -129 l 1
 50 -129 l 1x9f
EndSplineSet
Refer: 319 273 N 1 0 0 1 0 0 2
EndChar

StartChar: uni0237
Encoding: 474 567 410
Width: 254
HStem: -161 74<-58 73.048> 476 20G<90 174>
VStem: 90 84<-68.8001 496>
AnchorPoint: "Anchor-0" 134 496 basechar 0
LayerCount: 2
Fore
SplineSet
174 7 m 2
 174 -120.233499963 133.93611926 -161 -3 -161 c 1
 -58 -159 l 1
 -58 -86 l 1
 -11 -87 l 2
 74.9169662162 -87 90 -68.6974718916 90 12 c 2
 90 496 l 1
 174 496 l 1
 174 7 l 2
EndSplineSet
EndChar

StartChar: uni2010
Encoding: 489 8208 425
Width: 328
Flags: W
HStem: 208 81<38 290>
VStem: 38 252<208 289>
LayerCount: 2
Fore
SplineSet
38 208 m 1
 38 289 l 1
 290 289 l 1
 290 208 l 1
 38 208 l 1
EndSplineSet
EndChar

StartChar: Ldot
Encoding: 496 319 432
Width: 539
HStem: 0 81<170 529> 250 130<317.648 411.709> 648 20G<76 170>
VStem: 76 94<81 668> 300 129<267.897 362.446>
LayerCount: 2
Fore
SplineSet
429 315.840819726 m 0
 429 282.47914424 401.842867385 250 364.795711555 250 c 0
 328.166244036 250 300 281.750900317 300 315.806353958 c 0
 300 351.732977714 331.34645332 380 364.770052214 380 c 0
 398.514372652 380 429 351.187893421 429 315.840819726 c 0
EndSplineSet
Refer: 26 76 N 1 0 0 1 0 0 3
EndChar

StartChar: ldot
Encoding: 497 320 433
Width: 370
Flags: W
HStem: 0 74<158.615 224> 250 129<248.059 343.354> 647 20G<70 154>
VStem: 70 84<78.2637 667> 231 129<266.646 361.942>
LayerCount: 2
Fore
SplineSet
360 314.213297155 m 0
 360 278.647709807 331.351153508 250 295.786761416 250 c 0
 260.657528971 250 231 277.950942131 231 314.209249274 c 0
 231 350.040183714 259.962509211 379 295.790994328 379 c 0
 332.047627746 379 360 349.343912001 360 314.213297155 c 0
EndSplineSet
Refer: 52 108 N 1 0 0 1 0 0 2
EndChar

